<svg width="797" height="362" viewBox="0 0 797 362" fill="none" xmlns="http://www.w3.org/2000/svg">
<g clip-path="url(#clip0_1_2)">
<g clip-path="url(#clip1_1_2)">
<path d="M215.5 328V36" stroke="url(#paint0_linear_1_2)" stroke-dasharray="24 24"/>
<path d="M-547.998 71.569C-547.998 71.569 -500.072 93.105 -427.103 60.331C-354.134 27.556 -304.099 51.817 -220.234 112.254C-136.369 172.691 -80.1041 120.337 -20.5261 90.386C39.0509 60.435 75.595 39.175 118.129 71.083C160.663 102.99 181.261 199.566 303.53 90.971C425.8 -17.6247 430.316 118.796 557.642 69.607C684.967 20.417 637.58 106.366 755.85 69.607" stroke="url(#paint1_linear_1_2)" stroke-width="4" stroke-linecap="round"/>
<path d="M-537.645 300.492C-537.645 300.492 -490.259 277.795 -416.512 308.78C-342.766 339.766 -293.337 314.293 -210.971 251.829C-128.604 189.365 -71.079 240.332 -10.789 268.822C49.501 297.311 86.552 317.674 128.296 284.739C170.039 251.804 188.276 154.755 313.157 260.337C438.038 365.919 439.227 229.428 567.714 275.499C696.201 321.57 652.219 226.472 771.35 260.337" stroke="url(#paint2_linear_1_2)" stroke-width="4" stroke-linecap="round"/>
<path d="M211 142L336.33 136.5L361.369 135.401C426.544 132.541 490.945 150.443 545.293 186.529C564.78 199.468 585.676 210.145 607.579 218.354L676 244" stroke="url(#paint3_linear_1_2)" stroke-width="4" stroke-linecap="round"/>
<path d="M216.354 212.533L350.528 217.303L377.422 218.508C450.236 221.771 522.157 201.44 582.487 160.539C604.012 145.947 627.147 133.884 651.434 124.589L727.35 95.533" stroke="url(#paint4_linear_1_2)" stroke-width="4" stroke-linecap="round"/>
<path d="M463.354 36.25H350.354C337.237 36.25 326.604 46.8832 326.604 60V84C326.604 97.1168 337.237 107.75 350.354 107.75H463.354C476.471 107.75 487.104 97.1168 487.104 84V60C487.104 46.8832 476.471 36.25 463.354 36.25Z" fill="black"/>
<path d="M362.354 62C359.731 62 357.604 64.127 357.604 66.75C357.604 69.373 359.731 71.5 362.354 71.5C364.978 71.5 367.104 69.373 367.104 66.75C367.104 64.127 364.978 62 362.354 62Z" fill="white"/>
<path d="M359.354 73C356.731 73 354.604 75.127 354.604 77.75C354.604 80.373 356.731 82.5 359.354 82.5H365.354C367.978 82.5 370.104 80.373 370.104 77.75C370.104 75.127 367.978 73 365.354 73H359.354Z" fill="white"/>
<path d="M402.074 65H404.674V79H402.074V65ZM394.834 79H392.234V65H394.834V79ZM402.274 73H394.614V70.78H402.274V73ZM411.706 79.14C410.799 79.14 409.999 78.973 409.306 78.64C408.612 78.293 408.072 77.773 407.686 77.08C407.299 76.373 407.106 75.487 407.106 74.42V68.32H409.606V74.08C409.606 75.04 409.819 75.76 410.246 76.24C410.686 76.707 411.306 76.94 412.106 76.94C412.692 76.94 413.199 76.82 413.626 76.58C414.066 76.34 414.406 75.98 414.646 75.5C414.899 75.02 415.026 74.427 415.026 73.72V68.32H417.526V79H415.146V76.12L415.566 77C415.206 77.693 414.679 78.227 413.986 78.6C413.292 78.96 412.532 79.14 411.706 79.14ZM433.279 68.2C434.132 68.2 434.886 68.367 435.539 68.7C436.206 69.033 436.726 69.547 437.099 70.24C437.472 70.92 437.659 71.8 437.659 72.88V79H435.159V73.2C435.159 72.253 434.952 71.547 434.539 71.08C434.126 70.613 433.532 70.38 432.759 70.38C432.212 70.38 431.726 70.5 431.299 70.74C430.886 70.98 430.559 71.333 430.319 71.8C430.092 72.267 429.979 72.86 429.979 73.58V79H427.479V73.2C427.479 72.253 427.272 71.547 426.859 71.08C426.446 70.613 425.852 70.38 425.079 70.38C424.532 70.38 424.046 70.5 423.619 70.74C423.206 70.98 422.879 71.333 422.639 71.8C422.412 72.267 422.299 72.86 422.299 73.58V79H419.799V68.32H422.179V71.16L421.759 70.32C422.119 69.627 422.639 69.1 423.319 68.74C424.012 68.38 424.799 68.2 425.679 68.2C426.679 68.2 427.546 68.447 428.279 68.94C429.026 69.433 429.519 70.18 429.759 71.18L428.779 70.84C429.126 70.04 429.699 69.4 430.499 68.92C431.299 68.44 432.226 68.2 433.279 68.2ZM446.434 79V76.84L446.294 76.38V72.6C446.294 71.867 446.074 71.3 445.634 70.9C445.194 70.487 444.527 70.28 443.634 70.28C443.034 70.28 442.44 70.373 441.854 70.56C441.28 70.747 440.794 71.007 440.394 71.34L439.414 69.52C439.987 69.08 440.667 68.753 441.454 68.54C442.254 68.313 443.08 68.2 443.934 68.2C445.48 68.2 446.674 68.573 447.514 69.32C448.367 70.053 448.794 71.193 448.794 72.74V79H446.434ZM443.074 79.14C442.274 79.14 441.574 79.007 440.974 78.74C440.374 78.46 439.907 78.08 439.574 77.6C439.254 77.107 439.094 76.553 439.094 75.94C439.094 75.34 439.234 74.8 439.514 74.32C439.807 73.84 440.28 73.46 440.934 73.18C441.587 72.9 442.454 72.76 443.534 72.76H446.634V74.42H443.714C442.86 74.42 442.287 74.56 441.994 74.84C441.7 75.107 441.554 75.44 441.554 75.84C441.554 76.293 441.734 76.653 442.094 76.92C442.454 77.187 442.954 77.32 443.594 77.32C444.207 77.32 444.754 77.18 445.234 76.9C445.727 76.62 446.08 76.207 446.294 75.66L446.714 77.16C446.474 77.787 446.04 78.273 445.414 78.62C444.8 78.967 444.02 79.14 443.074 79.14ZM457.062 68.2C457.915 68.2 458.675 68.367 459.342 68.7C460.022 69.033 460.555 69.547 460.942 70.24C461.329 70.92 461.522 71.8 461.522 72.88V79H459.022V73.2C459.022 72.253 458.795 71.547 458.342 71.08C457.902 70.613 457.282 70.38 456.482 70.38C455.895 70.38 455.375 70.5 454.922 70.74C454.469 70.98 454.115 71.34 453.862 71.82C453.622 72.287 453.502 72.88 453.502 73.6V79H451.002V68.32H453.382V71.2L452.962 70.32C453.335 69.64 453.875 69.12 454.582 68.76C455.302 68.387 456.129 68.2 457.062 68.2Z" fill="white"/>
<path d="M463.354 36.25H350.354C337.237 36.25 326.604 46.8832 326.604 60V84C326.604 97.1168 337.237 107.75 350.354 107.75H463.354C476.471 107.75 487.104 97.1168 487.104 84V60C487.104 46.8832 476.471 36.25 463.354 36.25Z" stroke="url(#paint5_linear_1_2)" stroke-width="0.5"/>
<path d="M765.354 10.25H593.354C580.237 10.25 569.604 20.8832 569.604 34V42C569.604 55.1168 580.237 65.75 593.354 65.75H765.354C778.471 65.75 789.104 55.1168 789.104 42V34C789.104 20.8832 778.471 10.25 765.354 10.25Z" fill="black"/>
<path fill-rule="evenodd" clip-rule="evenodd" d="M597.354 48C602.877 48 607.354 43.523 607.354 38C607.354 32.477 602.877 28 597.354 28C591.831 28 587.354 32.477 587.354 38C587.354 43.523 591.831 48 597.354 48ZM602.913 35.5C603.189 35.192 603.163 34.718 602.855 34.441C602.546 34.165 602.072 34.191 601.795 34.5L598.426 38.263C597.744 39.025 597.284 39.536 596.891 39.867C596.516 40.181 596.296 40.25 596.104 40.25C595.912 40.25 595.692 40.181 595.318 39.867C594.925 39.536 594.465 39.025 593.782 38.263L592.913 37.292C592.637 36.983 592.163 36.957 591.854 37.234C591.545 37.51 591.519 37.984 591.795 38.293L592.702 39.305C593.338 40.015 593.868 40.608 594.353 41.015C594.865 41.446 595.418 41.75 596.104 41.75C596.79 41.75 597.343 41.446 597.856 41.015C598.341 40.608 598.871 40.015 599.507 39.305L602.913 35.5Z" fill="#2EC708"/>
<path d="M629.714 45.2C628.648 45.2 627.654 45.027 626.734 44.68C625.828 44.32 625.034 43.82 624.354 43.18C623.688 42.527 623.168 41.76 622.794 40.88C622.421 40 622.234 39.04 622.234 38C622.234 36.96 622.421 36 622.794 35.12C623.168 34.24 623.694 33.48 624.374 32.84C625.054 32.187 625.848 31.687 626.754 31.34C627.661 30.98 628.654 30.8 629.734 30.8C630.881 30.8 631.928 31 632.874 31.4C633.821 31.787 634.621 32.367 635.274 33.14L633.594 34.72C633.088 34.173 632.521 33.767 631.894 33.5C631.268 33.22 630.588 33.08 629.854 33.08C629.121 33.08 628.448 33.2 627.834 33.44C627.234 33.68 626.708 34.02 626.254 34.46C625.814 34.9 625.468 35.42 625.214 36.02C624.974 36.62 624.854 37.28 624.854 38C624.854 38.72 624.974 39.38 625.214 39.98C625.468 40.58 625.814 41.1 626.254 41.54C626.708 41.98 627.234 42.32 627.834 42.56C628.448 42.8 629.121 42.92 629.854 42.92C630.588 42.92 631.268 42.787 631.894 42.52C632.521 42.24 633.088 41.82 633.594 41.26L635.274 42.86C634.621 43.62 633.821 44.2 632.874 44.6C631.928 45 630.874 45.2 629.714 45.2ZM640.915 45.14C639.822 45.14 638.849 44.907 637.995 44.44C637.142 43.96 636.469 43.307 635.975 42.48C635.482 41.653 635.235 40.713 635.235 39.66C635.235 38.593 635.482 37.653 635.975 36.84C636.469 36.013 637.142 35.367 637.995 34.9C638.849 34.433 639.822 34.2 640.915 34.2C642.022 34.2 643.002 34.433 643.855 34.9C644.722 35.367 645.395 36.007 645.875 36.82C646.369 37.633 646.615 38.58 646.615 39.66C646.615 40.713 646.369 41.653 645.875 42.48C645.395 43.307 644.722 43.96 643.855 44.44C643.002 44.907 642.022 45.14 640.915 45.14ZM640.915 43C641.529 43 642.075 42.867 642.555 42.6C643.035 42.333 643.409 41.947 643.675 41.44C643.955 40.933 644.095 40.34 644.095 39.66C644.095 38.967 643.955 38.373 643.675 37.88C643.409 37.373 643.035 36.987 642.555 36.72C642.075 36.453 641.535 36.32 640.935 36.32C640.322 36.32 639.775 36.453 639.295 36.72C638.829 36.987 638.455 37.373 638.175 37.88C637.895 38.373 637.755 38.967 637.755 39.66C637.755 40.34 637.895 40.933 638.175 41.44C638.455 41.947 638.829 42.333 639.295 42.6C639.775 42.867 640.315 43 640.915 43ZM648.006 45V34.32H650.386V37.26L650.106 36.4C650.426 35.68 650.926 35.133 651.606 34.76C652.299 34.387 653.159 34.2 654.186 34.2V36.58C654.079 36.553 653.979 36.54 653.886 36.54C653.793 36.527 653.699 36.52 653.606 36.52C652.659 36.52 651.906 36.8 651.346 37.36C650.786 37.907 650.506 38.727 650.506 39.82V45H648.006ZM655.307 45V34.32H657.687V37.26L657.407 36.4C657.727 35.68 658.227 35.133 658.907 34.76C659.6 34.387 660.46 34.2 661.487 34.2V36.58C661.38 36.553 661.28 36.54 661.187 36.54C661.093 36.527 661 36.52 660.907 36.52C659.96 36.52 659.207 36.8 658.647 37.36C658.087 37.907 657.807 38.727 657.807 39.82V45H655.307ZM667.53 45.14C666.343 45.14 665.303 44.907 664.41 44.44C663.53 43.96 662.843 43.307 662.35 42.48C661.87 41.653 661.63 40.713 661.63 39.66C661.63 38.593 661.863 37.653 662.33 36.84C662.81 36.013 663.463 35.367 664.29 34.9C665.13 34.433 666.083 34.2 667.15 34.2C668.19 34.2 669.117 34.427 669.93 34.88C670.743 35.333 671.383 35.973 671.85 36.8C672.317 37.627 672.55 38.6 672.55 39.72C672.55 39.827 672.543 39.947 672.53 40.08C672.53 40.213 672.523 40.34 672.51 40.46H663.61V38.8H671.19L670.21 39.32C670.223 38.707 670.097 38.167 669.83 37.7C669.563 37.233 669.197 36.867 668.73 36.6C668.277 36.333 667.75 36.2 667.15 36.2C666.537 36.2 665.997 36.333 665.53 36.6C665.077 36.867 664.717 37.24 664.45 37.72C664.197 38.187 664.07 38.74 664.07 39.38V39.78C664.07 40.42 664.217 40.987 664.51 41.48C664.803 41.973 665.217 42.353 665.75 42.62C666.283 42.887 666.897 43.02 667.59 43.02C668.19 43.02 668.73 42.927 669.21 42.74C669.69 42.553 670.117 42.26 670.49 41.86L671.83 43.4C671.35 43.96 670.743 44.393 670.01 44.7C669.29 44.993 668.463 45.14 667.53 45.14ZM678.851 45.14C677.731 45.14 676.731 44.907 675.851 44.44C674.985 43.96 674.305 43.307 673.811 42.48C673.318 41.653 673.071 40.713 673.071 39.66C673.071 38.593 673.318 37.653 673.811 36.84C674.305 36.013 674.985 35.367 675.851 34.9C676.731 34.433 677.731 34.2 678.851 34.2C679.891 34.2 680.805 34.413 681.591 34.84C682.391 35.253 682.998 35.867 683.411 36.68L681.491 37.8C681.171 37.293 680.778 36.92 680.311 36.68C679.858 36.44 679.365 36.32 678.831 36.32C678.218 36.32 677.665 36.453 677.171 36.72C676.678 36.987 676.291 37.373 676.011 37.88C675.731 38.373 675.591 38.967 675.591 39.66C675.591 40.353 675.731 40.953 676.011 41.46C676.291 41.953 676.678 42.333 677.171 42.6C677.665 42.867 678.218 43 678.831 43C679.365 43 679.858 42.88 680.311 42.64C680.778 42.4 681.171 42.027 681.491 41.52L683.411 42.64C682.998 43.44 682.391 44.06 681.591 44.5C680.805 44.927 679.891 45.14 678.851 45.14ZM688.729 45.14C687.556 45.14 686.649 44.84 686.009 44.24C685.369 43.627 685.049 42.727 685.049 41.54V31.96H687.549V41.48C687.549 41.987 687.676 42.38 687.929 42.66C688.196 42.94 688.562 43.08 689.029 43.08C689.589 43.08 690.056 42.933 690.429 42.64L691.129 44.42C690.836 44.66 690.476 44.84 690.049 44.96C689.622 45.08 689.182 45.14 688.729 45.14ZM683.289 36.4V34.4H690.409V36.4H683.289Z" fill="#2EC708"/>
<path d="M733.93 45V32L735.07 33.18H730.97V31H736.53V45H733.93ZM738.1 41.82V40.02L745 31H747.78L740.98 40.02L739.68 39.62H750.78V41.82H738.1ZM745.78 45V41.82L745.86 39.62V36.8H748.3V45H745.78ZM752.34 45L758.12 32.04L758.8 33.2H750.86L752.1 31.94V35.58H749.68V31H760.56V32.74L755.12 45H752.34ZM766.62 45.2C765.51 45.2 764.51 44.92 763.62 44.36C762.74 43.8 762.04 42.987 761.54 41.92C761.03 40.84 760.78 39.533 760.78 38C760.78 36.467 761.03 35.167 761.54 34.1C762.04 33.02 762.74 32.2 763.62 31.64C764.51 31.08 765.51 30.8 766.62 30.8C767.74 30.8 768.74 31.08 769.62 31.64C770.5 32.2 771.19 33.02 771.7 34.1C772.22 35.167 772.48 36.467 772.48 38C772.48 39.533 772.22 40.84 771.7 41.92C771.19 42.987 770.5 43.8 769.62 44.36C768.74 44.92 767.74 45.2 766.62 45.2ZM766.62 42.94C767.27 42.94 767.84 42.767 768.32 42.42C768.8 42.06 769.17 41.513 769.44 40.78C769.72 40.047 769.86 39.12 769.86 38C769.86 36.867 769.72 35.94 769.44 35.22C769.17 34.487 768.8 33.947 768.32 33.6C767.84 33.24 767.27 33.06 766.62 33.06C765.99 33.06 765.43 33.24 764.94 33.6C764.46 33.947 764.08 34.487 763.8 35.22C763.53 35.94 763.4 36.867 763.4 38C763.4 39.12 763.53 40.047 763.8 40.78C764.08 41.513 764.46 42.06 764.94 42.42C765.43 42.767 765.99 42.94 766.62 42.94Z" fill="white"/>
<path d="M765.354 10.25H593.354C580.237 10.25 569.604 20.8832 569.604 34V42C569.604 55.1168 580.237 65.75 593.354 65.75H765.354C778.471 65.75 789.104 55.1168 789.104 42V34C789.104 20.8832 778.471 10.25 765.354 10.25Z" stroke="url(#paint6_linear_1_2)" stroke-width="0.5"/>
<path d="M765.354 78.25H593.354C580.237 78.25 569.604 88.8832 569.604 102V110C569.604 123.117 580.237 133.75 593.354 133.75H765.354C778.471 133.75 789.104 123.117 789.104 110V102C789.104 88.8832 778.471 78.25 765.354 78.25Z" fill="black"/>
<path fill-rule="evenodd" clip-rule="evenodd" d="M597.354 116C602.877 116 607.354 111.523 607.354 106C607.354 100.477 602.877 96 597.354 96C591.831 96 587.354 100.477 587.354 106C587.354 111.523 591.831 116 597.354 116ZM600.006 104.652C600.299 104.359 600.299 103.884 600.006 103.591C599.713 103.298 599.238 103.298 598.945 103.591L597.354 105.182L595.763 103.591C595.47 103.298 594.995 103.298 594.703 103.591C594.41 103.884 594.41 104.359 594.703 104.652L596.294 106.243L594.703 107.834C594.41 108.127 594.41 108.601 594.703 108.894C594.995 109.187 595.47 109.187 595.763 108.894L597.354 107.303L598.945 108.894C599.238 109.187 599.713 109.187 600.006 108.894C600.299 108.601 600.299 108.127 600.006 107.834L598.415 106.243L600.006 104.652Z" fill="#FF6696"/>
<path d="M623.234 113V99H625.834V113H623.234ZM634.441 102.2C635.294 102.2 636.054 102.367 636.721 102.7C637.401 103.033 637.934 103.547 638.321 104.24C638.708 104.92 638.901 105.8 638.901 106.88V113H636.401V107.2C636.401 106.253 636.174 105.547 635.721 105.08C635.281 104.613 634.661 104.38 633.861 104.38C633.274 104.38 632.754 104.5 632.301 104.74C631.848 104.98 631.494 105.34 631.241 105.82C631.001 106.287 630.881 106.88 630.881 107.6V113H628.381V102.32H630.761V105.2L630.341 104.32C630.714 103.64 631.254 103.12 631.961 102.76C632.681 102.387 633.508 102.2 634.441 102.2ZM645.992 113.14C644.872 113.14 643.872 112.907 642.992 112.44C642.125 111.96 641.445 111.307 640.952 110.48C640.459 109.653 640.212 108.713 640.212 107.66C640.212 106.593 640.459 105.653 640.952 104.84C641.445 104.013 642.125 103.367 642.992 102.9C643.872 102.433 644.872 102.2 645.992 102.2C647.032 102.2 647.945 102.413 648.732 102.84C649.532 103.253 650.139 103.867 650.552 104.68L648.632 105.8C648.312 105.293 647.919 104.92 647.452 104.68C646.999 104.44 646.505 104.32 645.972 104.32C645.359 104.32 644.805 104.453 644.312 104.72C643.819 104.987 643.432 105.373 643.152 105.88C642.872 106.373 642.732 106.967 642.732 107.66C642.732 108.353 642.872 108.953 643.152 109.46C643.432 109.953 643.819 110.333 644.312 110.6C644.805 110.867 645.359 111 645.972 111C646.505 111 646.999 110.88 647.452 110.64C647.919 110.4 648.312 110.027 648.632 109.52L650.552 110.64C650.139 111.44 649.532 112.06 648.732 112.5C647.945 112.927 647.032 113.14 645.992 113.14ZM656.357 113.14C655.263 113.14 654.29 112.907 653.437 112.44C652.583 111.96 651.91 111.307 651.417 110.48C650.923 109.653 650.677 108.713 650.677 107.66C650.677 106.593 650.923 105.653 651.417 104.84C651.91 104.013 652.583 103.367 653.437 102.9C654.29 102.433 655.263 102.2 656.357 102.2C657.463 102.2 658.443 102.433 659.297 102.9C660.163 103.367 660.837 104.007 661.317 104.82C661.81 105.633 662.057 106.58 662.057 107.66C662.057 108.713 661.81 109.653 661.317 110.48C660.837 111.307 660.163 111.96 659.297 112.44C658.443 112.907 657.463 113.14 656.357 113.14ZM656.357 111C656.97 111 657.517 110.867 657.997 110.6C658.477 110.333 658.85 109.947 659.117 109.44C659.397 108.933 659.537 108.34 659.537 107.66C659.537 106.967 659.397 106.373 659.117 105.88C658.85 105.373 658.477 104.987 657.997 104.72C657.517 104.453 656.977 104.32 656.377 104.32C655.763 104.32 655.217 104.453 654.737 104.72C654.27 104.987 653.897 105.373 653.617 105.88C653.337 106.373 653.197 106.967 653.197 107.66C653.197 108.34 653.337 108.933 653.617 109.44C653.897 109.947 654.27 110.333 654.737 110.6C655.217 110.867 655.757 111 656.357 111ZM663.447 113V102.32H665.827V105.26L665.547 104.4C665.867 103.68 666.367 103.133 667.047 102.76C667.741 102.387 668.601 102.2 669.627 102.2V104.58C669.521 104.553 669.421 104.54 669.327 104.54C669.234 104.527 669.141 104.52 669.047 104.52C668.101 104.52 667.347 104.8 666.787 105.36C666.227 105.907 665.947 106.727 665.947 107.82V113H663.447ZM670.748 113V102.32H673.128V105.26L672.848 104.4C673.168 103.68 673.668 103.133 674.348 102.76C675.041 102.387 675.901 102.2 676.928 102.2V104.58C676.821 104.553 676.721 104.54 676.628 104.54C676.535 104.527 676.441 104.52 676.348 104.52C675.401 104.52 674.648 104.8 674.088 105.36C673.528 105.907 673.248 106.727 673.248 107.82V113H670.748ZM682.971 113.14C681.785 113.14 680.745 112.907 679.851 112.44C678.971 111.96 678.285 111.307 677.791 110.48C677.311 109.653 677.071 108.713 677.071 107.66C677.071 106.593 677.305 105.653 677.771 104.84C678.251 104.013 678.905 103.367 679.731 102.9C680.571 102.433 681.525 102.2 682.591 102.2C683.631 102.2 684.558 102.427 685.371 102.88C686.185 103.333 686.825 103.973 687.291 104.8C687.758 105.627 687.991 106.6 687.991 107.72C687.991 107.827 687.985 107.947 687.971 108.08C687.971 108.213 687.965 108.34 687.951 108.46H679.051V106.8H686.631L685.651 107.32C685.665 106.707 685.538 106.167 685.271 105.7C685.005 105.233 684.638 104.867 684.171 104.6C683.718 104.333 683.191 104.2 682.591 104.2C681.978 104.2 681.438 104.333 680.971 104.6C680.518 104.867 680.158 105.24 679.891 105.72C679.638 106.187 679.511 106.74 679.511 107.38V107.78C679.511 108.42 679.658 108.987 679.951 109.48C680.245 109.973 680.658 110.353 681.191 110.62C681.725 110.887 682.338 111.02 683.031 111.02C683.631 111.02 684.171 110.927 684.651 110.74C685.131 110.553 685.558 110.26 685.931 109.86L687.271 111.4C686.791 111.96 686.185 112.393 685.451 112.7C684.731 112.993 683.905 113.14 682.971 113.14ZM694.293 113.14C693.173 113.14 692.173 112.907 691.293 112.44C690.426 111.96 689.746 111.307 689.253 110.48C688.759 109.653 688.513 108.713 688.513 107.66C688.513 106.593 688.759 105.653 689.253 104.84C689.746 104.013 690.426 103.367 691.293 102.9C692.173 102.433 693.173 102.2 694.293 102.2C695.333 102.2 696.246 102.413 697.033 102.84C697.833 103.253 698.439 103.867 698.853 104.68L696.933 105.8C696.613 105.293 696.219 104.92 695.753 104.68C695.299 104.44 694.806 104.32 694.273 104.32C693.659 104.32 693.106 104.453 692.613 104.72C692.119 104.987 691.733 105.373 691.453 105.88C691.173 106.373 691.033 106.967 691.033 107.66C691.033 108.353 691.173 108.953 691.453 109.46C691.733 109.953 692.119 110.333 692.613 110.6C693.106 110.867 693.659 111 694.273 111C694.806 111 695.299 110.88 695.753 110.64C696.219 110.4 696.613 110.027 696.933 109.52L698.853 110.64C698.439 111.44 697.833 112.06 697.033 112.5C696.246 112.927 695.333 113.14 694.293 113.14ZM704.17 113.14C702.997 113.14 702.09 112.84 701.45 112.24C700.81 111.627 700.49 110.727 700.49 109.54V99.96H702.99V109.48C702.99 109.987 703.12 110.38 703.37 110.66C703.64 110.94 704 111.08 704.47 111.08C705.03 111.08 705.5 110.933 705.87 110.64L706.57 112.42C706.28 112.66 705.92 112.84 705.49 112.96C705.06 113.08 704.62 113.14 704.17 113.14ZM698.73 104.4V102.4H705.85V104.4H698.73Z" fill="#FF6696"/>
<path d="M758.22 113V100L759.36 101.18H755.26V99H760.82V113H758.22ZM762.41 113V111.26L767.97 105.98C768.44 105.54 768.79 105.153 769.01 104.82C769.24 104.487 769.39 104.18 769.45 103.9C769.53 103.607 769.57 103.333 769.57 103.08C769.57 102.44 769.35 101.947 768.91 101.6C768.47 101.24 767.83 101.06 766.97 101.06C766.29 101.06 765.67 101.18 765.11 101.42C764.57 101.66 764.09 102.027 763.69 102.52L761.87 101.12C762.42 100.387 763.15 99.82 764.07 99.42C765.01 99.007 766.05 98.8 767.19 98.8C768.21 98.8 769.09 98.967 769.83 99.3C770.59 99.62 771.17 100.08 771.57 100.68C771.99 101.28 772.19 101.993 772.19 102.82C772.19 103.273 772.13 103.727 772.01 104.18C771.89 104.62 771.67 105.087 771.33 105.58C771 106.073 770.51 106.627 769.87 107.24L765.09 111.78L764.55 110.8H772.73V113H762.41Z" fill="white"/>
<path d="M765.354 78.25H593.354C580.237 78.25 569.604 88.8832 569.604 102V110C569.604 123.117 580.237 133.75 593.354 133.75H765.354C778.471 133.75 789.104 123.117 789.104 110V102C789.104 88.8832 778.471 78.25 765.354 78.25Z" stroke="url(#paint7_linear_1_2)" stroke-width="0.5"/>
<path d="M773 230.25H601C587.883 230.25 577.25 240.883 577.25 254V262C577.25 275.117 587.883 285.75 601 285.75H773C786.117 285.75 796.75 275.117 796.75 262V254C796.75 240.883 786.117 230.25 773 230.25Z" fill="black"/>
<path fill-rule="evenodd" clip-rule="evenodd" d="M605 268C610.523 268 615 263.523 615 258C615 252.477 610.523 248 605 248C599.477 248 595 252.477 595 258C595 263.523 599.477 268 605 268ZM607.652 256.652C607.945 256.359 607.945 255.884 607.652 255.591C607.359 255.298 606.884 255.298 606.591 255.591L605 257.182L603.409 255.591C603.116 255.298 602.641 255.298 602.348 255.591C602.055 255.884 602.055 256.359 602.348 256.652L603.939 258.243L602.348 259.834C602.055 260.127 602.055 260.601 602.348 260.894C602.641 261.187 603.116 261.187 603.409 260.894L605 259.303L606.591 260.894C606.884 261.187 607.359 261.187 607.652 260.894C607.945 260.601 607.945 260.127 607.652 259.834L606.061 258.243L607.652 256.652Z" fill="#FF6696"/>
<path d="M630.88 265V251H633.48V265H630.88ZM642.087 254.2C642.94 254.2 643.7 254.367 644.367 254.7C645.047 255.033 645.58 255.547 645.967 256.24C646.353 256.92 646.547 257.8 646.547 258.88V265H644.047V259.2C644.047 258.253 643.82 257.547 643.367 257.08C642.927 256.613 642.307 256.38 641.507 256.38C640.92 256.38 640.4 256.5 639.947 256.74C639.493 256.98 639.14 257.34 638.887 257.82C638.647 258.287 638.527 258.88 638.527 259.6V265H636.027V254.32H638.407V257.2L637.987 256.32C638.36 255.64 638.9 255.12 639.607 254.76C640.327 254.387 641.153 254.2 642.087 254.2ZM653.638 265.14C652.518 265.14 651.518 264.907 650.638 264.44C649.771 263.96 649.091 263.307 648.598 262.48C648.104 261.653 647.858 260.713 647.858 259.66C647.858 258.593 648.104 257.653 648.598 256.84C649.091 256.013 649.771 255.367 650.638 254.9C651.518 254.433 652.518 254.2 653.638 254.2C654.678 254.2 655.591 254.413 656.378 254.84C657.178 255.253 657.784 255.867 658.198 256.68L656.278 257.8C655.958 257.293 655.564 256.92 655.098 256.68C654.644 256.44 654.151 256.32 653.618 256.32C653.004 256.32 652.451 256.453 651.958 256.72C651.464 256.987 651.078 257.373 650.798 257.88C650.518 258.373 650.378 258.967 650.378 259.66C650.378 260.353 650.518 260.953 650.798 261.46C651.078 261.953 651.464 262.333 651.958 262.6C652.451 262.867 653.004 263 653.618 263C654.151 263 654.644 262.88 655.098 262.64C655.564 262.4 655.958 262.027 656.278 261.52L658.198 262.64C657.784 263.44 657.178 264.06 656.378 264.5C655.591 264.927 654.678 265.14 653.638 265.14ZM664.003 265.14C662.909 265.14 661.936 264.907 661.083 264.44C660.229 263.96 659.556 263.307 659.063 262.48C658.569 261.653 658.323 260.713 658.323 259.66C658.323 258.593 658.569 257.653 659.063 256.84C659.556 256.013 660.229 255.367 661.083 254.9C661.936 254.433 662.909 254.2 664.003 254.2C665.109 254.2 666.089 254.433 666.943 254.9C667.809 255.367 668.483 256.007 668.963 256.82C669.456 257.633 669.703 258.58 669.703 259.66C669.703 260.713 669.456 261.653 668.963 262.48C668.483 263.307 667.809 263.96 666.943 264.44C666.089 264.907 665.109 265.14 664.003 265.14ZM664.003 263C664.616 263 665.163 262.867 665.643 262.6C666.123 262.333 666.496 261.947 666.763 261.44C667.043 260.933 667.183 260.34 667.183 259.66C667.183 258.967 667.043 258.373 666.763 257.88C666.496 257.373 666.123 256.987 665.643 256.72C665.163 256.453 664.623 256.32 664.023 256.32C663.409 256.32 662.863 256.453 662.383 256.72C661.916 256.987 661.543 257.373 661.263 257.88C660.983 258.373 660.843 258.967 660.843 259.66C660.843 260.34 660.983 260.933 661.263 261.44C661.543 261.947 661.916 262.333 662.383 262.6C662.863 262.867 663.403 263 664.003 263ZM671.093 265V254.32H673.473V257.26L673.193 256.4C673.513 255.68 674.013 255.133 674.693 254.76C675.386 254.387 676.246 254.2 677.273 254.2V256.58C677.166 256.553 677.066 256.54 676.973 256.54C676.88 256.527 676.786 256.52 676.693 256.52C675.746 256.52 674.993 256.8 674.433 257.36C673.873 257.907 673.593 258.727 673.593 259.82V265H671.093ZM678.394 265V254.32H680.774V257.26L680.494 256.4C680.814 255.68 681.314 255.133 681.994 254.76C682.687 254.387 683.547 254.2 684.574 254.2V256.58C684.467 256.553 684.367 256.54 684.274 256.54C684.181 256.527 684.087 256.52 683.994 256.52C683.047 256.52 682.294 256.8 681.734 257.36C681.174 257.907 680.894 258.727 680.894 259.82V265H678.394ZM690.617 265.14C689.43 265.14 688.39 264.907 687.497 264.44C686.617 263.96 685.93 263.307 685.437 262.48C684.957 261.653 684.717 260.713 684.717 259.66C684.717 258.593 684.95 257.653 685.417 256.84C685.897 256.013 686.55 255.367 687.377 254.9C688.217 254.433 689.17 254.2 690.237 254.2C691.277 254.2 692.204 254.427 693.017 254.88C693.83 255.333 694.47 255.973 694.937 256.8C695.404 257.627 695.637 258.6 695.637 259.72C695.637 259.827 695.63 259.947 695.617 260.08C695.617 260.213 695.61 260.34 695.597 260.46H686.697V258.8H694.277L693.297 259.32C693.31 258.707 693.184 258.167 692.917 257.7C692.65 257.233 692.284 256.867 691.817 256.6C691.364 256.333 690.837 256.2 690.237 256.2C689.624 256.2 689.084 256.333 688.617 256.6C688.164 256.867 687.804 257.24 687.537 257.72C687.284 258.187 687.157 258.74 687.157 259.38V259.78C687.157 260.42 687.304 260.987 687.597 261.48C687.89 261.973 688.304 262.353 688.837 262.62C689.37 262.887 689.984 263.02 690.677 263.02C691.277 263.02 691.817 262.927 692.297 262.74C692.777 262.553 693.204 262.26 693.577 261.86L694.917 263.4C694.437 263.96 693.83 264.393 693.097 264.7C692.377 264.993 691.55 265.14 690.617 265.14ZM701.938 265.14C700.818 265.14 699.818 264.907 698.938 264.44C698.072 263.96 697.392 263.307 696.898 262.48C696.405 261.653 696.158 260.713 696.158 259.66C696.158 258.593 696.405 257.653 696.898 256.84C697.392 256.013 698.072 255.367 698.938 254.9C699.818 254.433 700.818 254.2 701.938 254.2C702.978 254.2 703.89 254.413 704.68 254.84C705.48 255.253 706.09 255.867 706.5 256.68L704.58 257.8C704.26 257.293 703.87 256.92 703.4 256.68C702.945 256.44 702.452 256.32 701.918 256.32C701.305 256.32 700.752 256.453 700.258 256.72C699.765 256.987 699.378 257.373 699.098 257.88C698.818 258.373 698.678 258.967 698.678 259.66C698.678 260.353 698.818 260.953 699.098 261.46C699.378 261.953 699.765 262.333 700.258 262.6C700.752 262.867 701.305 263 701.918 263C702.452 263 702.945 262.88 703.4 262.64C703.87 262.4 704.26 262.027 704.58 261.52L706.5 262.64C706.09 263.44 705.48 264.06 704.68 264.5C703.89 264.927 702.978 265.14 701.938 265.14ZM711.82 265.14C710.64 265.14 709.74 264.84 709.1 264.24C708.46 263.627 708.14 262.727 708.14 261.54V251.96H710.64V261.48C710.64 261.987 710.76 262.38 711.02 262.66C711.28 262.94 711.65 263.08 712.12 263.08C712.68 263.08 713.14 262.933 713.52 262.64L714.22 264.42C713.92 264.66 713.56 264.84 713.14 264.96C712.71 265.08 712.27 265.14 711.82 265.14ZM706.38 256.4V254.4H713.5V256.4H706.38Z" fill="#FF6696"/>
<path d="M774.84 265.2C773.85 265.2 772.89 265.06 771.94 264.78C771.01 264.487 770.22 264.087 769.58 263.58L770.68 261.56C771.19 261.973 771.8 262.307 772.52 262.56C773.25 262.813 774.01 262.94 774.8 262.94C775.72 262.94 776.44 262.747 776.96 262.36C777.49 261.973 777.76 261.453 777.76 260.8C777.76 260.36 777.65 259.973 777.42 259.64C777.21 259.307 776.82 259.053 776.26 258.88C775.71 258.707 774.96 258.62 774 258.62H770.62L771.34 251H779.56V253.18H772.3L773.66 251.94L773.12 257.64L771.76 256.42H774.58C775.97 256.42 777.08 256.607 777.92 256.98C778.77 257.34 779.39 257.847 779.78 258.5C780.18 259.14 780.38 259.873 780.38 260.7C780.38 261.513 780.18 262.26 779.78 262.94C779.38 263.62 778.77 264.167 777.94 264.58C777.13 264.993 776.09 265.2 774.84 265.2Z" fill="white"/>
<path d="M773 230.25H601C587.883 230.25 577.25 240.883 577.25 254V262C577.25 275.117 587.883 285.75 601 285.75H773C786.117 285.75 796.75 275.117 796.75 262V254C796.75 240.883 786.117 230.25 773 230.25Z" stroke="url(#paint8_linear_1_2)" stroke-width="0.5"/>
<path d="M773 298.25H601C587.883 298.25 577.25 308.883 577.25 322V330C577.25 343.117 587.883 353.75 601 353.75H773C786.117 353.75 796.75 343.117 796.75 330V322C796.75 308.883 786.117 298.25 773 298.25Z" fill="black"/>
<path fill-rule="evenodd" clip-rule="evenodd" d="M605 336C610.523 336 615 331.523 615 326C615 320.477 610.523 316 605 316C599.477 316 595 320.477 595 326C595 331.523 599.477 336 605 336ZM610.559 323.5C610.835 323.192 610.809 322.718 610.5 322.441C610.192 322.165 609.718 322.191 609.441 322.5L606.072 326.263C605.389 327.025 604.93 327.536 604.537 327.867C604.162 328.181 603.942 328.25 603.75 328.25C603.558 328.25 603.338 328.181 602.963 327.867C602.57 327.536 602.111 327.025 601.428 326.263L600.559 325.292C600.282 324.983 599.808 324.957 599.5 325.234C599.191 325.51 599.165 325.984 599.441 326.293L600.348 327.305C600.983 328.015 601.514 328.608 601.998 329.015C602.511 329.446 603.064 329.75 603.75 329.75C604.436 329.75 604.989 329.446 605.502 329.015C605.986 328.608 606.517 328.015 607.152 327.305L610.559 323.5Z" fill="#2EC708"/>
<path d="M637.36 333.2C636.293 333.2 635.3 333.027 634.38 332.68C633.473 332.32 632.68 331.82 632 331.18C631.333 330.527 630.813 329.76 630.44 328.88C630.067 328 629.88 327.04 629.88 326C629.88 324.96 630.067 324 630.44 323.12C630.813 322.24 631.34 321.48 632.02 320.84C632.7 320.187 633.493 319.687 634.4 319.34C635.307 318.98 636.3 318.8 637.38 318.8C638.527 318.8 639.573 319 640.52 319.4C641.467 319.787 642.267 320.367 642.92 321.14L641.24 322.72C640.733 322.173 640.167 321.767 639.54 321.5C638.913 321.22 638.233 321.08 637.5 321.08C636.767 321.08 636.093 321.2 635.48 321.44C634.88 321.68 634.353 322.02 633.9 322.46C633.46 322.9 633.113 323.42 632.86 324.02C632.62 324.62 632.5 325.28 632.5 326C632.5 326.72 632.62 327.38 632.86 327.98C633.113 328.58 633.46 329.1 633.9 329.54C634.353 329.98 634.88 330.32 635.48 330.56C636.093 330.8 636.767 330.92 637.5 330.92C638.233 330.92 638.913 330.787 639.54 330.52C640.167 330.24 640.733 329.82 641.24 329.26L642.92 330.86C642.267 331.62 641.467 332.2 640.52 332.6C639.573 333 638.52 333.2 637.36 333.2ZM648.561 333.14C647.468 333.14 646.494 332.907 645.641 332.44C644.788 331.96 644.114 331.307 643.621 330.48C643.128 329.653 642.881 328.713 642.881 327.66C642.881 326.593 643.128 325.653 643.621 324.84C644.114 324.013 644.788 323.367 645.641 322.9C646.494 322.433 647.468 322.2 648.561 322.2C649.668 322.2 650.648 322.433 651.501 322.9C652.368 323.367 653.041 324.007 653.521 324.82C654.014 325.633 654.261 326.58 654.261 327.66C654.261 328.713 654.014 329.653 653.521 330.48C653.041 331.307 652.368 331.96 651.501 332.44C650.648 332.907 649.668 333.14 648.561 333.14ZM648.561 331C649.174 331 649.721 330.867 650.201 330.6C650.681 330.333 651.054 329.947 651.321 329.44C651.601 328.933 651.741 328.34 651.741 327.66C651.741 326.967 651.601 326.373 651.321 325.88C651.054 325.373 650.681 324.987 650.201 324.72C649.721 324.453 649.181 324.32 648.581 324.32C647.968 324.32 647.421 324.453 646.941 324.72C646.474 324.987 646.101 325.373 645.821 325.88C645.541 326.373 645.401 326.967 645.401 327.66C645.401 328.34 645.541 328.933 645.821 329.44C646.101 329.947 646.474 330.333 646.941 330.6C647.421 330.867 647.961 331 648.561 331ZM655.652 333V322.32H658.032V325.26L657.752 324.4C658.072 323.68 658.572 323.133 659.252 322.76C659.945 322.387 660.805 322.2 661.832 322.2V324.58C661.725 324.553 661.625 324.54 661.532 324.54C661.438 324.527 661.345 324.52 661.252 324.52C660.305 324.52 659.552 324.8 658.992 325.36C658.432 325.907 658.152 326.727 658.152 327.82V333H655.652ZM662.953 333V322.32H665.333V325.26L665.053 324.4C665.373 323.68 665.873 323.133 666.553 322.76C667.246 322.387 668.106 322.2 669.133 322.2V324.58C669.026 324.553 668.926 324.54 668.833 324.54C668.739 324.527 668.646 324.52 668.553 324.52C667.606 324.52 666.853 324.8 666.293 325.36C665.733 325.907 665.453 326.727 665.453 327.82V333H662.953ZM675.176 333.14C673.989 333.14 672.949 332.907 672.056 332.44C671.176 331.96 670.489 331.307 669.996 330.48C669.516 329.653 669.276 328.713 669.276 327.66C669.276 326.593 669.509 325.653 669.976 324.84C670.456 324.013 671.109 323.367 671.936 322.9C672.776 322.433 673.729 322.2 674.796 322.2C675.836 322.2 676.762 322.427 677.576 322.88C678.389 323.333 679.029 323.973 679.496 324.8C679.962 325.627 680.196 326.6 680.196 327.72C680.196 327.827 680.189 327.947 680.176 328.08C680.176 328.213 680.169 328.34 680.156 328.46H671.256V326.8H678.836L677.856 327.32C677.869 326.707 677.742 326.167 677.476 325.7C677.209 325.233 676.842 324.867 676.376 324.6C675.922 324.333 675.396 324.2 674.796 324.2C674.182 324.2 673.642 324.333 673.176 324.6C672.722 324.867 672.362 325.24 672.096 325.72C671.842 326.187 671.716 326.74 671.716 327.38V327.78C671.716 328.42 671.862 328.987 672.156 329.48C672.449 329.973 672.862 330.353 673.396 330.62C673.929 330.887 674.542 331.02 675.236 331.02C675.836 331.02 676.376 330.927 676.856 330.74C677.336 330.553 677.762 330.26 678.136 329.86L679.476 331.4C678.996 331.96 678.389 332.393 677.656 332.7C676.936 332.993 676.109 333.14 675.176 333.14ZM686.497 333.14C685.377 333.14 684.377 332.907 683.497 332.44C682.63 331.96 681.95 331.307 681.457 330.48C680.964 329.653 680.717 328.713 680.717 327.66C680.717 326.593 680.964 325.653 681.457 324.84C681.95 324.013 682.63 323.367 683.497 322.9C684.377 322.433 685.377 322.2 686.497 322.2C687.537 322.2 688.45 322.413 689.237 322.84C690.037 323.253 690.644 323.867 691.057 324.68L689.137 325.8C688.817 325.293 688.424 324.92 687.957 324.68C687.504 324.44 687.01 324.32 686.477 324.32C685.864 324.32 685.31 324.453 684.817 324.72C684.324 324.987 683.937 325.373 683.657 325.88C683.377 326.373 683.237 326.967 683.237 327.66C683.237 328.353 683.377 328.953 683.657 329.46C683.937 329.953 684.324 330.333 684.817 330.6C685.31 330.867 685.864 331 686.477 331C687.01 331 687.504 330.88 687.957 330.64C688.424 330.4 688.817 330.027 689.137 329.52L691.057 330.64C690.644 331.44 690.037 332.06 689.237 332.5C688.45 332.927 687.537 333.14 686.497 333.14ZM696.375 333.14C695.202 333.14 694.295 332.84 693.655 332.24C693.015 331.627 692.695 330.727 692.695 329.54V319.96H695.195V329.48C695.195 329.987 695.322 330.38 695.575 330.66C695.842 330.94 696.208 331.08 696.675 331.08C697.235 331.08 697.702 330.933 698.075 330.64L698.775 332.42C698.482 332.66 698.122 332.84 697.695 332.96C697.268 333.08 696.828 333.14 696.375 333.14ZM690.935 324.4V322.4H698.055V324.4H690.935Z" fill="#2EC708"/>
<path d="M750.34 333.2C749.18 333.2 748.17 333.027 747.32 332.68C746.47 332.333 745.81 331.847 745.34 331.22C744.87 330.58 744.64 329.833 744.64 328.98C744.64 328.127 744.87 327.407 745.32 326.82C745.77 326.233 746.43 325.787 747.28 325.48C748.13 325.173 749.15 325.02 750.34 325.02C751.53 325.02 752.55 325.173 753.4 325.48C754.27 325.787 754.93 326.24 755.38 326.84C755.85 327.427 756.08 328.14 756.08 328.98C756.08 329.833 755.84 330.58 755.36 331.22C754.89 331.847 754.23 332.333 753.36 332.68C752.51 333.027 751.5 333.2 750.34 333.2ZM750.34 331.16C751.3 331.16 752.06 330.96 752.62 330.56C753.18 330.16 753.46 329.607 753.46 328.9C753.46 328.207 753.18 327.66 752.62 327.26C752.06 326.86 751.3 326.66 750.34 326.66C749.38 326.66 748.63 326.86 748.08 327.26C747.53 327.66 747.26 328.207 747.26 328.9C747.26 329.607 747.53 330.16 748.08 330.56C748.63 330.96 749.38 331.16 750.34 331.16ZM750.34 326.38C749.26 326.38 748.33 326.24 747.56 325.96C746.79 325.667 746.19 325.247 745.76 324.7C745.35 324.14 745.14 323.473 745.14 322.7C745.14 321.9 745.35 321.213 745.78 320.64C746.22 320.053 746.83 319.6 747.62 319.28C748.41 318.96 749.31 318.8 750.34 318.8C751.38 318.8 752.29 318.96 753.08 319.28C753.87 319.6 754.48 320.053 754.92 320.64C755.36 321.213 755.58 321.9 755.58 322.7C755.58 323.473 755.37 324.14 754.94 324.7C754.53 325.247 753.93 325.667 753.14 325.96C752.35 326.24 751.42 326.38 750.34 326.38ZM750.34 324.78C751.17 324.78 751.82 324.607 752.3 324.26C752.78 323.9 753.02 323.42 753.02 322.82C753.02 322.193 752.77 321.707 752.28 321.36C751.79 321.013 751.14 320.84 750.34 320.84C749.54 320.84 748.9 321.013 748.42 321.36C747.94 321.707 747.7 322.193 747.7 322.82C747.7 323.42 747.93 323.9 748.4 324.26C748.88 324.607 749.53 324.78 750.34 324.78ZM756.57 329.82V328.02L763.47 319H766.25L759.45 328.02L758.15 327.62H769.25V329.82H756.57ZM764.25 333V329.82L764.33 327.62V324.8H766.77V333H764.25ZM775.4 333.2C774.13 333.2 773.05 332.933 772.14 332.4C771.23 331.853 770.54 331.067 770.06 330.04C769.58 329.013 769.34 327.747 769.34 326.24C769.34 324.64 769.63 323.287 770.2 322.18C770.79 321.073 771.59 320.233 772.62 319.66C773.66 319.087 774.85 318.8 776.2 318.8C776.91 318.8 777.58 318.873 778.22 319.02C778.87 319.167 779.43 319.393 779.88 319.7L778.92 321.66C778.53 321.407 778.11 321.233 777.66 321.14C777.22 321.033 776.75 320.98 776.26 320.98C774.94 320.98 773.89 321.387 773.12 322.2C772.35 323.013 771.96 324.213 771.96 325.8C771.96 326.053 771.97 326.353 771.98 326.7C771.99 327.033 772.04 327.373 772.12 327.72L771.32 326.84C771.56 326.293 771.89 325.84 772.3 325.48C772.73 325.107 773.23 324.827 773.8 324.64C774.39 324.453 775.02 324.36 775.7 324.36C776.62 324.36 777.44 324.54 778.16 324.9C778.88 325.247 779.45 325.747 779.88 326.4C780.31 327.04 780.52 327.793 780.52 328.66C780.52 329.58 780.29 330.38 779.84 331.06C779.39 331.74 778.77 332.267 778 332.64C777.23 333.013 776.36 333.2 775.4 333.2ZM775.26 331.16C775.79 331.16 776.27 331.067 776.68 330.88C777.09 330.68 777.41 330.4 777.64 330.04C777.88 329.68 778 329.26 778 328.78C778 328.047 777.75 327.467 777.24 327.04C776.73 326.613 776.05 326.4 775.2 326.4C774.64 326.4 774.15 326.507 773.72 326.72C773.31 326.92 772.97 327.2 772.72 327.56C772.48 327.92 772.36 328.333 772.36 328.8C772.36 329.227 772.47 329.62 772.7 329.98C772.93 330.34 773.25 330.627 773.68 330.84C774.12 331.053 774.65 331.16 775.26 331.16Z" fill="white"/>
<path d="M773 298.25H601C587.883 298.25 577.25 308.883 577.25 322V330C577.25 343.117 587.883 353.75 601 353.75H773C786.117 353.75 796.75 343.117 796.75 330V322C796.75 308.883 786.117 298.25 773 298.25Z" stroke="url(#paint9_linear_1_2)" stroke-width="0.5"/>
<path d="M449.354 256.25H365.354C352.237 256.25 341.604 266.883 341.604 280V304C341.604 317.117 352.237 327.75 365.354 327.75H449.354C462.471 327.75 473.104 317.117 473.104 304V280C473.104 266.883 462.471 256.25 449.354 256.25Z" fill="black"/>
<mask id="mask0_1_2" style="mask-type:luminance" maskUnits="userSpaceOnUse" x="365" y="280" width="25" height="24">
<path d="M389.354 280H365.354V304H389.354V280Z" fill="white"/>
</mask>
<g mask="url(#mask0_1_2)">
<path fill-rule="evenodd" clip-rule="evenodd" d="M377.354 286.75C374.455 286.75 372.104 289.101 372.104 292C372.104 294.899 374.455 297.25 377.354 297.25C380.254 297.25 382.604 294.899 382.604 292C382.604 289.101 380.254 286.75 377.354 286.75ZM374.354 292C374.354 293.657 375.697 295 377.354 295C379.011 295 380.354 293.657 380.354 292C380.354 290.343 379.011 289 377.354 289C375.697 289 374.354 290.343 374.354 292Z" fill="white"/>
<path fill-rule="evenodd" clip-rule="evenodd" d="M376.297 280.25C373.988 280.25 372.179 280.25 370.768 280.44C369.323 280.634 368.183 281.039 367.288 281.934C366.394 282.829 365.988 283.969 365.794 285.414C365.604 286.825 365.604 288.634 365.604 290.943V293.057C365.604 295.366 365.604 297.175 365.794 298.586C365.988 300.031 366.394 301.171 367.288 302.066C368.183 302.961 369.323 303.366 370.768 303.56C372.179 303.75 373.988 303.75 376.297 303.75H378.412C380.72 303.75 382.529 303.75 383.941 303.56C385.385 303.366 386.525 302.961 387.42 302.066C388.315 301.171 388.72 300.031 388.915 298.586C389.104 297.175 389.104 295.366 389.104 293.057V290.943C389.104 288.634 389.104 286.825 388.915 285.414C388.72 283.969 388.315 282.829 387.42 281.934C386.525 281.039 385.385 280.634 383.941 280.44C382.529 280.25 380.72 280.25 378.412 280.25H376.297ZM370.604 292C370.604 288.272 373.626 285.25 377.354 285.25C381.082 285.25 384.104 288.272 384.104 292C384.104 295.728 381.082 298.75 377.354 298.75C373.626 298.75 370.604 295.728 370.604 292Z" fill="white"/>
</g>
<path d="M407.234 299V285H413.794C415.474 285 416.754 285.333 417.634 286C418.514 286.653 418.954 287.533 418.954 288.64C418.954 289.387 418.781 290.027 418.434 290.56C418.088 291.08 417.621 291.487 417.034 291.78C416.461 292.06 415.834 292.2 415.154 292.2L415.514 291.48C416.301 291.48 417.008 291.627 417.634 291.92C418.261 292.2 418.754 292.613 419.114 293.16C419.488 293.707 419.674 294.387 419.674 295.2C419.674 296.4 419.214 297.333 418.294 298C417.374 298.667 416.008 299 414.194 299H407.234ZM409.834 296.96H414.034C415.008 296.96 415.754 296.8 416.274 296.48C416.794 296.16 417.054 295.647 417.054 294.94C417.054 294.247 416.794 293.74 416.274 293.42C415.754 293.087 415.008 292.92 414.034 292.92H409.634V290.9H413.514C414.421 290.9 415.114 290.74 415.594 290.42C416.088 290.1 416.334 289.62 416.334 288.98C416.334 288.327 416.088 287.84 415.594 287.52C415.114 287.2 414.421 287.04 413.514 287.04H409.834V296.96ZM426.009 299.14C424.916 299.14 423.942 298.907 423.089 298.44C422.236 297.96 421.562 297.307 421.069 296.48C420.576 295.653 420.329 294.713 420.329 293.66C420.329 292.593 420.576 291.653 421.069 290.84C421.562 290.013 422.236 289.367 423.089 288.9C423.942 288.433 424.916 288.2 426.009 288.2C427.116 288.2 428.096 288.433 428.949 288.9C429.816 289.367 430.489 290.007 430.969 290.82C431.462 291.633 431.709 292.58 431.709 293.66C431.709 294.713 431.462 295.653 430.969 296.48C430.489 297.307 429.816 297.96 428.949 298.44C428.096 298.907 427.116 299.14 426.009 299.14ZM426.009 297C426.622 297 427.169 296.867 427.649 296.6C428.129 296.333 428.502 295.947 428.769 295.44C429.049 294.933 429.189 294.34 429.189 293.66C429.189 292.967 429.049 292.373 428.769 291.88C428.502 291.373 428.129 290.987 427.649 290.72C427.169 290.453 426.629 290.32 426.029 290.32C425.416 290.32 424.869 290.453 424.389 290.72C423.922 290.987 423.549 291.373 423.269 291.88C422.989 292.373 422.849 292.967 422.849 293.66C422.849 294.34 422.989 294.933 423.269 295.44C423.549 295.947 423.922 296.333 424.389 296.6C424.869 296.867 425.409 297 426.009 297ZM437.12 299.14C435.946 299.14 435.04 298.84 434.4 298.24C433.76 297.627 433.44 296.727 433.44 295.54V285.96H435.94V295.48C435.94 295.987 436.066 296.38 436.32 296.66C436.586 296.94 436.953 297.08 437.42 297.08C437.98 297.08 438.446 296.933 438.82 296.64L439.52 298.42C439.226 298.66 438.866 298.84 438.44 298.96C438.013 299.08 437.573 299.14 437.12 299.14ZM431.68 290.4V288.4H438.8V290.4H431.68ZM443.876 299.14C442.983 299.14 442.123 299.027 441.296 298.8C440.483 298.56 439.836 298.273 439.356 297.94L440.316 296.04C440.796 296.347 441.37 296.6 442.036 296.8C442.703 297 443.37 297.1 444.036 297.1C444.823 297.1 445.39 296.993 445.736 296.78C446.096 296.567 446.276 296.28 446.276 295.92C446.276 295.627 446.156 295.407 445.916 295.26C445.676 295.1 445.363 294.98 444.976 294.9C444.59 294.82 444.156 294.747 443.676 294.68C443.21 294.613 442.736 294.527 442.256 294.42C441.79 294.3 441.363 294.133 440.976 293.92C440.59 293.693 440.276 293.393 440.036 293.02C439.796 292.647 439.676 292.153 439.676 291.54C439.676 290.86 439.87 290.273 440.256 289.78C440.643 289.273 441.183 288.887 441.876 288.62C442.583 288.34 443.416 288.2 444.376 288.2C445.096 288.2 445.823 288.28 446.556 288.44C447.29 288.6 447.896 288.827 448.376 289.12L447.416 291.02C446.91 290.713 446.396 290.507 445.876 290.4C445.37 290.28 444.863 290.22 444.356 290.22C443.596 290.22 443.03 290.333 442.656 290.56C442.296 290.787 442.116 291.073 442.116 291.42C442.116 291.74 442.236 291.98 442.476 292.14C442.716 292.3 443.03 292.427 443.416 292.52C443.803 292.613 444.23 292.693 444.696 292.76C445.176 292.813 445.65 292.9 446.116 293.02C446.583 293.14 447.01 293.307 447.396 293.52C447.796 293.72 448.116 294.007 448.356 294.38C448.596 294.753 448.716 295.24 448.716 295.84C448.716 296.507 448.516 297.087 448.116 297.58C447.73 298.073 447.176 298.46 446.456 298.74C445.736 299.007 444.876 299.14 443.876 299.14Z" fill="white"/>
<path d="M449.354 256.25H365.354C352.237 256.25 341.604 266.883 341.604 280V304C341.604 317.117 352.237 327.75 365.354 327.75H449.354C462.471 327.75 473.104 317.117 473.104 304V280C473.104 266.883 462.471 256.25 449.354 256.25Z" stroke="url(#paint10_linear_1_2)" stroke-width="0.5"/>
<path d="M218 247.75C235.535 247.75 249.75 233.535 249.75 216C249.75 198.465 235.535 184.25 218 184.25C200.465 184.25 186.25 198.465 186.25 216C186.25 233.535 200.465 247.75 218 247.75Z" fill="black"/>
<path d="M218 247.75C235.535 247.75 249.75 233.535 249.75 216C249.75 198.465 235.535 184.25 218 184.25C200.465 184.25 186.25 198.465 186.25 216C186.25 233.535 200.465 247.75 218 247.75Z" fill="url(#paint11_linear_1_2)"/>
<path d="M218 247.75C235.535 247.75 249.75 233.535 249.75 216C249.75 198.465 235.535 184.25 218 184.25C200.465 184.25 186.25 198.465 186.25 216C186.25 233.535 200.465 247.75 218 247.75Z" stroke="url(#paint12_linear_1_2)" stroke-width="0.5"/>
<path d="M216 245.75C233.535 245.75 247.75 231.535 247.75 214C247.75 196.465 233.535 182.25 216 182.25C198.465 182.25 184.25 196.465 184.25 214C184.25 231.535 198.465 245.75 216 245.75Z" fill="#1A1A1C"/>
<path d="M216 245.75C233.535 245.75 247.75 231.535 247.75 214C247.75 196.465 233.535 182.25 216 182.25C198.465 182.25 184.25 196.465 184.25 214C184.25 231.535 198.465 245.75 216 245.75Z" fill="url(#paint13_linear_1_2)"/>
<path d="M216 245.75C233.535 245.75 247.75 231.535 247.75 214C247.75 196.465 233.535 182.25 216 182.25C198.465 182.25 184.25 196.465 184.25 214C184.25 231.535 198.465 245.75 216 245.75Z" stroke="url(#paint14_linear_1_2)" stroke-width="0.5"/>
<path d="M209.435 203.14L216.059 200.8H220.379V226H215.411V206.056L210.659 207.388L209.435 203.14Z" fill="white"/>
<path d="M218 165.75C235.535 165.75 249.75 151.535 249.75 134C249.75 116.465 235.535 102.25 218 102.25C200.465 102.25 186.25 116.465 186.25 134C186.25 151.535 200.465 165.75 218 165.75Z" fill="black"/>
<path d="M218 165.75C235.535 165.75 249.75 151.535 249.75 134C249.75 116.465 235.535 102.25 218 102.25C200.465 102.25 186.25 116.465 186.25 134C186.25 151.535 200.465 165.75 218 165.75Z" fill="url(#paint15_linear_1_2)"/>
<path d="M218 165.75C235.535 165.75 249.75 151.535 249.75 134C249.75 116.465 235.535 102.25 218 102.25C200.465 102.25 186.25 116.465 186.25 134C186.25 151.535 200.465 165.75 218 165.75Z" stroke="url(#paint16_linear_1_2)" stroke-width="0.5"/>
<path d="M216 163.75C233.535 163.75 247.75 149.535 247.75 132C247.75 114.465 233.535 100.25 216 100.25C198.465 100.25 184.25 114.465 184.25 132C184.25 149.535 198.465 163.75 216 163.75Z" fill="#1A1A1C"/>
<path d="M216 163.75C233.535 163.75 247.75 149.535 247.75 132C247.75 114.465 233.535 100.25 216 100.25C198.465 100.25 184.25 114.465 184.25 132C184.25 149.535 198.465 163.75 216 163.75Z" fill="url(#paint17_linear_1_2)"/>
<path d="M216 163.75C233.535 163.75 247.75 149.535 247.75 132C247.75 114.465 233.535 100.25 216 100.25C198.465 100.25 184.25 114.465 184.25 132C184.25 149.535 198.465 163.75 216 163.75Z" stroke="url(#paint18_linear_1_2)" stroke-width="0.5"/>
<path d="M216.148 144.504C213.004 144.504 210.532 143.316 208.732 140.94C206.956 138.516 206.068 135.336 206.068 131.4C206.068 127.464 206.956 124.296 208.732 121.896C210.532 119.496 213.004 118.296 216.148 118.296C219.34 118.296 221.812 119.496 223.564 121.896C225.34 124.296 226.228 127.464 226.228 131.4C226.228 135.336 225.34 138.516 223.564 140.94C221.812 143.316 219.34 144.504 216.148 144.504ZM221.296 131.4C221.296 128.712 220.852 126.66 219.964 125.244C219.1 123.828 217.828 123.12 216.148 123.12C214.468 123.12 213.196 123.828 212.332 125.244C211.468 126.66 211.036 128.712 211.036 131.4C211.036 134.088 211.468 136.14 212.332 137.556C213.196 138.948 214.468 139.644 216.148 139.644C217.828 139.644 219.1 138.936 219.964 137.52C220.852 136.104 221.296 134.064 221.296 131.4Z" fill="white"/>
</g>
</g>
<defs>
<linearGradient id="paint0_linear_1_2" x1="-nan" y1="-nan" x2="-nan" y2="-nan" gradientUnits="userSpaceOnUse">
<stop stop-color="white" stop-opacity="0"/>
<stop offset="0.493754" stop-color="white"/>
<stop offset="0.983489" stop-color="white" stop-opacity="0"/>
</linearGradient>
<linearGradient id="paint1_linear_1_2" x1="298.424" y1="-337.756" x2="-298.012" y2="252.405" gradientUnits="userSpaceOnUse">
<stop stop-color="#343437" stop-opacity="0.01"/>
<stop offset="0.176223" stop-color="#343437"/>
<stop offset="0.354167" stop-color="#343437"/>
<stop offset="0.590183" stop-color="#343437" stop-opacity="0.01"/>
</linearGradient>
<linearGradient id="paint2_linear_1_2" x1="318.772" y1="677.838" x2="-280.507" y2="104.116" gradientUnits="userSpaceOnUse">
<stop stop-color="#343437" stop-opacity="0.01"/>
<stop offset="0.176223" stop-color="#343437"/>
<stop offset="0.354167" stop-color="#343437"/>
<stop offset="0.590183" stop-color="#343437" stop-opacity="0.01"/>
</linearGradient>
<linearGradient id="paint3_linear_1_2" x1="676.399" y1="244.5" x2="323.22" y2="274.563" gradientUnits="userSpaceOnUse">
<stop stop-color="#FF6696" stop-opacity="0"/>
<stop offset="0.176223" stop-color="#FF6696"/>
<stop offset="0.699465" stop-color="#FF6696"/>
<stop offset="0.926624" stop-color="#262628"/>
</linearGradient>
<linearGradient id="paint4_linear_1_2" x1="727.79" y1="94.967" x2="339.511" y2="62.902" gradientUnits="userSpaceOnUse">
<stop stop-color="#FF6696" stop-opacity="0"/>
<stop offset="0.176223" stop-color="#FF6696"/>
<stop offset="0.699465" stop-color="#FF6696"/>
<stop offset="1" stop-color="#262628"/>
</linearGradient>
<linearGradient id="paint5_linear_1_2" x1="326.354" y1="72.113" x2="487.354" y2="72.113" gradientUnits="userSpaceOnUse">
<stop stop-color="white"/>
<stop offset="1" stop-color="white" stop-opacity="0"/>
</linearGradient>
<linearGradient id="paint6_linear_1_2" x1="569.354" y1="38.088" x2="789.35" y2="38.088" gradientUnits="userSpaceOnUse">
<stop stop-color="white"/>
<stop offset="1" stop-color="white" stop-opacity="0"/>
</linearGradient>
<linearGradient id="paint7_linear_1_2" x1="569.354" y1="106.088" x2="789.35" y2="106.088" gradientUnits="userSpaceOnUse">
<stop stop-color="white"/>
<stop offset="1" stop-color="white" stop-opacity="0"/>
</linearGradient>
<linearGradient id="paint8_linear_1_2" x1="577" y1="258.088" x2="797" y2="258.088" gradientUnits="userSpaceOnUse">
<stop stop-color="white"/>
<stop offset="1" stop-color="white" stop-opacity="0"/>
</linearGradient>
<linearGradient id="paint9_linear_1_2" x1="577" y1="326.088" x2="797" y2="326.088" gradientUnits="userSpaceOnUse">
<stop stop-color="white"/>
<stop offset="1" stop-color="white" stop-opacity="0"/>
</linearGradient>
<linearGradient id="paint10_linear_1_2" x1="341.354" y1="292.113" x2="473.354" y2="292.113" gradientUnits="userSpaceOnUse">
<stop stop-color="white"/>
<stop offset="1" stop-color="white" stop-opacity="0"/>
</linearGradient>
<linearGradient id="paint11_linear_1_2" x1="189.444" y1="247.07" x2="235.884" y2="220.932" gradientUnits="userSpaceOnUse">
<stop stop-color="#3E3D41"/>
<stop offset="0.933579" stop-color="#131313" stop-opacity="0.0731208"/>
<stop offset="1" stop-opacity="0"/>
</linearGradient>
<linearGradient id="paint12_linear_1_2" x1="184.089" y1="246.069" x2="238.51" y2="223.612" gradientUnits="userSpaceOnUse">
<stop stop-color="#2E2E2E"/>
<stop offset="1" stop-color="#2E2E2E" stop-opacity="0"/>
</linearGradient>
<linearGradient id="paint13_linear_1_2" x1="259.765" y1="178.795" x2="197.947" y2="251.677" gradientUnits="userSpaceOnUse">
<stop stop-color="#1A1A1C" stop-opacity="0.05"/>
<stop offset="1" stop-color="#F4F4FF" stop-opacity="0.16"/>
</linearGradient>
<linearGradient id="paint14_linear_1_2" x1="248.39" y1="184.926" x2="195.775" y2="252.485" gradientUnits="userSpaceOnUse">
<stop stop-color="#2E2E2E"/>
<stop offset="1" stop-color="#49484E"/>
</linearGradient>
<linearGradient id="paint15_linear_1_2" x1="189.444" y1="165.07" x2="235.884" y2="138.932" gradientUnits="userSpaceOnUse">
<stop stop-color="#3E3D41"/>
<stop offset="0.933579" stop-color="#131313" stop-opacity="0.0731208"/>
<stop offset="1" stop-opacity="0"/>
</linearGradient>
<linearGradient id="paint16_linear_1_2" x1="184.089" y1="164.069" x2="238.51" y2="141.612" gradientUnits="userSpaceOnUse">
<stop stop-color="#2E2E2E"/>
<stop offset="1" stop-color="#2E2E2E" stop-opacity="0"/>
</linearGradient>
<linearGradient id="paint17_linear_1_2" x1="259.765" y1="96.795" x2="197.947" y2="169.677" gradientUnits="userSpaceOnUse">
<stop stop-color="#1A1A1C" stop-opacity="0.05"/>
<stop offset="1" stop-color="#F4F4FF" stop-opacity="0.16"/>
</linearGradient>
<linearGradient id="paint18_linear_1_2" x1="248.39" y1="102.926" x2="195.775" y2="170.485" gradientUnits="userSpaceOnUse">
<stop stop-color="#2E2E2E"/>
<stop offset="1" stop-color="#49484E"/>
</linearGradient>
<clipPath id="clip0_1_2">
<rect width="797" height="362" fill="white"/>
</clipPath>
<clipPath id="clip1_1_2">
<rect width="1094" height="474" fill="white" transform="translate(-297 -98)"/>
</clipPath>
</defs>
</svg>
