<svg width="14" height="14" viewBox="0 0 14 14" fill="none" xmlns="http://www.w3.org/2000/svg">
<g id="Icon/Outline/arrow-ios-down">
<path id="Mask" fill-rule="evenodd" clip-rule="evenodd" d="M7.00003 9.33304C6.86703 9.33304 6.73461 9.28812 6.62669 9.19771L3.1267 6.28104C2.87936 6.07512 2.84553 5.70704 3.05203 5.45971C3.25795 5.21237 3.62545 5.17912 3.87336 5.38504L7.00644 7.99604L10.1343 5.47896C10.3851 5.27712 10.7526 5.31679 10.9544 5.56762C11.1563 5.81846 11.1166 6.18537 10.8658 6.38779L7.36578 9.20412C7.25903 9.28987 7.12953 9.33304 7.00003 9.33304Z" fill="white"/>
<mask id="mask0_348_840" style="mask-type:luminance" maskUnits="userSpaceOnUse" x="2" y="5" width="10" height="5">
<path id="Mask_2" fill-rule="evenodd" clip-rule="evenodd" d="M7.00003 9.33304C6.86703 9.33304 6.73461 9.28812 6.62669 9.19771L3.1267 6.28104C2.87936 6.07512 2.84553 5.70704 3.05203 5.45971C3.25795 5.21237 3.62545 5.17912 3.87336 5.38504L7.00644 7.99604L10.1343 5.47896C10.3851 5.27712 10.7526 5.31679 10.9544 5.56762C11.1563 5.81846 11.1166 6.18537 10.8658 6.38779L7.36578 9.20412C7.25903 9.28987 7.12953 9.33304 7.00003 9.33304Z" fill="white"/>
</mask>
<g mask="url(#mask0_348_840)">
</g>
</g>
</svg>
