<svg width="24" height="24" viewBox="0 0 24 24" fill="none" xmlns="http://www.w3.org/2000/svg">
<g id="Icon/Outline/arrow-ios-down">
<path id="Mask" fill-rule="evenodd" clip-rule="evenodd" d="M16 12C16 12.228 15.923 12.455 15.768 12.64L10.768 18.64C10.415 19.064 9.78398 19.122 9.35998 18.768C8.93598 18.415 8.87898 17.785 9.23198 17.36L13.708 11.989L9.39298 6.62697C9.04698 6.19697 9.11498 5.56697 9.54498 5.22097C9.97498 4.87497 10.604 4.94297 10.951 5.37297L15.779 11.373C15.926 11.556 16 11.778 16 12Z" fill="#050505"/>
<mask id="mask0_447_1460" style="mask-type:luminance" maskUnits="userSpaceOnUse" x="9" y="5" width="7" height="14">
<path id="Mask_2" fill-rule="evenodd" clip-rule="evenodd" d="M16 12C16 12.228 15.923 12.455 15.768 12.64L10.768 18.64C10.415 19.064 9.78398 19.122 9.35998 18.768C8.93598 18.415 8.87898 17.785 9.23198 17.36L13.708 11.989L9.39298 6.62697C9.04698 6.19697 9.11498 5.56697 9.54498 5.22097C9.97498 4.87497 10.604 4.94297 10.951 5.37297L15.779 11.373C15.926 11.556 16 11.778 16 12Z" fill="white"/>
</mask>
<g mask="url(#mask0_447_1460)">
</g>
</g>
</svg>
