<svg width="24" height="24" viewBox="0 0 24 24" fill="none" xmlns="http://www.w3.org/2000/svg">
<g id="Icon/Outline/arrow-ios-down">
<path id="Mask" fill-rule="evenodd" clip-rule="evenodd" d="M8.00002 12C8.00002 12.228 8.07702 12.455 8.23202 12.64L13.232 18.64C13.585 19.064 14.216 19.122 14.64 18.768C15.064 18.415 15.121 17.785 14.768 17.36L10.292 11.989L14.607 6.62697C14.953 6.19697 14.885 5.56697 14.455 5.22097C14.025 4.87497 13.396 4.94297 13.049 5.37297L8.22102 11.373C8.07402 11.556 8.00002 11.778 8.00002 12Z" fill="#050505"/>
<mask id="mask0_447_1456" style="mask-type:luminance" maskUnits="userSpaceOnUse" x="8" y="5" width="7" height="14">
<path id="Mask_2" fill-rule="evenodd" clip-rule="evenodd" d="M8.00002 12C8.00002 12.228 8.07702 12.455 8.23202 12.64L13.232 18.64C13.585 19.064 14.216 19.122 14.64 18.768C15.064 18.415 15.121 17.785 14.768 17.36L10.292 11.989L14.607 6.62697C14.953 6.19697 14.885 5.56697 14.455 5.22097C14.025 4.87497 13.396 4.94297 13.049 5.37297L8.22102 11.373C8.07402 11.556 8.00002 11.778 8.00002 12Z" fill="white"/>
</mask>
<g mask="url(#mask0_447_1456)">
</g>
</g>
</svg>
