<svg width="20" height="20" viewBox="0 0 20 20" fill="none" xmlns="http://www.w3.org/2000/svg">
<g opacity="0.69">
<path fill-rule="evenodd" clip-rule="evenodd" d="M10 0C4.47715 0 0 4.47715 0 10C0 15.5228 4.47715 20 10 20C15.5228 20 20 15.5228 20 10C20 4.47715 15.5228 0 10 0ZM6.21048 4.33333H14.1229C14.7901 4.33333 15.3333 4.87 15.3333 5.535V16L14.0638 14.8917L13.3493 14.2383L12.5935 13.5442L12.9065 14.6233H6.21048C5.54324 14.6233 5 14.0867 5 13.4217V5.535C5 4.87 5.54324 4.33333 6.21048 4.33333Z" fill="white"/>
<path fill-rule="evenodd" clip-rule="evenodd" d="M11.8436 11.9517C11.8436 11.9517 11.631 11.7009 11.4539 11.4792C12.2274 11.2634 12.5226 10.785 12.5226 10.785C12.2805 10.9425 12.0502 11.0534 11.8436 11.1292C11.5483 11.2517 11.2649 11.3334 10.9874 11.38C10.4205 11.485 9.9009 11.4559 9.45804 11.3742C9.12147 11.31 8.83214 11.2167 8.59004 11.1234C8.45423 11.0709 8.30661 11.0067 8.159 10.925C8.15014 10.9192 8.14128 10.9148 8.13242 10.9104C8.12357 10.9061 8.11471 10.9017 8.10585 10.8959C8.09404 10.89 8.08814 10.8842 8.08223 10.8784C7.97595 10.82 7.9169 10.7792 7.9169 10.7792C7.9169 10.7792 8.20033 11.2459 8.95023 11.4675C8.77309 11.6892 8.55461 11.9517 8.55461 11.9517C7.24966 11.9109 6.75366 11.065 6.75366 11.065C6.75366 9.18668 7.60395 7.66418 7.60395 7.66418C8.45423 7.03418 9.26319 7.05168 9.26319 7.05168L9.32223 7.12168C8.25938 7.42502 7.76928 7.88585 7.76928 7.88585C7.76928 7.88585 7.89919 7.81585 8.11766 7.71668C8.74947 7.44252 9.25138 7.36668 9.45804 7.34918L9.47128 7.34697C9.50107 7.34196 9.5275 7.33752 9.55842 7.33752C9.91861 7.29085 10.326 7.27918 10.7512 7.32585C11.3121 7.39002 11.9144 7.55335 12.5285 7.88585C12.5285 7.88585 12.062 7.44835 11.0582 7.14502L11.1409 7.05168C11.1409 7.05168 11.9499 7.03418 12.8001 7.66418C12.8001 7.66418 13.6504 9.18668 13.6504 11.065C13.6504 11.065 13.1485 11.9109 11.8436 11.9517ZM9.26415 9.33335C8.93024 9.33335 8.66662 9.63365 8.66662 10C8.66662 10.3664 8.93609 10.6667 9.26415 10.6667C9.59807 10.6667 9.86169 10.3664 9.86169 10C9.86755 9.63365 9.59807 9.33335 9.26415 9.33335ZM10.8049 10C10.8049 9.63365 11.0685 9.33335 11.4024 9.33335C11.7363 9.33335 11.9999 9.63365 11.9999 10C11.9999 10.3664 11.7363 10.6667 11.4024 10.6667C11.0743 10.6667 10.8049 10.3664 10.8049 10Z" fill="white"/>
</g>
</svg>
