<svg width="116" height="20" viewBox="0 0 116 20" fill="none" xmlns="http://www.w3.org/2000/svg">
<g clip-path="url(#clip0_447_1443)">
<path d="M61.2524 0.0848389C55.819 0.0848389 51.4106 4.44183 51.4106 9.8192C51.4106 15.5362 55.6274 19.8099 61.2524 19.8099C66.737 19.8099 71.0674 15.4797 71.0674 9.93144C71.0674 4.41615 66.766 0.0848389 61.2524 0.0848389Z" fill="white"/>
<g filter="url(#filter0_i_447_1443)">
<path d="M61.2524 0.0848389C55.819 0.0848389 51.4106 4.44183 51.4106 9.8192C51.4106 15.5362 55.6274 19.8099 61.2524 19.8099C66.737 19.8099 71.0674 15.4797 71.0674 9.93144C71.0674 4.41615 66.766 0.0848389 61.2524 0.0848389Z" fill="white"/>
</g>
<path d="M5.37977 0.439873H0.0888672V19.3826H5.35226C8.14475 19.3826 10.1644 18.7034 11.936 17.197C14.0381 15.4075 15.2848 12.7091 15.2848 9.92042C15.2848 4.32775 11.2145 0.439873 5.37977 0.439873ZM9.58763 14.6669C8.44991 15.7207 6.98523 16.1759 4.65762 16.1759H3.6907V3.64737H4.65762C6.98523 3.64737 8.39381 4.07394 9.58763 5.18051C10.8325 6.3168 11.5751 8.07625 11.5751 9.89328C11.5751 11.714 10.8325 13.535 9.58763 14.6669ZM16.9464 19.3826H20.5421V0.439873H16.9464V19.3826ZM29.3455 7.70617C27.1844 6.88421 26.5484 6.34211 26.5484 5.32319C26.5484 4.12932 27.6808 3.22117 29.233 3.22117C30.3121 3.22117 31.1975 3.67524 32.1412 4.75138L34.0204 2.22756C32.4711 0.832695 30.6173 0.123708 28.5952 0.123708C25.3331 0.123708 22.8408 2.45387 22.8408 5.54693C22.8408 8.16244 24.0021 9.49605 27.3792 10.749C28.7913 11.2577 29.5092 11.597 29.8697 11.8288C30.589 12.3118 30.9503 12.9911 30.9503 13.7859C30.9503 15.322 29.7593 16.4565 28.1521 16.4565C26.4362 16.4565 25.0541 15.5769 24.2233 13.9297L21.9017 16.2331C23.5587 18.729 25.5515 19.8404 28.2939 19.8404C32.0294 19.8404 34.6568 17.2806 34.6568 13.6176C34.6568 10.6063 33.4423 9.24188 29.3455 7.70617ZM35.791 9.92042C35.791 15.4937 40.0538 19.8099 45.5345 19.8099C47.0838 19.8099 48.412 19.4956 50.0464 18.7034V14.3552C48.6053 15.8337 47.3322 16.4286 45.6989 16.4286C42.0745 16.4286 39.4993 13.7294 39.4993 9.89328C39.4993 6.25922 42.1549 3.38989 45.5345 3.38989C47.2475 3.38989 48.5503 4.01452 50.0464 5.51979V1.17197C48.4692 0.350745 47.1664 0.0125732 45.6167 0.0125732C40.1639 0.0125732 35.791 4.41614 35.791 9.92042ZM79.212 13.1642L74.2859 0.439873H70.356L78.1904 19.8664H80.126L88.0972 0.439873H84.1963L79.212 13.1642ZM89.7334 19.3826H99.9436V16.1759H93.3306V11.0593H99.6906V7.85178H93.3306V3.64737H99.9436V0.439873H89.7334V19.3826ZM114.192 6.03034C114.192 2.48174 111.815 0.439873 107.662 0.439873H102.32V19.3826H105.921V11.7694H106.393L111.371 19.3826H115.799L109.984 11.4033C112.7 10.8333 114.192 8.92938 114.192 6.03034ZM106.969 9.15862H105.921V3.4185H107.026C109.273 3.4185 110.49 4.38717 110.49 6.23061C110.49 8.13236 109.273 9.15862 106.969 9.15862Z" fill="white"/>
</g>
<defs>
<filter id="filter0_i_447_1443" x="51.4106" y="0.0848389" width="22.6567" height="22.7251" filterUnits="userSpaceOnUse" color-interpolation-filters="sRGB">
<feFlood flood-opacity="0" result="BackgroundImageFix"/>
<feBlend mode="normal" in="SourceGraphic" in2="BackgroundImageFix" result="shape"/>
<feColorMatrix in="SourceAlpha" type="matrix" values="0 0 0 0 0 0 0 0 0 0 0 0 0 0 0 0 0 0 127 0" result="hardAlpha"/>
<feOffset dx="3" dy="3"/>
<feGaussianBlur stdDeviation="4"/>
<feComposite in2="hardAlpha" operator="arithmetic" k2="-1" k3="1"/>
<feColorMatrix type="matrix" values="0 0 0 0 0 0 0 0 0 0 0 0 0 0 0 0 0 0 0.5 0"/>
<feBlend mode="normal" in2="shape" result="effect1_innerShadow_447_1443"/>
</filter>
<clipPath id="clip0_447_1443">
<rect width="116" height="20" fill="white"/>
</clipPath>
</defs>
</svg>
