<svg width="172" height="16" viewBox="0 0 172 16" fill="none" xmlns="http://www.w3.org/2000/svg">
<g clip-path="url(#clip0_512_1122)">
<path d="M96.1068 7.85192C96.993 8.0407 97.7047 8.48386 98.2422 9.18105C98.7796 9.86375 99.0483 10.6482 99.0483 11.5341C99.0483 12.8125 98.5979 13.8291 97.6975 14.5846C96.8114 15.3254 95.5695 15.6958 93.9717 15.6958H86.8468V0.400269H93.732C95.2861 0.400269 96.4991 0.756189 97.3705 1.46803C98.2567 2.1797 98.6997 3.14557 98.6997 4.36582C98.6997 5.26644 98.4599 6.01439 97.9807 6.61004C97.5159 7.20551 96.8913 7.61953 96.1068 7.85192ZM90.5726 6.58824H93.013C93.6231 6.58824 94.0879 6.45755 94.4073 6.19602C94.7414 5.92001 94.9086 5.52065 94.9086 4.99758C94.9086 4.47469 94.7414 4.07533 94.4073 3.79932C94.0879 3.5233 93.6231 3.38529 93.013 3.38529H90.5726V6.58824ZM93.3179 12.689C93.9425 12.689 94.422 12.551 94.7559 12.2749C95.1047 11.9844 95.279 11.5704 95.279 11.0331C95.279 10.4955 95.0974 10.0743 94.7343 9.76937C94.3855 9.46421 93.8989 9.31173 93.2743 9.31173H90.5726V12.689H93.3179Z" fill="url(#paint0_linear_512_1122)"/>
<path d="M104.935 12.8196H109.816V15.6958H101.209V0.400269H104.935V12.8196Z" fill="url(#paint1_linear_512_1122)"/>
<path d="M118.826 15.8483C117.388 15.8483 116.067 15.5142 114.861 14.846C113.67 14.1779 112.718 13.2482 112.007 12.057C111.31 10.8515 110.961 9.50052 110.961 8.00444C110.961 6.50835 111.31 5.16474 112.007 3.97363C112.718 2.78251 113.67 1.85294 114.861 1.18471C116.067 0.516485 117.388 0.182373 118.826 0.182373C120.264 0.182373 121.579 0.516485 122.77 1.18471C123.976 1.85294 124.92 2.78251 125.603 3.97363C126.3 5.16474 126.648 6.50835 126.648 8.00444C126.648 9.50052 126.3 10.8515 125.603 12.057C124.905 13.2482 123.961 14.1779 122.77 14.846C121.579 15.5142 120.264 15.8483 118.826 15.8483ZM118.826 12.4493C120.047 12.4493 121.02 12.0426 121.746 11.2292C122.487 10.4158 122.857 9.34089 122.857 8.00444C122.857 6.65368 122.487 5.57876 121.746 4.77986C121.02 3.9663 120.047 3.55961 118.826 3.55961C117.592 3.55961 116.604 3.95915 115.863 4.75805C115.137 5.55695 114.774 6.63903 114.774 8.00444C114.774 9.35537 115.137 10.4374 115.863 11.251C116.604 12.0499 117.592 12.4493 118.826 12.4493Z" fill="url(#paint2_linear_512_1122)"/>
<path d="M128.089 8.02632C128.089 6.51575 128.416 5.17216 129.07 3.99552C129.723 2.80441 130.631 1.88198 131.793 1.22841C132.97 0.560186 134.299 0.226074 135.78 0.226074C137.596 0.226074 139.15 0.705524 140.443 1.66406C141.736 2.62278 142.6 3.93009 143.036 5.58599H138.94C138.635 4.94691 138.199 4.46032 137.633 4.1262C137.08 3.79209 136.449 3.62512 135.737 3.62512C134.589 3.62512 133.66 4.02448 132.948 4.82338C132.236 5.62228 131.88 6.69005 131.88 8.02632C131.88 9.36277 132.236 10.4304 132.948 11.2293C133.66 12.0282 134.589 12.4275 135.737 12.4275C136.449 12.4275 137.08 12.2606 137.633 11.9264C138.199 11.5923 138.635 11.1057 138.94 10.4666H143.036C142.6 12.1226 141.736 13.4299 140.443 14.3886C139.15 15.3326 137.596 15.8048 135.78 15.8048C134.299 15.8048 132.97 15.478 131.793 14.8242C130.631 14.1562 129.723 13.2338 129.07 12.0571C128.416 10.8807 128.089 9.53707 128.089 8.02632Z" fill="url(#paint3_linear_512_1122)"/>
<path d="M154.186 15.6958L149.044 8.94132V15.6958H145.318V0.400269H149.044V7.11112L154.142 0.400269H158.522L152.595 7.89555L158.739 15.6958H154.186Z" fill="url(#paint4_linear_512_1122)"/>
<path d="M166.044 15.8483C164.926 15.8483 163.924 15.6667 163.038 15.3036C162.152 14.9404 161.44 14.403 160.902 13.6913C160.379 12.9795 160.103 12.1225 160.074 11.1201H164.04C164.098 11.6866 164.294 12.1225 164.628 12.4275C164.962 12.7179 165.398 12.8633 165.935 12.8633C166.487 12.8633 166.923 12.7397 167.243 12.4929C167.562 12.2313 167.722 11.8756 167.722 11.4253C167.722 11.0476 167.591 10.7352 167.33 10.4884C167.083 10.2413 166.771 10.0381 166.393 9.87825C166.03 9.71844 165.507 9.53699 164.824 9.33356C163.837 9.02858 163.03 8.72343 162.406 8.41845C161.781 8.11348 161.244 7.66317 160.793 7.06752C160.343 6.47205 160.118 5.69496 160.118 4.73624C160.118 3.31273 160.634 2.20153 161.665 1.40262C162.696 0.589241 164.04 0.182373 165.696 0.182373C167.381 0.182373 168.739 0.589241 169.77 1.40262C170.802 2.20153 171.354 3.32006 171.426 4.75805H167.395C167.366 4.26412 167.185 3.87925 166.851 3.60323C166.516 3.31274 166.088 3.16739 165.565 3.16739C165.115 3.16739 164.752 3.29092 164.476 3.5378C164.2 3.77019 164.062 4.11164 164.062 4.56195C164.062 5.0557 164.294 5.44076 164.759 5.71677C165.224 5.99261 165.95 6.29042 166.938 6.61006C167.925 6.94417 168.725 7.26363 169.334 7.56878C169.96 7.87376 170.496 8.31673 170.947 8.89772C171.397 9.47888 171.622 10.2268 171.622 11.1419C171.622 12.0136 171.397 12.8052 170.947 13.5168C170.51 14.2287 169.872 14.7952 169.03 15.2164C168.186 15.6377 167.192 15.8483 166.044 15.8483Z" fill="url(#paint5_linear_512_1122)"/>
<path d="M19.8291 7.95199C19.8291 6.44142 20.1559 5.09764 20.8096 3.92118C21.4632 2.73007 22.371 1.80764 23.5331 1.15408C24.7096 0.485851 26.0387 0.151733 27.5203 0.151733C29.336 0.151733 30.8902 0.631183 32.183 1.58972C33.4759 2.54844 34.34 3.85576 34.7759 5.51166H30.6796C30.3747 4.87258 29.9388 4.38597 29.3723 4.05186C28.8205 3.71775 28.1885 3.55079 27.4769 3.55079C26.3292 3.55079 25.3996 3.95015 24.6879 4.74905C23.9761 5.54795 23.6202 6.61572 23.6202 7.95199C23.6202 9.28844 23.9761 10.356 24.6879 11.1549C25.3996 11.9538 26.3292 12.3532 27.4769 12.3532C28.1885 12.3532 28.8205 12.1862 29.3723 11.8521C29.9388 11.518 30.3747 11.0314 30.6796 10.3923H34.7759C34.34 12.0482 33.4759 13.3555 32.183 14.3142C30.8902 15.2583 29.336 15.7304 27.5203 15.7304C26.0387 15.7304 24.7096 15.4036 23.5331 14.7499C22.371 14.0819 21.4632 13.1594 20.8096 11.9828C20.1559 10.8063 19.8291 9.46274 19.8291 7.95199Z" fill="white"/>
<path d="M44.8575 15.6215L41.6765 9.84752H40.7831V15.6215H37.0573V0.325928H43.3106C44.5162 0.325928 45.5402 0.536514 46.3827 0.957864C47.2397 1.37904 47.8788 1.96002 48.3002 2.70083C48.7213 3.42715 48.9319 4.24053 48.9319 5.14115C48.9319 6.15797 48.6414 7.06593 48.0604 7.86483C47.4939 8.66373 46.6514 9.23006 45.5331 9.56417L49.0628 15.6215H44.8575ZM40.7831 7.21108H43.0927C43.7754 7.21108 44.2838 7.04411 44.618 6.71C44.9665 6.37589 45.1408 5.90377 45.1408 5.29365C45.1408 4.71266 44.9665 4.25519 44.618 3.92108C44.2838 3.58697 43.7754 3.42 43.0927 3.42H40.7831V7.21108Z" fill="white"/>
<path d="M54.9967 3.31096V6.40485H59.9862V9.28101H54.9967V12.6364H60.6398V15.6215H51.2709V0.325928H60.6398V3.31096H54.9967Z" fill="white"/>
<path d="M68.7892 0.325928C70.4014 0.325928 71.8105 0.645561 73.0161 1.28465C74.2217 1.92373 75.1514 2.82435 75.805 3.98633C76.4732 5.134 76.8073 6.46295 76.8073 7.9737C76.8073 9.46979 76.4732 10.7989 75.805 11.9609C75.1514 13.123 74.2145 14.0237 72.9943 14.6627C71.7887 15.3018 70.387 15.6215 68.7892 15.6215H63.0588V0.325928H68.7892ZM68.5494 12.3967C69.9585 12.3967 71.0552 12.0118 71.8396 11.2419C72.6239 10.4721 73.0161 9.38273 73.0161 7.9737C73.0161 6.56467 72.6239 5.46793 71.8396 4.68369C71.0552 3.89927 69.9585 3.50706 68.5494 3.50706H66.7847V12.3967H68.5494Z" fill="white"/>
<path d="M82.6154 0.325928V15.6215H78.8895V0.325928H82.6154Z" fill="white"/>
<path fill-rule="evenodd" clip-rule="evenodd" d="M7.48388 2.91556C7.48388 2.208 8.05753 1.63452 8.76491 1.63452H12.349C13.0564 1.63452 13.63 2.208 13.63 2.91556V7.5016C13.63 8.20915 13.0564 8.78263 12.349 8.78263H9.5917C8.88414 8.78263 8.31067 9.35612 8.31067 10.0637V14.5671C8.31067 15.2747 7.73701 15.8482 7.02958 15.8482H3.4456C2.7381 15.8482 2.16455 15.2747 2.16455 14.5671V9.98107C2.16455 9.27352 2.7381 8.70005 3.4456 8.70005H6.20286C6.91036 8.70005 7.48388 8.12657 7.48388 7.41901V2.91556Z" fill="url(#paint6_linear_512_1122)"/>
<path d="M0.110962 1.60077C0.110962 0.906627 0.673644 0.343872 1.36774 0.343872H5.00736C5.70148 0.343872 6.26416 0.906627 6.26416 1.60077V6.25458C6.26416 6.94854 5.70148 7.51129 5.00738 7.51129H1.36774C0.673644 7.51129 0.110962 6.94854 0.110962 6.25458V1.60077Z" fill="#BAFF20"/>
</g>
<defs>
<linearGradient id="paint0_linear_512_1122" x1="84.7275" y1="-5.69223" x2="179.892" y2="61.4643" gradientUnits="userSpaceOnUse">
<stop stop-color="#BAFF00"/>
<stop offset="1" stop-color="#149C6B"/>
</linearGradient>
<linearGradient id="paint1_linear_512_1122" x1="84.7275" y1="-5.69224" x2="179.892" y2="61.4642" gradientUnits="userSpaceOnUse">
<stop stop-color="#BAFF00"/>
<stop offset="1" stop-color="#149C6B"/>
</linearGradient>
<linearGradient id="paint2_linear_512_1122" x1="84.7275" y1="-5.69222" x2="179.892" y2="61.4642" gradientUnits="userSpaceOnUse">
<stop stop-color="#BAFF00"/>
<stop offset="1" stop-color="#149C6B"/>
</linearGradient>
<linearGradient id="paint3_linear_512_1122" x1="84.7272" y1="-5.69213" x2="179.892" y2="61.4643" gradientUnits="userSpaceOnUse">
<stop stop-color="#BAFF00"/>
<stop offset="1" stop-color="#149C6B"/>
</linearGradient>
<linearGradient id="paint4_linear_512_1122" x1="84.7274" y1="-5.69223" x2="179.892" y2="61.4642" gradientUnits="userSpaceOnUse">
<stop stop-color="#BAFF00"/>
<stop offset="1" stop-color="#149C6B"/>
</linearGradient>
<linearGradient id="paint5_linear_512_1122" x1="84.7275" y1="-5.69221" x2="179.892" y2="61.4643" gradientUnits="userSpaceOnUse">
<stop stop-color="#BAFF00"/>
<stop offset="1" stop-color="#149C6B"/>
</linearGradient>
<linearGradient id="paint6_linear_512_1122" x1="12.0181" y1="1.9681" x2="2.30477" y2="15.9391" gradientUnits="userSpaceOnUse">
<stop stop-color="#AEF808"/>
<stop offset="1" stop-color="#6BD033"/>
</linearGradient>
<clipPath id="clip0_512_1122">
<rect width="171.733" height="16" fill="white"/>
</clipPath>
</defs>
</svg>
