<svg width="341" height="393" viewBox="0 0 341 393" fill="none" xmlns="http://www.w3.org/2000/svg">
<g filter="url(#filter0_f_447_1425)">
<path d="M170.439 145.476C161.991 142.515 157.768 141.035 153.651 141.399C150.029 141.72 146.472 143.01 143.487 145.086C140.095 147.446 137.804 151.29 133.223 158.977L71.1051 263.216C66.5179 270.914 64.2243 274.763 64.1171 278.282C64.0228 281.378 65.0785 284.293 67.1329 286.611C69.4685 289.246 73.6946 290.734 82.1467 293.71L169.447 324.452C177.869 327.417 182.079 328.9 186.19 328.544C189.805 328.231 193.359 326.95 196.345 324.885C199.74 322.538 202.042 318.709 206.646 311.051L269.29 206.854C273.934 199.13 276.256 195.268 276.373 191.735C276.476 188.628 275.421 185.7 273.36 183.374C271.016 180.729 266.766 179.239 258.265 176.26L170.439 145.476Z" fill="black" fill-opacity="0.66"/>
</g>
<path d="M204.863 139.08C200.635 137.597 197.478 136.49 194.863 135.797C192.252 135.106 190.203 134.835 188.193 135.012C184.628 135.328 181.125 136.598 178.187 138.641C176.531 139.793 175.132 141.314 173.571 143.519C172.009 145.725 170.297 148.599 168.003 152.447L113.685 243.597C111.389 247.449 109.676 250.326 108.521 252.679C107.367 255.03 106.782 256.839 106.73 258.556C106.637 261.604 107.676 264.474 109.698 266.755C110.838 268.041 112.446 269.056 114.837 270.123C117.231 271.192 120.389 272.304 124.619 273.793L230.751 311.166C234.962 312.649 238.106 313.756 240.711 314.449C243.313 315.141 245.355 315.415 247.359 315.241C250.916 314.934 254.413 313.676 257.352 311.646C259.008 310.502 260.41 308.99 261.977 306.798C263.546 304.603 265.268 301.745 267.574 297.918L322.459 206.828C324.788 202.961 326.527 200.074 327.701 197.712C328.873 195.353 329.47 193.536 329.528 191.811C329.633 188.751 328.596 185.866 326.567 183.575C325.424 182.283 323.808 181.264 321.403 180.193C318.995 179.121 315.817 178.006 311.561 176.513L204.863 139.08Z" fill="black"/>
<path d="M204.863 139.08C200.635 137.597 197.478 136.49 194.863 135.797C192.252 135.106 190.203 134.835 188.193 135.012C184.628 135.328 181.125 136.598 178.187 138.641C176.531 139.793 175.132 141.314 173.571 143.519C172.009 145.725 170.297 148.599 168.003 152.447L113.685 243.597C111.389 247.449 109.676 250.326 108.521 252.679C107.367 255.03 106.782 256.839 106.73 258.556C106.637 261.604 107.676 264.474 109.698 266.755C110.838 268.041 112.446 269.056 114.837 270.123C117.231 271.192 120.389 272.304 124.619 273.793L230.751 311.166C234.962 312.649 238.106 313.756 240.711 314.449C243.313 315.141 245.355 315.415 247.359 315.241C250.916 314.934 254.413 313.676 257.352 311.646C259.008 310.502 260.41 308.99 261.977 306.798C263.546 304.603 265.268 301.745 267.574 297.918L322.459 206.828C324.788 202.961 326.527 200.074 327.701 197.712C328.873 195.353 329.47 193.536 329.528 191.811C329.633 188.751 328.596 185.866 326.567 183.575C325.424 182.283 323.808 181.264 321.403 180.193C318.995 179.121 315.817 178.006 311.561 176.513L204.863 139.08Z" fill="url(#paint0_linear_447_1425)"/>
<path d="M204.863 139.08C200.635 137.597 197.478 136.49 194.863 135.797C192.252 135.106 190.203 134.835 188.193 135.012C184.628 135.328 181.125 136.598 178.187 138.641C176.531 139.793 175.132 141.314 173.571 143.519C172.009 145.725 170.297 148.599 168.003 152.447L113.685 243.597C111.389 247.449 109.676 250.326 108.521 252.679C107.367 255.03 106.782 256.839 106.73 258.556C106.637 261.604 107.676 264.474 109.698 266.755C110.838 268.041 112.446 269.056 114.837 270.123C117.231 271.192 120.389 272.304 124.619 273.793L230.751 311.166C234.962 312.649 238.106 313.756 240.711 314.449C243.313 315.141 245.355 315.415 247.359 315.241C250.916 314.934 254.413 313.676 257.352 311.646C259.008 310.502 260.41 308.99 261.977 306.798C263.546 304.603 265.268 301.745 267.574 297.918L322.459 206.828C324.788 202.961 326.527 200.074 327.701 197.712C328.873 195.353 329.47 193.536 329.528 191.811C329.633 188.751 328.596 185.866 326.567 183.575C325.424 182.283 323.808 181.264 321.403 180.193C318.995 179.121 315.817 178.006 311.561 176.513L204.863 139.08Z" stroke="url(#paint1_linear_447_1425)" stroke-width="0.5"/>
<rect x="0.107828" y="0.297795" width="157.944" height="160.114" rx="15.75" transform="matrix(-0.511916 0.859036 0.943229 0.332143 180.374 123.106)" fill="#1A1A1C"/>
<rect x="0.107828" y="0.297795" width="157.944" height="160.114" rx="15.75" transform="matrix(-0.511916 0.859036 0.943229 0.332143 180.374 123.106)" fill="url(#paint2_linear_447_1425)"/>
<rect x="0.107828" y="0.297795" width="157.944" height="160.114" rx="15.75" transform="matrix(-0.511916 0.859036 0.943229 0.332143 180.374 123.106)" stroke="url(#paint3_linear_447_1425)" stroke-width="0.5"/>
<g filter="url(#filter1_f_447_1425)">
<ellipse cx="50.4868" cy="73.8397" rx="50.4868" ry="73.8397" transform="matrix(0.396731 -0.917935 -0.923975 -0.382454 225.59 319.564)" fill="#0F0F0E" fill-opacity="0.3"/>
</g>
<g filter="url(#filter2_f_447_1425)">
<path d="M134.848 216.769C134.848 258.202 169.173 291.809 211.537 291.809C253.902 291.809 288.227 258.202 288.227 216.769C288.227 175.336 253.902 141.73 211.537 141.73C169.173 141.73 134.848 175.336 134.848 216.769Z" stroke="url(#paint4_linear_447_1425)"/>
</g>
<g filter="url(#filter3_f_447_1425)">
<path d="M110.975 216.769C110.975 271.105 155.988 315.172 211.537 315.172C267.087 315.172 312.1 271.105 312.1 216.769C312.1 162.433 267.087 118.367 211.537 118.367C155.988 118.367 110.975 162.433 110.975 216.769Z" stroke="url(#paint5_linear_447_1425)"/>
<path d="M110.975 216.769C110.975 271.105 155.988 315.172 211.537 315.172C267.087 315.172 312.1 271.105 312.1 216.769C312.1 162.433 267.087 118.367 211.537 118.367C155.988 118.367 110.975 162.433 110.975 216.769Z" stroke="black" stroke-opacity="0.2"/>
</g>
<path fill-rule="evenodd" clip-rule="evenodd" d="M261.074 149.579L261.074 149.776C261.074 173.725 241.89 193.134 218.221 193.134H142.25C117.435 193.134 97.2014 172.759 97.2014 147.652V131.459C97.2014 131.454 97.2014 131.45 97.2014 131.445L97.2014 79.9674V43.5548C97.2014 43.5492 97.2014 43.5435 97.2014 43.5379L97.2014 43.3573C97.2014 19.4092 116.385 -0.000383543 140.055 -0.00038147L216.026 -0.000374816C240.84 -0.000372643 261.074 20.3749 261.074 45.4818V61.6788C261.074 61.6821 261.074 61.6853 261.074 61.6886L261.074 149.579Z" fill="url(#paint6_linear_447_1425)"/>
<g opacity="0.5" filter="url(#filter4_f_447_1425)">
<rect x="128.181" y="138.859" width="100.263" height="85.7889" rx="20" transform="rotate(-90 128.181 138.859)" fill="url(#paint7_linear_447_1425)"/>
</g>
<g filter="url(#filter5_b_447_1425)">
<path d="M176.072 43.8701L246.942 43.8701L296.901 97.7044V193.643C296.901 217.591 277.717 237 254.048 237L178.077 237C153.262 237 133.028 216.625 133.028 191.518L133.028 87.421C133.028 63.4728 152.307 43.8701 176.072 43.8701Z" fill="#72DC60" fill-opacity="0.35"/>
<path d="M247.308 43.53C247.213 43.4281 247.081 43.3701 246.942 43.3701L176.072 43.3701C152.025 43.3701 132.528 63.203 132.528 87.421L132.528 191.518C132.528 216.897 152.982 237.5 178.077 237.5L254.048 237.5C277.999 237.5 297.401 217.861 297.401 193.643V97.7044C297.401 97.5783 297.353 97.4568 297.267 97.3643L247.308 43.53Z" stroke="url(#paint8_linear_447_1425)" stroke-linecap="round" stroke-linejoin="round"/>
</g>
<g filter="url(#filter6_bd_447_1425)">
<mask id="path-11-inside-1_447_1425" fill="white">
<path fill-rule="evenodd" clip-rule="evenodd" d="M214.241 119.632H181.982C178.069 119.632 174.824 122.915 174.824 126.874C174.824 130.833 178.069 134.02 181.982 134.02H214.241C218.155 134.02 221.4 130.833 221.4 126.874C221.4 122.915 218.155 119.632 214.241 119.632ZM181.983 182.299H233.903C237.816 182.299 241.061 179.016 241.061 175.057C241.061 171.098 237.816 167.911 233.903 167.911H181.983C178.069 167.911 174.824 171.098 174.824 175.057C174.824 179.016 178.069 182.299 181.983 182.299Z"/>
</mask>
<path fill-rule="evenodd" clip-rule="evenodd" d="M214.241 119.632H181.982C178.069 119.632 174.824 122.915 174.824 126.874C174.824 130.833 178.069 134.02 181.982 134.02H214.241C218.155 134.02 221.4 130.833 221.4 126.874C221.4 122.915 218.155 119.632 214.241 119.632ZM181.983 182.299H233.903C237.816 182.299 241.061 179.016 241.061 175.057C241.061 171.098 237.816 167.911 233.903 167.911H181.983C178.069 167.911 174.824 171.098 174.824 175.057C174.824 179.016 178.069 182.299 181.983 182.299Z" fill="url(#paint9_linear_447_1425)"/>
<path d="M181.982 119.832H214.241V119.432H181.982V119.832ZM175.024 126.874C175.024 123.023 178.182 119.832 181.982 119.832V119.432C177.957 119.432 174.624 122.807 174.624 126.874H175.024ZM181.982 133.82C178.178 133.82 175.024 130.722 175.024 126.874H174.624C174.624 130.945 177.96 134.22 181.982 134.22V133.82ZM214.241 133.82H181.982V134.22H214.241V133.82ZM221.2 126.874C221.2 130.722 218.045 133.82 214.241 133.82V134.22C218.264 134.22 221.6 130.945 221.6 126.874H221.2ZM214.241 119.832C218.042 119.832 221.2 123.023 221.2 126.874H221.6C221.6 122.807 218.267 119.432 214.241 119.432V119.832ZM233.903 182.099H181.983V182.499H233.903V182.099ZM240.861 175.057C240.861 178.908 237.703 182.099 233.903 182.099V182.499C237.928 182.499 241.261 179.124 241.261 175.057H240.861ZM233.903 168.111C237.706 168.111 240.861 171.21 240.861 175.057H241.261C241.261 170.986 237.925 167.711 233.903 167.711V168.111ZM181.983 168.111H233.903V167.711H181.983V168.111ZM175.024 175.057C175.024 171.21 178.179 168.111 181.983 168.111V167.711C177.96 167.711 174.624 170.986 174.624 175.057H175.024ZM181.983 182.099C178.182 182.099 175.024 178.908 175.024 175.057H174.624C174.624 179.124 177.957 182.499 181.983 182.499V182.099Z" fill="url(#paint10_linear_447_1425)" fill-opacity="0.5" mask="url(#path-11-inside-1_447_1425)"/>
</g>
<g filter="url(#filter7_bd_447_1425)">
<mask id="path-13-inside-2_447_1425" fill="white">
<path d="M255.778 105.415C262.43 105.483 271.678 105.512 279.523 105.483C283.541 105.473 285.584 100.616 282.797 97.6898C272.718 87.087 254.69 68.1119 244.372 57.258C241.519 54.2548 236.527 56.3213 236.527 60.4833V85.9378C236.527 96.618 245.222 105.415 255.778 105.415Z"/>
</mask>
<path d="M255.778 105.415C262.43 105.483 271.678 105.512 279.523 105.483C283.541 105.473 285.584 100.616 282.797 97.6898C272.718 87.087 254.69 68.1119 244.372 57.258C241.519 54.2548 236.527 56.3213 236.527 60.4833V85.9378C236.527 96.618 245.222 105.415 255.778 105.415Z" fill="url(#paint11_linear_447_1425)"/>
<path d="M279.523 105.483L279.522 105.083H279.522L279.523 105.483ZM282.797 97.6898L282.507 97.9654L282.507 97.9657L282.797 97.6898ZM244.372 57.258L244.082 57.5335L244.082 57.5336L244.372 57.258ZM255.774 105.815C262.428 105.883 271.678 105.912 279.525 105.883L279.522 105.083C271.678 105.112 262.432 105.083 255.782 105.015L255.774 105.815ZM279.524 105.883C283.902 105.872 286.11 100.588 283.087 97.4139L282.507 97.9657C285.057 100.643 283.181 105.074 279.522 105.083L279.524 105.883ZM283.087 97.4142C273.005 86.8084 254.982 67.8395 244.662 56.9824L244.082 57.5336C254.397 68.3844 272.431 87.3656 282.507 97.9654L283.087 97.4142ZM244.662 56.9825C241.549 53.7059 236.127 55.976 236.127 60.4833H236.927C236.927 56.6667 241.489 54.8038 244.082 57.5335L244.662 56.9825ZM236.127 60.4833V85.9378H236.927V60.4833H236.127ZM236.127 85.9378C236.127 96.8344 244.996 105.815 255.778 105.815V105.015C245.447 105.015 236.927 96.4015 236.927 85.9378H236.127Z" fill="url(#paint12_linear_447_1425)" mask="url(#path-13-inside-2_447_1425)"/>
</g>
<defs>
<filter id="filter0_f_447_1425" x="0.111328" y="77.3449" width="340.269" height="315.251" filterUnits="userSpaceOnUse" color-interpolation-filters="sRGB">
<feFlood flood-opacity="0" result="BackgroundImageFix"/>
<feBlend mode="normal" in="SourceGraphic" in2="BackgroundImageFix" result="shape"/>
<feGaussianBlur stdDeviation="32" result="effect1_foregroundBlur_447_1425"/>
</filter>
<filter id="filter1_f_447_1425" x="78.27" y="162.702" width="198.248" height="164.556" filterUnits="userSpaceOnUse" color-interpolation-filters="sRGB">
<feFlood flood-opacity="0" result="BackgroundImageFix"/>
<feBlend mode="normal" in="SourceGraphic" in2="BackgroundImageFix" result="shape"/>
<feGaussianBlur stdDeviation="14" result="effect1_foregroundBlur_447_1425"/>
</filter>
<filter id="filter2_f_447_1425" x="126.348" y="133.23" width="170.379" height="167.079" filterUnits="userSpaceOnUse" color-interpolation-filters="sRGB">
<feFlood flood-opacity="0" result="BackgroundImageFix"/>
<feBlend mode="normal" in="SourceGraphic" in2="BackgroundImageFix" result="shape"/>
<feGaussianBlur stdDeviation="4" result="effect1_foregroundBlur_447_1425"/>
</filter>
<filter id="filter3_f_447_1425" x="106.475" y="113.867" width="210.125" height="205.804" filterUnits="userSpaceOnUse" color-interpolation-filters="sRGB">
<feFlood flood-opacity="0" result="BackgroundImageFix"/>
<feBlend mode="normal" in="SourceGraphic" in2="BackgroundImageFix" result="shape"/>
<feGaussianBlur stdDeviation="2" result="effect1_foregroundBlur_447_1425"/>
</filter>
<filter id="filter4_f_447_1425" x="107.181" y="17.5963" width="127.789" height="142.263" filterUnits="userSpaceOnUse" color-interpolation-filters="sRGB">
<feFlood flood-opacity="0" result="BackgroundImageFix"/>
<feBlend mode="normal" in="SourceGraphic" in2="BackgroundImageFix" result="shape"/>
<feGaussianBlur stdDeviation="10.5" result="effect1_foregroundBlur_447_1425"/>
</filter>
<filter id="filter5_b_447_1425" x="108.028" y="18.8701" width="213.873" height="243.13" filterUnits="userSpaceOnUse" color-interpolation-filters="sRGB">
<feFlood flood-opacity="0" result="BackgroundImageFix"/>
<feGaussianBlur in="BackgroundImageFix" stdDeviation="12"/>
<feComposite in2="SourceAlpha" operator="in" result="effect1_backgroundBlur_447_1425"/>
<feBlend mode="normal" in="SourceGraphic" in2="effect1_backgroundBlur_447_1425" result="shape"/>
</filter>
<filter id="filter6_bd_447_1425" x="159.824" y="104.632" width="96.2363" height="92.6675" filterUnits="userSpaceOnUse" color-interpolation-filters="sRGB">
<feFlood flood-opacity="0" result="BackgroundImageFix"/>
<feGaussianBlur in="BackgroundImageFix" stdDeviation="7.5"/>
<feComposite in2="SourceAlpha" operator="in" result="effect1_backgroundBlur_447_1425"/>
<feColorMatrix in="SourceAlpha" type="matrix" values="0 0 0 0 0 0 0 0 0 0 0 0 0 0 0 0 0 0 127 0" result="hardAlpha"/>
<feOffset dx="5" dy="5"/>
<feGaussianBlur stdDeviation="5"/>
<feColorMatrix type="matrix" values="0 0 0 0 0.454902 0 0 0 0 0.870588 0 0 0 0 0.376471 0 0 0 0.5 0"/>
<feBlend mode="normal" in2="effect1_backgroundBlur_447_1425" result="effect2_dropShadow_447_1425"/>
<feBlend mode="normal" in="SourceGraphic" in2="effect2_dropShadow_447_1425" result="shape"/>
</filter>
<filter id="filter7_bd_447_1425" x="221.527" y="40.8342" width="77.5552" height="79.6596" filterUnits="userSpaceOnUse" color-interpolation-filters="sRGB">
<feFlood flood-opacity="0" result="BackgroundImageFix"/>
<feGaussianBlur in="BackgroundImageFix" stdDeviation="7.5"/>
<feComposite in2="SourceAlpha" operator="in" result="effect1_backgroundBlur_447_1425"/>
<feColorMatrix in="SourceAlpha" type="matrix" values="0 0 0 0 0 0 0 0 0 0 0 0 0 0 0 0 0 0 127 0" result="hardAlpha"/>
<feOffset dx="5" dy="5"/>
<feGaussianBlur stdDeviation="5"/>
<feColorMatrix type="matrix" values="0 0 0 0 0.577356 0 0 0 0 0.359375 0 0 0 0 0.9375 0 0 0 0.25 0"/>
<feBlend mode="normal" in2="effect1_backgroundBlur_447_1425" result="effect2_dropShadow_447_1425"/>
<feBlend mode="normal" in="SourceGraphic" in2="effect2_dropShadow_447_1425" result="shape"/>
</filter>
<linearGradient id="paint0_linear_447_1425" x1="329.409" y1="191.313" x2="220.559" y2="282.63" gradientUnits="userSpaceOnUse">
<stop stop-color="#3E3D41"/>
<stop offset="0.933579" stop-color="#131313" stop-opacity="0.0731208"/>
<stop offset="1" stop-opacity="0"/>
</linearGradient>
<linearGradient id="paint1_linear_447_1425" x1="333.729" y1="179.141" x2="230.549" y2="292.937" gradientUnits="userSpaceOnUse">
<stop stop-color="#2E2E2E"/>
<stop offset="1" stop-color="#2E2E2E" stop-opacity="0"/>
</linearGradient>
<linearGradient id="paint2_linear_447_1425" x1="187.571" y1="-8.044" x2="32.102" y2="172.774" gradientUnits="userSpaceOnUse">
<stop stop-color="#434343"/>
<stop stop-color="#1A1A1C" stop-opacity="0.05"/>
<stop offset="1" stop-color="#F4F4FF" stop-opacity="0.16"/>
</linearGradient>
<linearGradient id="paint3_linear_447_1425" x1="159.41" y1="7.34422" x2="26.9389" y2="175.141" gradientUnits="userSpaceOnUse">
<stop stop-color="#2E2E2E"/>
<stop offset="1" stop-color="#49484E"/>
</linearGradient>
<linearGradient id="paint4_linear_447_1425" x1="274.403" y1="156.805" x2="212.012" y2="215.777" gradientUnits="userSpaceOnUse">
<stop stop-color="#9AFEC2"/>
<stop offset="1" stop-color="#B7FBD0" stop-opacity="0"/>
</linearGradient>
<linearGradient id="paint5_linear_447_1425" x1="293.846" y1="138.259" x2="212.159" y2="215.47" gradientUnits="userSpaceOnUse">
<stop stop-color="#9AFEC2"/>
<stop offset="1" stop-color="#B7FBD0" stop-opacity="0"/>
</linearGradient>
<linearGradient id="paint6_linear_447_1425" x1="261.074" y1="-0.00038147" x2="123.227" y2="136.792" gradientUnits="userSpaceOnUse">
<stop stop-color="#9BF763"/>
<stop offset="1" stop-color="#26AB5B"/>
</linearGradient>
<linearGradient id="paint7_linear_447_1425" x1="228.444" y1="138.859" x2="170.085" y2="218.629" gradientUnits="userSpaceOnUse">
<stop stop-color="#9BF763"/>
<stop offset="1" stop-color="#26AB5B"/>
</linearGradient>
<linearGradient id="paint8_linear_447_1425" x1="159.114" y1="66.37" x2="284.985" y2="198.648" gradientUnits="userSpaceOnUse">
<stop stop-color="white" stop-opacity="0.25"/>
<stop offset="1" stop-color="white" stop-opacity="0"/>
</linearGradient>
<linearGradient id="paint9_linear_447_1425" x1="236.365" y1="130.948" x2="162.593" y2="133.491" gradientUnits="userSpaceOnUse">
<stop stop-color="white"/>
<stop offset="1" stop-color="white" stop-opacity="0.2"/>
</linearGradient>
<linearGradient id="paint10_linear_447_1425" x1="181.959" y1="140.654" x2="238.203" y2="140.982" gradientUnits="userSpaceOnUse">
<stop stop-color="white"/>
<stop offset="1" stop-color="white" stop-opacity="0"/>
</linearGradient>
<linearGradient id="paint11_linear_447_1425" x1="280.711" y1="64.8017" x2="227.734" y2="66.4558" gradientUnits="userSpaceOnUse">
<stop stop-color="white"/>
<stop offset="1" stop-color="white" stop-opacity="0.2"/>
</linearGradient>
<linearGradient id="paint12_linear_447_1425" x1="244.097" y1="61.6196" x2="276.036" y2="99.5007" gradientUnits="userSpaceOnUse">
<stop stop-color="white" stop-opacity="0.25"/>
<stop offset="1" stop-color="white" stop-opacity="0"/>
</linearGradient>
</defs>
</svg>
