<svg width="341" height="393" viewBox="0 0 341 393" fill="none" xmlns="http://www.w3.org/2000/svg">
<g filter="url(#filter0_f_447_1411)">
<path d="M170.587 145.476C162.14 142.515 157.916 141.035 153.799 141.399C150.177 141.72 146.62 143.01 143.635 145.086C140.243 147.446 137.952 151.29 133.371 158.977L71.2532 263.216C66.6659 270.914 64.3723 274.763 64.2652 278.282C64.1709 281.378 65.2266 284.293 67.281 286.611C69.6166 289.246 73.8426 290.734 82.2948 293.71L169.595 324.452C178.017 327.417 182.228 328.9 186.338 328.544C189.953 328.231 193.507 326.95 196.493 324.885C199.888 322.538 202.19 318.709 206.794 311.051L269.438 206.854C274.082 199.13 276.404 195.268 276.521 191.735C276.624 188.628 275.569 185.7 273.508 183.374C271.164 180.729 266.914 179.239 258.413 176.26L170.587 145.476Z" fill="black" fill-opacity="0.66"/>
</g>
<path d="M205.011 139.08C200.783 137.597 197.626 136.49 195.011 135.797C192.399 135.106 190.351 134.835 188.341 135.012C184.775 135.328 181.273 136.598 178.334 138.641C176.678 139.793 175.28 141.314 173.719 143.519C172.157 145.725 170.444 148.599 168.151 152.447L113.833 243.597C111.537 247.449 109.823 250.326 108.669 252.679C107.515 255.03 106.93 256.839 106.877 258.556C106.785 261.604 107.824 264.474 109.846 266.755C110.986 268.041 112.594 269.056 114.985 270.123C117.379 271.192 120.537 272.304 124.767 273.793L230.899 311.166C235.11 312.649 238.254 313.756 240.859 314.449C243.461 315.141 245.503 315.415 247.507 315.241C251.064 314.934 254.561 313.676 257.499 311.646C259.156 310.502 260.557 308.99 262.125 306.798C263.694 304.603 265.416 301.745 267.722 297.918L322.606 206.828C324.936 202.961 326.675 200.074 327.848 197.712C329.02 195.353 329.617 193.536 329.676 191.811C329.781 188.751 328.744 185.866 326.715 183.575C325.572 182.283 323.956 181.264 321.551 180.193C319.143 179.121 315.965 178.006 311.709 176.513L205.011 139.08Z" fill="black"/>
<path d="M205.011 139.08C200.783 137.597 197.626 136.49 195.011 135.797C192.399 135.106 190.351 134.835 188.341 135.012C184.775 135.328 181.273 136.598 178.334 138.641C176.678 139.793 175.28 141.314 173.719 143.519C172.157 145.725 170.444 148.599 168.151 152.447L113.833 243.597C111.537 247.449 109.823 250.326 108.669 252.679C107.515 255.03 106.93 256.839 106.877 258.556C106.785 261.604 107.824 264.474 109.846 266.755C110.986 268.041 112.594 269.056 114.985 270.123C117.379 271.192 120.537 272.304 124.767 273.793L230.899 311.166C235.11 312.649 238.254 313.756 240.859 314.449C243.461 315.141 245.503 315.415 247.507 315.241C251.064 314.934 254.561 313.676 257.499 311.646C259.156 310.502 260.557 308.99 262.125 306.798C263.694 304.603 265.416 301.745 267.722 297.918L322.606 206.828C324.936 202.961 326.675 200.074 327.848 197.712C329.02 195.353 329.617 193.536 329.676 191.811C329.781 188.751 328.744 185.866 326.715 183.575C325.572 182.283 323.956 181.264 321.551 180.193C319.143 179.121 315.965 178.006 311.709 176.513L205.011 139.08Z" fill="url(#paint0_linear_447_1411)"/>
<path d="M205.011 139.08C200.783 137.597 197.626 136.49 195.011 135.797C192.399 135.106 190.351 134.835 188.341 135.012C184.775 135.328 181.273 136.598 178.334 138.641C176.678 139.793 175.28 141.314 173.719 143.519C172.157 145.725 170.444 148.599 168.151 152.447L113.833 243.597C111.537 247.449 109.823 250.326 108.669 252.679C107.515 255.03 106.93 256.839 106.877 258.556C106.785 261.604 107.824 264.474 109.846 266.755C110.986 268.041 112.594 269.056 114.985 270.123C117.379 271.192 120.537 272.304 124.767 273.793L230.899 311.166C235.11 312.649 238.254 313.756 240.859 314.449C243.461 315.141 245.503 315.415 247.507 315.241C251.064 314.934 254.561 313.676 257.499 311.646C259.156 310.502 260.557 308.99 262.125 306.798C263.694 304.603 265.416 301.745 267.722 297.918L322.606 206.828C324.936 202.961 326.675 200.074 327.848 197.712C329.02 195.353 329.617 193.536 329.676 191.811C329.781 188.751 328.744 185.866 326.715 183.575C325.572 182.283 323.956 181.264 321.551 180.193C319.143 179.121 315.965 178.006 311.709 176.513L205.011 139.08Z" stroke="url(#paint1_linear_447_1411)" stroke-width="0.5"/>
<rect x="0.107828" y="0.297795" width="157.944" height="160.114" rx="15.75" transform="matrix(-0.511916 0.859036 0.943229 0.332143 180.521 123.106)" fill="#1A1A1C"/>
<rect x="0.107828" y="0.297795" width="157.944" height="160.114" rx="15.75" transform="matrix(-0.511916 0.859036 0.943229 0.332143 180.521 123.106)" fill="url(#paint2_linear_447_1411)"/>
<rect x="0.107828" y="0.297795" width="157.944" height="160.114" rx="15.75" transform="matrix(-0.511916 0.859036 0.943229 0.332143 180.521 123.106)" stroke="url(#paint3_linear_447_1411)" stroke-width="0.5"/>
<g filter="url(#filter1_f_447_1411)">
<ellipse cx="50.4868" cy="73.8397" rx="50.4868" ry="73.8397" transform="matrix(0.396731 -0.917935 -0.923975 -0.382454 225.738 319.564)" fill="#0F0F0E" fill-opacity="0.3"/>
</g>
<g filter="url(#filter2_f_447_1411)">
<path d="M134.996 216.769C134.996 258.202 169.321 291.809 211.685 291.809C254.05 291.809 288.375 258.202 288.375 216.769C288.375 175.336 254.05 141.73 211.685 141.73C169.321 141.73 134.996 175.336 134.996 216.769Z" stroke="url(#paint4_linear_447_1411)"/>
</g>
<g filter="url(#filter3_f_447_1411)">
<path d="M111.123 216.769C111.123 271.105 156.136 315.172 211.685 315.172C267.235 315.172 312.248 271.105 312.248 216.769C312.248 162.433 267.235 118.367 211.685 118.367C156.136 118.367 111.123 162.433 111.123 216.769Z" stroke="url(#paint5_linear_447_1411)"/>
<path d="M111.123 216.769C111.123 271.105 156.136 315.172 211.685 315.172C267.235 315.172 312.248 271.105 312.248 216.769C312.248 162.433 267.235 118.367 211.685 118.367C156.136 118.367 111.123 162.433 111.123 216.769Z" stroke="black" stroke-opacity="0.2"/>
</g>
<path d="M188.61 163.162C187.804 163.633 186.89 163.918 185.946 163.964L155.509 165.452C146.871 165.87 139.439 165.017 132.783 162.854C118.218 158.128 105.996 148.279 98.3757 135.106L73.2792 91.7599C70.3817 86.7577 71.0313 80.369 74.8777 75.8584L109.338 35.5703C111.372 33.1561 114.218 31.4761 117.328 30.8418L168.906 20.1741C174.675 18.9722 180.501 21.5345 183.388 26.534L208.503 69.9124C216.118 83.062 218.636 98.6503 215.598 113.807C214.203 120.76 211.296 127.73 206.721 135.118L190.598 161.203C190.1 162.017 189.414 162.684 188.61 163.162Z" fill="url(#paint6_linear_447_1411)"/>
<g filter="url(#filter4_f_447_1411)">
<path d="M175.151 137.335C174.604 137.655 173.993 137.864 173.372 137.928L153.33 139.988C147.641 140.571 142.793 140.327 138.501 139.251C129.111 136.9 121.447 131.316 116.928 123.52L102.043 97.8653C100.324 94.9049 100.986 90.9597 103.678 88.0468L127.79 62.024C129.215 60.4659 131.145 59.3276 133.211 58.8211L167.474 50.3304C171.307 49.3753 175.038 50.7281 176.75 53.6874L191.646 79.3609C196.163 87.1433 197.242 96.6146 194.69 106.03C193.518 110.35 191.352 114.737 188.076 119.443L176.528 136.059C176.171 136.577 175.696 137.012 175.151 137.335Z" fill="#1EA51F" fill-opacity="0.5"/>
</g>
<g filter="url(#filter5_b_447_1411)">
<mask id="path-9-outside-1_447_1411" maskUnits="userSpaceOnUse" x="119.033" y="24.5524" width="201.459" height="229.533" fill="black">
<rect fill="white" x="119.033" y="24.5524" width="201.459" height="229.533"/>
<path d="M205.353 238.921C204.127 238.729 202.943 238.252 201.923 237.5L169.06 213.273C159.735 206.392 152.712 199.211 147.572 191.322C136.32 174.067 131.718 153.462 134.635 133.295L144.21 66.9136C145.314 59.2521 151.246 53.1508 158.955 51.7124L227.926 38.9518C232.026 38.1608 236.367 38.8219 240.122 40.7956L302.516 73.3692C309.502 77.0035 313.45 84.6051 312.338 92.2553L302.755 158.686C299.853 178.825 289.644 197.186 274.015 210.393C266.845 216.45 258.088 221.245 247.254 225.063L209.031 238.566C207.844 238.991 206.581 239.104 205.353 238.921Z"/>
</mask>
<path d="M205.353 238.921C204.127 238.729 202.943 238.252 201.923 237.5L169.06 213.273C159.735 206.392 152.712 199.211 147.572 191.322C136.32 174.067 131.718 153.462 134.635 133.295L144.21 66.9136C145.314 59.2521 151.246 53.1508 158.955 51.7124L227.926 38.9518C232.026 38.1608 236.367 38.8219 240.122 40.7956L302.516 73.3692C309.502 77.0035 313.45 84.6051 312.338 92.2553L302.755 158.686C299.853 178.825 289.644 197.186 274.015 210.393C266.845 216.45 258.088 221.245 247.254 225.063L209.031 238.566C207.844 238.991 206.581 239.104 205.353 238.921Z" fill="#72DC60" fill-opacity="0.35"/>
<path d="M205.204 239.91C205.75 239.996 206.259 239.623 206.341 239.076C206.424 238.53 206.048 238.018 205.502 237.933L205.204 239.91ZM201.923 237.5L202.512 236.695L202.512 236.695L201.923 237.5ZM169.06 213.273L168.47 214.077L168.471 214.078L169.06 213.273ZM147.572 191.322L148.408 190.778L148.408 190.778L147.572 191.322ZM134.635 133.295L135.624 133.444L135.624 133.444L134.635 133.295ZM144.21 66.9136L145.199 67.0624L145.199 67.0622L144.21 66.9136ZM158.955 51.7124L158.768 50.7281L158.767 50.7283L158.955 51.7124ZM227.926 38.9518L228.113 39.9361L228.12 39.9347L227.926 38.9518ZM240.122 40.7956L239.662 41.6814L239.664 41.6827L240.122 40.7956ZM302.516 73.3692L302.058 74.2562L302.059 74.2569L302.516 73.3692ZM312.338 92.2553L311.349 92.1054L311.349 92.1065L312.338 92.2553ZM302.755 158.686L301.766 158.537L301.766 158.537L302.755 158.686ZM274.015 210.393L274.662 211.16L274.662 211.159L274.015 210.393ZM247.254 225.063L246.918 224.118L246.917 224.118L247.254 225.063ZM209.031 238.566L208.694 237.621L208.689 237.623L209.031 238.566ZM205.494 237.931C204.948 237.85 204.442 238.227 204.364 238.774C204.286 239.321 204.666 239.83 205.212 239.911L205.494 237.931ZM205.502 237.933C204.427 237.764 203.396 237.347 202.512 236.695L201.334 238.305C202.49 239.157 203.826 239.694 205.204 239.91L205.502 237.933ZM202.512 236.695L169.649 212.468L168.471 214.078L201.334 238.305L202.512 236.695ZM169.649 212.468C160.401 205.644 153.469 198.546 148.408 190.778L146.737 191.866C151.956 199.876 159.07 207.141 168.47 214.077L169.649 212.468ZM148.408 190.778C137.288 173.726 132.742 153.367 135.624 133.444L133.646 133.146C130.694 153.557 135.352 174.408 146.737 191.866L148.408 190.778ZM135.624 133.444L145.199 67.0624L143.222 66.7649L133.646 133.146L135.624 133.444ZM145.199 67.0622C146.241 59.8331 151.842 54.0588 159.144 52.6964L158.767 50.7283C150.649 52.2429 144.387 58.6711 143.221 66.7651L145.199 67.0622ZM159.142 52.6967L228.113 39.9361L227.739 37.9675L158.768 50.7281L159.142 52.6967ZM228.12 39.9347C231.994 39.1874 236.104 39.8115 239.662 41.6814L240.582 39.9099C236.63 37.8324 232.058 37.1341 227.731 37.9689L228.12 39.9347ZM239.664 41.6827L302.058 74.2562L302.973 72.4821L240.58 39.9086L239.664 41.6827ZM302.059 74.2569C308.673 77.6977 312.398 84.8871 311.349 92.1054L313.326 92.4052C314.501 84.3232 310.33 76.3093 302.972 72.4814L302.059 74.2569ZM311.349 92.1065L301.766 158.537L303.744 158.835L313.327 92.4041L311.349 92.1065ZM301.766 158.537C298.899 178.433 288.813 196.575 273.369 209.626L274.662 211.159C290.474 197.797 300.806 179.218 303.744 158.834L301.766 158.537ZM273.369 209.626C266.308 215.591 257.664 220.332 246.918 224.118L247.59 226.007C258.513 222.159 267.381 217.31 274.662 211.16L273.369 209.626ZM246.917 224.118L208.694 237.621L209.368 239.51L247.591 226.007L246.917 224.118ZM208.689 237.623C207.661 237.992 206.565 238.091 205.494 237.931L205.212 239.911C206.598 240.118 208.027 239.991 209.372 239.508L208.689 237.623Z" fill="url(#paint7_linear_447_1411)" mask="url(#path-9-outside-1_447_1411)"/>
</g>
<g filter="url(#filter6_bd_447_1411)">
<path d="M209.326 160.961C207.411 160.67 205.602 159.674 204.342 158.013L188.141 136.624C185.642 133.305 186.312 128.658 189.646 126.234C192.982 123.8 197.72 124.513 200.231 127.825L211.889 143.208L250.224 115.279C253.57 112.847 258.308 113.56 260.809 116.87C263.318 120.191 262.647 124.847 259.314 127.262L214.927 159.604C213.253 160.825 211.241 161.251 209.326 160.961Z" fill="url(#paint8_linear_447_1411)"/>
<path d="M189.705 126.315L189.705 126.315C186.416 128.706 185.755 133.289 188.221 136.564L189.705 126.315ZM189.705 126.315C192.997 123.913 197.674 124.617 200.151 127.885L211.81 143.268L211.869 143.346L211.948 143.289L250.283 115.36C253.585 112.96 258.262 113.664 260.729 116.93C263.205 120.207 262.542 124.799 259.255 127.181L259.255 127.181L214.868 159.523L214.868 159.523C213.217 160.728 211.23 161.148 209.34 160.862C207.449 160.575 205.665 159.592 204.422 157.953C204.422 157.953 204.422 157.953 204.422 157.953L188.221 136.564L189.705 126.315Z" stroke="url(#paint9_linear_447_1411)" stroke-opacity="0.5" stroke-width="0.2"/>
</g>
<defs>
<filter id="filter0_f_447_1411" x="0.259399" y="77.3449" width="340.268" height="315.251" filterUnits="userSpaceOnUse" color-interpolation-filters="sRGB">
<feFlood flood-opacity="0" result="BackgroundImageFix"/>
<feBlend mode="normal" in="SourceGraphic" in2="BackgroundImageFix" result="shape"/>
<feGaussianBlur stdDeviation="32" result="effect1_foregroundBlur_447_1411"/>
</filter>
<filter id="filter1_f_447_1411" x="78.418" y="162.702" width="198.248" height="164.556" filterUnits="userSpaceOnUse" color-interpolation-filters="sRGB">
<feFlood flood-opacity="0" result="BackgroundImageFix"/>
<feBlend mode="normal" in="SourceGraphic" in2="BackgroundImageFix" result="shape"/>
<feGaussianBlur stdDeviation="14" result="effect1_foregroundBlur_447_1411"/>
</filter>
<filter id="filter2_f_447_1411" x="126.496" y="133.23" width="170.379" height="167.079" filterUnits="userSpaceOnUse" color-interpolation-filters="sRGB">
<feFlood flood-opacity="0" result="BackgroundImageFix"/>
<feBlend mode="normal" in="SourceGraphic" in2="BackgroundImageFix" result="shape"/>
<feGaussianBlur stdDeviation="4" result="effect1_foregroundBlur_447_1411"/>
</filter>
<filter id="filter3_f_447_1411" x="106.623" y="113.867" width="210.125" height="205.804" filterUnits="userSpaceOnUse" color-interpolation-filters="sRGB">
<feFlood flood-opacity="0" result="BackgroundImageFix"/>
<feBlend mode="normal" in="SourceGraphic" in2="BackgroundImageFix" result="shape"/>
<feGaussianBlur stdDeviation="2" result="effect1_foregroundBlur_447_1411"/>
</filter>
<filter id="filter4_f_447_1411" x="85.095" y="34.0274" width="126.949" height="122.269" filterUnits="userSpaceOnUse" color-interpolation-filters="sRGB">
<feFlood flood-opacity="0" result="BackgroundImageFix"/>
<feBlend mode="normal" in="SourceGraphic" in2="BackgroundImageFix" result="shape"/>
<feGaussianBlur stdDeviation="8" result="effect1_foregroundBlur_447_1411"/>
</filter>
<filter id="filter5_b_447_1411" x="108.781" y="13.6248" width="228.742" height="250.382" filterUnits="userSpaceOnUse" color-interpolation-filters="sRGB">
<feFlood flood-opacity="0" result="BackgroundImageFix"/>
<feGaussianBlur in="BackgroundImageFix" stdDeviation="12"/>
<feComposite in2="SourceAlpha" operator="in" result="effect1_backgroundBlur_447_1411"/>
<feBlend mode="normal" in="SourceGraphic" in2="effect1_backgroundBlur_447_1411" result="shape"/>
</filter>
<filter id="filter6_bd_447_1411" x="171.631" y="98.8352" width="105.696" height="77.213" filterUnits="userSpaceOnUse" color-interpolation-filters="sRGB">
<feFlood flood-opacity="0" result="BackgroundImageFix"/>
<feGaussianBlur in="BackgroundImageFix" stdDeviation="7.5"/>
<feComposite in2="SourceAlpha" operator="in" result="effect1_backgroundBlur_447_1411"/>
<feColorMatrix in="SourceAlpha" type="matrix" values="0 0 0 0 0 0 0 0 0 0 0 0 0 0 0 0 0 0 127 0" result="hardAlpha"/>
<feOffset dx="5" dy="5"/>
<feGaussianBlur stdDeviation="5"/>
<feColorMatrix type="matrix" values="0 0 0 0 0.454902 0 0 0 0 0.870588 0 0 0 0 0.376471 0 0 0 0.5 0"/>
<feBlend mode="normal" in2="effect1_backgroundBlur_447_1411" result="effect2_dropShadow_447_1411"/>
<feBlend mode="normal" in="SourceGraphic" in2="effect2_dropShadow_447_1411" result="shape"/>
</filter>
<linearGradient id="paint0_linear_447_1411" x1="329.557" y1="191.313" x2="220.707" y2="282.63" gradientUnits="userSpaceOnUse">
<stop stop-color="#3E3D41"/>
<stop offset="0.933579" stop-color="#131313" stop-opacity="0.0731208"/>
<stop offset="1" stop-opacity="0"/>
</linearGradient>
<linearGradient id="paint1_linear_447_1411" x1="333.877" y1="179.141" x2="230.697" y2="292.937" gradientUnits="userSpaceOnUse">
<stop stop-color="#2E2E2E"/>
<stop offset="1" stop-color="#2E2E2E" stop-opacity="0"/>
</linearGradient>
<linearGradient id="paint2_linear_447_1411" x1="187.571" y1="-8.044" x2="32.102" y2="172.774" gradientUnits="userSpaceOnUse">
<stop stop-color="#434343"/>
<stop stop-color="#1A1A1C" stop-opacity="0.05"/>
<stop offset="1" stop-color="#F4F4FF" stop-opacity="0.16"/>
</linearGradient>
<linearGradient id="paint3_linear_447_1411" x1="159.41" y1="7.34422" x2="26.9389" y2="175.141" gradientUnits="userSpaceOnUse">
<stop stop-color="#2E2E2E"/>
<stop offset="1" stop-color="#49484E"/>
</linearGradient>
<linearGradient id="paint4_linear_447_1411" x1="274.551" y1="156.805" x2="212.16" y2="215.777" gradientUnits="userSpaceOnUse">
<stop stop-color="#9AFEC2"/>
<stop offset="1" stop-color="#B7FBD0" stop-opacity="0"/>
</linearGradient>
<linearGradient id="paint5_linear_447_1411" x1="293.994" y1="138.259" x2="212.307" y2="215.47" gradientUnits="userSpaceOnUse">
<stop stop-color="#9AFEC2"/>
<stop offset="1" stop-color="#B7FBD0" stop-opacity="0"/>
</linearGradient>
<linearGradient id="paint6_linear_447_1411" x1="168.619" y1="-1.78849e-05" x2="128.638" y2="147.375" gradientUnits="userSpaceOnUse">
<stop stop-color="#9BF763"/>
<stop offset="1" stop-color="#26AB5B"/>
</linearGradient>
<linearGradient id="paint7_linear_447_1411" x1="173.718" y1="53.189" x2="283.35" y2="209.742" gradientUnits="userSpaceOnUse">
<stop stop-color="white" stop-opacity="0.25"/>
<stop offset="1" stop-color="white" stop-opacity="0"/>
</linearGradient>
<linearGradient id="paint8_linear_447_1411" x1="256.767" y1="123.88" x2="175.465" y2="115.308" gradientUnits="userSpaceOnUse">
<stop stop-color="white"/>
<stop offset="1" stop-color="white" stop-opacity="0.2"/>
</linearGradient>
<linearGradient id="paint9_linear_447_1411" x1="195.96" y1="122.753" x2="257.528" y2="132.509" gradientUnits="userSpaceOnUse">
<stop stop-color="white"/>
<stop offset="1" stop-color="white" stop-opacity="0"/>
</linearGradient>
</defs>
</svg>
