<svg width="188" height="30" viewBox="0 0 188 30" fill="none" xmlns="http://www.w3.org/2000/svg">
<path d="M28.2539 5.20939H25.6025V28.6516H20.6311L8.53416 12.6874V23.4422H11.1855V28.6516H0V23.4422H2.65138V5.20939H0V0H8.53416L19.8026 14.872V5.20939H17.1512V0H28.3367C28.2539 0 28.2539 5.20939 28.2539 5.20939ZM45.985 18.5689C45.985 18.989 45.985 19.4092 45.985 19.9133H33.6395C33.3081 23.9464 34.7995 25.1227 37.0366 25.1227C38.9423 25.1227 40.3508 23.8623 40.3508 21.8458H45.6536C45.5707 25.3748 43.7479 29.4078 36.7052 29.4078C29.7453 29.4078 26.5139 24.2825 26.5139 18.5689C26.5139 13.4436 29.8281 7.98212 36.6223 7.98212C43.0851 7.98212 45.985 12.6034 45.985 18.5689ZM76.476 13.4436H74.6532L70.0961 28.9877H64.0476L61.2305 20.5015L58.662 28.9877H52.5306L47.4764 13.4436H45.6536V8.15017H56.342V13.4436H53.6906L56.5077 21.6778L60.1534 8.15017H63.4676L67.9418 21.6778L70.3447 13.4436H67.6933V8.15017H76.6417C76.476 8.15017 76.476 13.4436 76.476 13.4436ZM84.0159 13.6116C84.0159 14.3678 84.5959 14.872 86.5844 15.4601L89.4844 16.3844C92.1357 17.3086 95.3671 19.2411 95.3671 22.9381C95.3671 27.2232 92.2186 29.3238 88.2415 29.3238C85.093 29.3238 82.6902 27.8114 82.0273 27.0552V28.8197H76.8074V21.5937H81.9445C82.1102 23.9464 84.1816 25.2067 86.0044 25.2067C87.4958 25.2067 88.2415 24.5345 88.2415 23.7783C88.2415 22.8541 87.6615 22.2659 85.093 21.4257L82.5245 20.5855C79.9559 19.7453 77.056 17.8127 77.056 14.2838C77.056 9.99866 80.7845 7.8981 83.933 7.8981C87.2472 7.8981 88.8215 8.82235 89.6501 9.74659V8.15017H94.87V14.6199H89.4844C89.4015 12.8554 87.7444 12.0992 86.0044 12.0992C84.5959 12.1832 84.0159 12.7714 84.0159 13.6116ZM126.604 13.4436H124.781L120.224 28.9877H114.175L111.358 20.5015L108.79 28.9877H102.658L97.6042 13.4436H95.7814V8.15017H106.47V13.4436H103.818L106.636 21.6778L110.198 8.15017H113.513L117.987 21.6778L120.39 13.4436H117.655V8.15017H126.604V13.4436ZM145.495 18.5689C145.495 18.989 145.495 19.4092 145.495 19.9133H133.232C132.901 23.9464 134.392 25.1227 136.629 25.1227C138.535 25.1227 139.944 23.8623 139.944 21.8458H145.246C145.163 25.3748 143.258 29.4078 136.298 29.4078C129.255 29.4078 126.024 24.2825 126.024 18.5689C126.024 13.4436 129.421 7.98212 136.215 7.98212C142.678 7.98212 145.495 12.5193 145.495 18.5689ZM165.712 18.4849C165.712 18.905 165.712 19.3251 165.712 19.8293H153.449C153.118 23.8623 154.609 25.0387 156.846 25.0387C158.752 25.0387 160.16 23.7783 160.16 21.7618H165.463C165.38 25.2907 163.475 29.3238 156.515 29.3238C149.472 29.3238 146.241 24.1984 146.241 18.4849C146.241 13.3596 149.638 7.8981 156.432 7.8981C162.895 7.8981 165.712 12.4353 165.712 18.4849ZM188 28.9037H181.869L175.489 20.4174L173.417 22.0139V23.6943H175.24V28.9877H165.712V23.7783H167.535V5.29341H164.883V0H173.417V16.6364L177.726 13.4436H175.074V8.15017H186.426V13.4436H184.603L180.129 16.8045L185.266 23.6103H187.917C188 23.6943 188 28.9037 188 28.9037ZM153.449 16.4684H160.16C160.16 13.5276 158.255 12.3513 156.929 12.3513C155.272 12.3513 153.532 13.6956 153.449 16.4684ZM133.232 16.4684H139.944C139.944 13.5276 138.038 12.3513 136.629 12.3513C135.055 12.4353 133.315 13.7797 133.232 16.4684ZM33.7224 16.5524H40.4337C40.4337 13.6116 38.528 12.4353 37.1194 12.4353C35.4623 12.4353 33.8052 13.7797 33.7224 16.5524Z" fill="white"/>
</svg>
