<svg width="168" height="57" viewBox="0 0 168 57" fill="none" xmlns="http://www.w3.org/2000/svg">
<path d="M38.1592 30.4485C38.7287 30.1618 39.3552 29.8178 39.9247 29.5312C40.1526 29.4165 40.9499 29.1298 41.0638 28.9005C41.1208 28.7858 41.0638 28.4418 41.0638 28.2698V26.8937V17.0894V7.51437V6.25299C41.0638 6.19565 41.1208 5.79431 41.0638 5.73697C41.0069 5.67964 40.5512 5.73697 40.4943 5.73697H39.2413C38.7857 5.73697 38.8426 5.79431 38.5578 6.13832C37.4757 7.5717 36.3936 9.00509 35.3115 10.4958C34.7989 11.1838 34.2863 11.8145 33.8307 12.5025C33.4889 12.9612 33.4889 13.0186 32.8624 13.0186L33.0333 9.23443C33.0903 8.31706 33.0903 7.3997 33.1472 6.48233C33.1472 6.13832 33.2042 5.79431 33.2042 5.45029C33.2042 5.33562 33.1472 4.99161 33.2042 4.93428C33.3181 4.76227 34.3433 4.87694 34.628 4.87694H55.9288C56.0427 4.87694 56.5553 4.81961 56.6692 4.87694C56.7831 4.93428 56.7262 5.27829 56.7262 5.45029C56.7831 6.19565 56.7831 6.99835 56.8401 7.74371C56.897 9.40644 56.954 11.0118 57.0679 12.6746V13.0186C56.7831 13.0186 56.5553 13.0759 56.3275 12.9039C56.0997 12.7319 55.9288 12.3879 55.7579 12.1585C55.0745 11.2412 54.3911 10.2665 53.6507 9.3491L51.6003 6.597C51.4864 6.425 51.3155 6.02365 51.0877 5.90898C50.9169 5.79431 50.5751 5.85164 50.3473 5.85164H49.4361C49.3221 5.85164 48.8665 5.79431 48.7526 5.85164C48.6957 5.90898 48.7526 5.90898 48.6957 6.02365C48.5817 6.48233 48.6957 7.05569 48.6957 7.51437V27.4671C48.6957 27.8684 48.5817 28.4418 48.6957 28.8431C48.8096 29.2445 49.7208 29.5312 50.1195 29.7032C50.5182 29.9325 51.2016 30.1045 51.5434 30.4485C51.6573 30.5632 51.7712 31.1365 51.6573 31.3085C51.6003 31.3659 51.3155 31.3085 51.2586 31.3085H38.7287C38.6148 31.3085 38.2161 31.3659 38.1592 31.3085C38.1022 31.0792 38.1592 30.6205 38.1592 30.4485ZM59.2891 29.4165V21.0455V7.34236V5.10628C59.2891 4.76227 59.403 4.24625 59.2891 3.90224C59.1752 3.50089 58.4917 3.44356 58.0931 3.27155C57.8652 3.21422 57.1248 3.04221 57.0109 2.81287V2.35418H57.1818C57.4096 2.23951 57.8652 2.23951 58.15 2.18218C58.6626 2.06751 59.1752 2.01017 59.6308 1.8955C60.7699 1.66616 61.9659 1.43682 63.105 1.26481C63.7885 1.15014 64.4719 0.978136 65.1554 0.863465C65.3262 0.863465 66.0097 0.748794 66.0666 0.863465C66.1236 0.9208 66.0666 1.15014 66.0666 1.20748V13.0759C68.2309 10.8972 71.9898 9.69311 75.0084 10.4385C77.6283 11.0692 78.4826 13.5346 78.4826 16.0573C78.5395 19.2681 78.4826 22.4216 78.4826 25.6323V28.2124C78.4826 28.4991 78.3687 29.1871 78.4826 29.4738C78.5395 29.5885 78.7674 29.6458 78.8813 29.7605C79.2799 29.9898 79.7356 30.2192 80.1343 30.4485C80.1912 30.5059 80.3621 30.5632 80.3621 30.6205C80.419 30.6779 80.419 31.1939 80.3621 31.2512C80.3051 31.3659 80.3051 31.3085 80.1343 31.3085C79.5078 31.4232 78.8243 31.3085 78.2548 31.3085H70.0534C69.9964 31.3085 69.7117 31.3659 69.6547 31.3085C69.5978 31.2512 69.5978 30.6205 69.6547 30.5632C69.8256 30.3338 70.509 30.1045 70.7368 29.9325C70.9077 29.8178 71.4203 29.6458 71.5342 29.4738C71.6481 29.3018 71.5342 28.6711 71.5342 28.4991V26.1484C71.5342 22.8229 71.5912 19.4401 71.5342 16.1147C71.5342 15.14 71.3633 13.9933 70.3951 13.4772C69.8825 13.1906 69.1991 13.1332 68.6296 13.1332C68.1739 13.1332 67.7183 13.2479 67.3196 13.3626C66.9779 13.4772 66.3514 13.7066 66.1236 13.9933C65.9527 14.2226 66.0666 14.5666 66.0666 14.8533V28.3844C66.0666 28.6711 65.9527 29.2445 66.0666 29.4738C66.1236 29.5885 66.3514 29.7032 66.5223 29.7605C66.9209 29.9898 67.4335 30.2192 67.8322 30.4485C67.8891 30.5059 68.0031 30.5059 68.0031 30.5632C68.06 30.6205 68.06 31.1365 68.0031 31.1939C67.9461 31.2512 67.8892 31.2512 67.7752 31.2512C67.1488 31.3085 66.4653 31.2512 65.8388 31.2512H57.6374C57.5805 31.2512 57.2957 31.3085 57.2388 31.2512C57.1818 31.1939 57.2388 30.6205 57.2957 30.5059C57.4666 30.2765 58.0931 30.0472 58.3209 29.9325C58.7196 29.7605 59.0043 29.5885 59.2891 29.4165ZM86.3422 21.5042C86.4562 24.027 87.2535 26.8364 89.5317 28.2124C90.7277 28.9005 92.2085 29.1298 93.5754 29.0151C95.2271 28.8431 96.594 28.0404 98.0178 27.2951C98.0178 27.5244 98.0748 27.9258 98.0178 28.1551C97.9039 28.3844 97.6191 28.6711 97.4483 28.8431C97.2205 29.0725 96.9357 29.3591 96.6509 29.5885C95.6827 30.3912 94.6006 30.9645 93.4615 31.3659C91.2972 32.1112 88.7913 32.0539 86.5701 31.4806C84.8045 31.0219 83.2098 30.1618 82.0137 28.7858C80.8177 27.4097 80.1343 25.6323 79.8495 23.7976C79.223 19.8415 79.9634 15.312 83.2098 12.6746C86.0575 10.3811 90.6138 9.92245 93.9741 11.2985C98.0748 12.9612 98.7582 17.6627 98.7582 21.5615H87.88C87.3674 21.5042 86.8548 21.5042 86.3422 21.5042ZM86.2283 20.5295C87.3674 20.4722 88.5065 20.4148 89.7025 20.3002C90.386 20.2428 91.1264 20.2428 91.8098 20.1855C91.9237 20.1855 92.2085 20.1855 92.3224 20.1282C92.4933 20.0135 92.3794 18.8668 92.3794 18.6374C92.3224 16.5734 92.2655 14.0506 91.0694 12.2732C90.2151 11.0118 88.9052 11.2412 88.1078 12.3879C86.4562 14.624 86.2283 17.9494 86.2283 20.5295ZM0 41.4569C0 38.2461 0.626494 34.9207 2.39207 32.2259C4.10069 29.5885 6.83448 27.8684 9.79609 27.0084C13.3842 25.9764 17.371 26.091 21.073 26.7791C21.8703 26.9511 22.6677 27.1231 23.4081 27.3524C23.522 27.4097 24.0346 27.5244 24.0915 27.6391V27.8111C24.2624 28.4991 24.1485 29.3591 24.1485 30.0472C24.2054 31.8246 24.2054 33.6593 24.2624 35.4367C24.0346 35.4367 23.6359 35.494 23.465 35.4367C23.3511 35.3794 23.2372 35.0927 23.1803 34.978C22.7246 34.29 22.269 33.602 21.8703 32.8566C20.9021 31.3085 19.8769 29.7605 18.9087 28.2124C18.3961 27.3524 16.9723 27.3524 16.061 27.3524C15.0359 27.3524 14.0107 27.5244 13.1564 28.0404C11.2199 29.2445 10.3087 31.5952 9.79609 33.7166C8.99873 37.0994 9.05568 40.6542 9.22655 44.0943C9.39741 46.7318 9.62522 49.5412 10.6504 51.9493C11.2769 53.44 12.359 54.7587 14.0107 55.1027C14.5233 55.2174 15.0359 55.2174 15.6054 55.1601C15.9471 55.1027 17.1431 55.0454 17.314 54.7014C17.371 54.5867 17.314 54.3 17.314 54.1854V53.2107V47.1331V44.7824C17.314 44.381 17.4279 44.209 17.0862 43.9797C16.6875 43.7503 16.2319 43.521 15.8332 43.2343C15.5484 43.0623 14.9789 42.8903 14.808 42.661C14.6941 42.5463 14.6372 41.9156 14.7511 41.8009C14.808 41.6863 14.808 41.7436 14.9789 41.7436C15.4915 41.6289 16.1749 41.7436 16.6875 41.7436H25.5154C26.0849 41.7436 26.7114 41.6863 27.281 41.7436H27.5088C27.5657 41.8009 27.5657 42.6036 27.5088 42.7183C27.3949 42.8903 26.8253 43.1196 26.5975 43.2343C26.1988 43.4636 25.7432 43.693 25.3445 43.9797C24.8889 44.209 24.9458 44.209 24.9458 44.725V54.0707C24.9458 54.1854 25.0028 54.472 24.9458 54.5867C24.8319 54.8734 23.6359 55.0454 23.2942 55.1601C22.326 55.4467 21.3008 55.6761 20.2756 55.8481C18.2822 56.1921 16.2888 56.3068 14.2955 56.2494C11.106 56.1348 7.74574 55.4467 5.12586 53.4973C2.8477 51.8346 1.3669 49.3119 0.683448 46.5598C0.170862 44.9544 0 43.177 0 41.4569ZM26.2558 36.2394C26.2558 36.1247 26.1988 35.666 26.2558 35.6087C26.3127 35.5514 26.3697 35.6087 26.4266 35.5514C26.7684 35.3794 27.224 35.3794 27.6227 35.322C28.9326 35.0927 30.2426 34.8633 31.6095 34.634C32.6346 34.462 33.6598 34.2327 34.628 34.118C34.9128 34.0606 35.2545 34.0606 35.5393 34.1753C35.8241 34.2327 35.7101 34.1753 35.7671 34.4047C35.881 35.0927 35.7671 35.8954 35.7671 36.5834V48.5665C35.7671 49.9999 35.3684 52.6373 36.7353 53.4973C37.4188 53.956 38.387 53.956 39.1843 53.784C39.8108 53.6693 41.0069 53.2107 41.2347 52.5226C41.2916 52.3506 41.2347 52.1213 41.2347 51.9493V50.7452V42.7756V39.1062V37.9021C41.2347 37.7874 41.2916 37.4434 41.2347 37.3288C41.0638 37.1568 40.4943 36.9848 40.3234 36.9274C39.9817 36.8127 39.6969 36.6407 39.3552 36.5261C39.2413 36.4687 38.8426 36.4114 38.7857 36.2967C38.7287 36.2394 38.7287 35.7234 38.7857 35.666C38.8426 35.6087 38.8426 35.666 38.8996 35.6087C39.1843 35.4367 39.6969 35.494 39.9817 35.4367C42.3168 35.0354 44.7089 34.5193 47.1009 34.1753C47.3857 34.118 47.6705 34.118 47.9553 34.1753C48.24 34.2327 48.1261 34.118 48.1831 34.4047C48.297 34.978 48.1831 35.7807 48.1831 36.4114V52.924C48.1831 53.096 48.1261 53.3827 48.1831 53.612C48.24 53.784 48.1831 53.7267 48.4678 53.8414C49.0374 54.0707 49.6639 54.3574 50.2334 54.5867C50.4043 54.6441 50.4612 54.6441 50.5182 54.7587C50.5751 54.8734 50.5751 55.2747 50.5182 55.2747C50.4043 55.3894 49.8347 55.3321 49.7208 55.3894C48.4678 55.5614 47.2149 55.6761 45.9049 55.8481C44.7658 55.9628 43.6268 56.1348 42.5446 56.2494C42.3168 56.3068 42.089 56.3068 41.8612 56.2494C41.7473 56.2494 41.4055 56.2494 41.3486 56.1921C41.2916 56.0774 41.3486 55.6188 41.3486 55.5041V54.5294C41.3486 54.3574 41.4625 53.8987 41.3486 53.7267C41.2347 53.5547 41.0069 53.784 40.836 53.8987C40.3804 54.3 39.8678 54.7014 39.3552 54.9881C37.4757 56.1348 35.1406 56.6508 32.9764 56.1921C31.3816 55.8481 30.0147 54.9307 29.3313 53.3827C28.8187 52.2933 28.7048 51.0893 28.7048 49.9425V43.1196V39.2208V37.9021C28.7048 37.7874 28.7618 37.4434 28.7048 37.3288C28.5909 37.1568 27.9074 36.9848 27.7366 36.8701C27.167 36.6407 26.7114 36.4687 26.2558 36.2394ZM79.9634 34.0606C80.0773 34.0606 80.5899 34.0606 80.6468 34.1753C80.7038 34.2327 80.6468 34.634 80.6468 34.6913V39.7369C80.6468 39.9089 80.5899 40.1955 80.6468 40.3675V40.4822C80.8747 40.7116 80.9316 39.9662 80.9886 39.9089C81.5012 37.7874 82.4694 35.322 84.6336 34.462C85.0323 34.29 85.431 34.2327 85.8297 34.1753C86.1714 34.1753 87.1396 34.0606 87.3105 34.3473C87.3674 34.462 87.3105 34.7487 87.3105 34.8633V40.7116C85.9436 40.4249 84.4058 40.4822 83.0959 40.7689C82.4694 40.8836 81.8998 41.0556 81.3303 41.3422C81.0455 41.4569 80.9886 41.3996 80.9316 41.6289C80.8747 41.8583 80.9316 42.2596 80.9316 42.4889V53.5547C80.9316 53.6693 80.8747 53.8414 80.9316 53.956C81.0455 54.128 81.4442 54.2427 81.6151 54.3C81.8998 54.472 82.2416 54.644 82.5263 54.8161C82.6402 54.8734 82.8111 54.9307 82.868 55.0454C82.925 55.1027 82.925 55.7908 82.868 55.8481C82.8111 55.9054 82.4694 55.8481 82.3555 55.8481H72.9011C72.6163 55.8481 72.1037 55.9628 71.8759 55.8481H71.7051C71.6481 55.7908 71.7051 55.1601 71.7051 55.1027C71.819 54.7587 72.5594 54.5294 72.9011 54.3574C73.1289 54.2427 73.5846 54.0707 73.6985 53.8414C73.7554 53.7267 73.6985 53.3827 73.6985 53.268V52.064V37.3288C73.6985 37.2714 73.7554 36.9848 73.6985 36.9274C73.6415 36.8701 73.3567 36.8127 73.2428 36.8127C72.9011 36.6981 72.5594 36.5834 72.2177 36.5261C71.8759 36.4114 71.0216 36.3541 71.3064 35.7807C71.3633 35.6087 71.5912 35.666 71.819 35.6087C74.325 35.15 76.774 34.6913 79.28 34.2327C79.5078 34.118 79.7356 34.118 79.9634 34.0606ZM101.435 34.5767V29.9898V28.6711C101.435 28.4991 101.492 28.1551 101.435 27.9831C101.378 27.8684 101.15 27.8111 100.979 27.7538C100.524 27.5817 100.068 27.4097 99.5556 27.2377C99.2138 27.1231 99.043 27.1804 99.043 26.7791C99.043 26.435 98.986 26.5497 99.2708 26.4924C99.8973 26.263 100.638 26.263 101.264 26.1484C103.144 25.8044 104.966 25.4603 106.846 25.1163C107.244 25.059 107.643 24.9443 108.042 25.0017C108.497 25.059 108.554 24.9443 108.554 25.3457C108.611 26.263 108.554 27.2377 108.554 28.1551V53.268C108.554 53.4973 108.497 53.4973 108.668 53.612C109.01 53.8414 109.579 53.956 109.921 54.0707C110.149 54.128 110.776 54.2427 110.889 54.4147C110.946 54.472 110.946 55.1027 110.889 55.1601C110.832 55.2174 110.491 55.2174 110.434 55.2174C109.636 55.3321 108.896 55.4467 108.099 55.5041C106.333 55.7334 104.568 55.9628 102.745 56.1921C102.46 56.2494 101.777 56.3641 101.663 56.1348C101.549 55.9054 101.663 55.1601 101.663 54.9307C101.663 54.7587 101.777 54.0134 101.663 53.8987C101.549 53.784 100.296 54.9307 100.125 55.0454C99.4417 55.5041 98.7013 55.8481 97.9039 56.0774C96.6509 56.4214 95.2271 56.4214 93.9741 56.1348C88.5065 54.8734 87.3674 48.3372 87.8231 43.5783C88.0509 41.0556 88.8482 38.5328 90.5568 36.6981C92.1516 35.0353 94.3158 34.1753 96.537 34.0033C98.2456 33.8313 99.8973 33.946 101.435 34.5767ZM101.435 52.8667V38.7621V36.1247C101.435 35.7807 101.378 35.7234 100.979 35.494C100.182 35.0353 99.1569 34.8633 98.3026 35.2074C96.9926 35.7234 96.3661 37.2714 96.0244 38.5328C95.341 40.8262 95.284 43.2916 95.341 45.6997C95.3979 47.7638 95.4549 50.2866 96.594 52.1213C97.6191 53.7267 99.9542 54.128 101.435 52.8667ZM120.287 34.0606C120.572 34.118 120.913 34.0033 121.027 34.29C121.084 34.462 121.027 34.8633 121.027 35.0354V52.9813C121.027 53.2107 120.97 53.5547 121.027 53.784C121.084 54.0134 121.312 54.0707 121.54 54.1854C121.882 54.3574 122.166 54.5294 122.508 54.7014C122.622 54.7587 122.964 54.8734 123.021 55.0454C123.021 55.1027 123.078 55.7908 123.021 55.8481H122.85C122.508 55.9054 122.052 55.8481 121.654 55.8481H112.997C112.769 55.8481 112.142 55.9628 111.972 55.8481C111.858 55.7908 111.801 55.1027 111.915 54.9881C112.028 54.8161 112.427 54.7014 112.598 54.6441C112.94 54.472 113.281 54.2427 113.623 54.0707C113.908 53.8987 113.851 53.956 113.851 53.7267C113.965 52.8667 113.851 51.892 113.851 51.0319V46.5024V38.2461C113.851 38.0168 113.908 37.6154 113.851 37.3861C113.794 37.1568 113.509 37.1568 113.281 37.0421C112.883 36.8701 112.541 36.7554 112.142 36.5834C112.028 36.5261 111.573 36.4687 111.459 36.2967C111.402 36.2394 111.402 35.666 111.459 35.6087C111.516 35.5514 111.63 35.6087 111.687 35.5514C112.142 35.3794 112.655 35.3794 113.168 35.2647C113.908 35.15 114.591 34.978 115.332 34.8633C116.756 34.634 118.123 34.3473 119.546 34.118C119.831 34.1753 120.059 34.118 120.287 34.0606ZM121.084 28.7285C120.97 32.1686 116.357 33.6593 114.25 30.9645C113.281 29.7032 113.225 27.9831 114.079 26.6644C114.933 25.3457 116.585 24.7723 118.123 25.1163C119.831 25.4603 121.084 26.9511 121.084 28.7285ZM146.03 53.8987V40.0809V37.4434C146.03 37.3861 146.087 37.0994 146.03 37.0421C145.973 36.9274 145.631 36.8701 145.517 36.8701L144.492 36.5261C144.321 36.4687 143.866 36.4114 143.752 36.2394C143.638 36.1247 143.695 35.838 143.695 35.666C143.695 35.322 143.809 35.3794 144.151 35.322L147.91 34.634L151.668 33.946C151.896 33.8886 152.067 33.8313 152.295 33.8313C152.409 33.8313 152.978 33.8313 153.092 33.8886C153.149 33.946 153.092 34.29 153.092 34.4047V35.494C153.092 35.666 152.978 36.1821 153.092 36.3541C153.206 36.5834 153.434 36.3541 153.605 36.1821C154.117 35.7807 154.63 35.4367 155.2 35.15C157.25 34.0033 159.699 33.4873 162.034 33.8313C163.629 34.0606 164.939 34.9207 165.508 36.4687C165.907 37.5581 165.964 38.7048 165.964 39.8515V52.924C165.964 53.1533 165.907 53.5547 165.964 53.784C166.021 54.0134 166.192 54.0707 166.477 54.1854C166.761 54.3574 167.103 54.5294 167.388 54.7014C167.502 54.7587 167.9 54.8734 167.957 55.0454C168.014 55.1601 168.014 55.7334 167.957 55.7908C167.9 55.9054 168.014 55.7908 167.843 55.8481C167.616 55.9628 167.103 55.8481 166.818 55.8481H158.674C158.332 55.8481 157.022 56.0201 156.851 55.7908C156.794 55.7334 156.794 55.1027 156.851 54.9881C156.908 54.8734 157.25 54.7587 157.364 54.7014C157.706 54.5294 157.99 54.3574 158.332 54.1854C158.446 54.128 158.788 54.0134 158.845 53.8987C158.902 53.784 158.845 53.5547 158.845 53.44V52.1786V48.1651V40.4249C158.845 39.5075 158.902 38.4755 158.332 37.6728C157.876 36.9848 157.079 36.8127 156.282 36.7554C155.655 36.7554 155.086 36.8127 154.516 36.9847C154.231 37.0994 153.377 37.3288 153.206 37.6728C153.149 37.7874 153.206 38.0168 153.206 38.1315V52.9813C153.206 53.1533 153.149 53.5547 153.206 53.7267C153.263 53.956 153.605 54.0134 153.776 54.128C154.061 54.3 154.402 54.472 154.687 54.6441C154.801 54.7014 155.029 54.8161 155.086 54.8734C155.143 54.9307 155.143 55.6187 155.086 55.6761C155.086 55.7334 155.029 55.6761 154.972 55.6761C154.744 55.7908 154.174 55.6761 153.947 55.6761H144.378C144.094 55.6761 144.037 55.7334 143.98 55.5614C143.923 55.4467 143.923 54.9307 143.98 54.8161C144.037 54.7014 144.378 54.5867 144.492 54.5294C145.062 54.472 145.517 54.1854 146.03 53.8987ZM133.956 43.349C133.956 41.8583 134.013 40.3102 133.899 38.7621C133.728 37.0994 133.272 35.2647 131.393 34.9207C130.823 34.806 129.798 34.634 129.399 35.0927C129.001 35.494 128.716 36.0674 128.374 36.5261L125.47 40.4822C125.299 40.7116 125.128 41.1702 124.9 41.2849C124.843 41.3422 124.274 41.3422 124.274 41.2849C124.217 41.2276 124.274 40.8262 124.274 40.7116V36.0674C124.274 35.8954 124.217 35.6087 124.274 35.4367C124.388 35.15 125.64 34.978 125.925 34.8633C127.52 34.462 129.172 34.1753 130.823 34.0606C133.158 33.8886 135.778 33.946 137.943 34.978C139.651 35.7807 140.733 37.2141 141.018 39.0488C141.189 39.9662 141.132 40.9982 141.132 41.9156V53.3827C141.132 53.5547 141.018 54.0134 141.132 54.128C141.189 54.1854 141.474 54.2427 141.531 54.2427C141.986 54.3574 142.385 54.472 142.841 54.5867C143.125 54.6441 143.182 54.6441 143.182 54.9307C143.182 55.2174 143.239 55.2174 142.898 55.3321C142.499 55.5041 142.1 55.6761 141.702 55.7908C139.594 56.4214 136.291 56.5935 134.753 54.6441C134.639 54.472 134.298 53.7267 134.127 53.6693C133.899 53.612 133.215 54.5294 132.988 54.7014C132.076 55.5041 130.88 55.9628 129.684 56.1348C127.463 56.4214 125.071 55.9628 123.704 54.0134C122.565 52.3506 122.337 49.7705 123.191 47.9358C124.729 44.4384 129.286 44.0943 132.589 43.521C132.988 43.521 133.443 43.4063 133.956 43.349ZM133.956 52.8667V44.381C132.247 44.4957 130.482 44.6104 129.855 46.5024C129.399 47.7638 129.399 49.2545 129.57 50.5732C129.684 51.4906 129.912 52.6373 130.766 53.2107C131.678 53.8414 133.215 53.7267 133.956 52.8667ZM61.852 43.349C61.852 41.8583 61.909 40.3102 61.7951 38.7621C61.6242 37.0994 61.1686 35.2647 59.2891 34.9207C58.7196 34.806 57.6944 34.634 57.2957 35.0927C56.897 35.494 56.6123 36.0674 56.2705 36.5261L53.3659 40.4822C53.195 40.7116 53.0242 41.1702 52.7963 41.2849C52.7394 41.3422 52.1698 41.3422 52.1698 41.2849C52.1129 41.2276 52.1698 40.8262 52.1698 40.7116V36.1247C52.1698 35.9527 52.1129 35.666 52.1698 35.494C52.2838 35.2074 53.4798 35.0353 53.8215 34.9207C55.4162 34.5193 57.0679 34.2327 58.6626 34.118C60.9977 33.946 63.6176 34.0033 65.7819 35.0354C67.4905 35.838 68.5726 37.2714 68.8574 39.1062C69.0282 40.0235 68.9713 41.0556 68.9713 41.9729V53.44C68.9713 53.612 68.8574 54.0707 68.9713 54.1854C69.0282 54.2427 69.313 54.3 69.3699 54.3C69.8256 54.4147 70.2243 54.5294 70.6799 54.6441C70.9647 54.7014 71.0216 54.7014 71.0216 54.9881C71.0216 55.2747 71.0786 55.2747 70.7368 55.3894C70.3382 55.5614 69.9395 55.7334 69.5408 55.8481C67.4335 56.4788 64.1302 56.6508 62.5924 54.7014C62.4785 54.5294 62.1368 53.784 61.9659 53.7267C61.7381 53.6693 61.0547 54.5867 60.8838 54.7587C59.9725 55.5614 58.7765 56.0201 57.5805 56.1921C55.3593 56.4788 52.9672 56.0201 51.6003 54.0707C50.4612 52.408 50.2334 49.8279 51.0877 47.9931C52.6255 44.4957 57.1818 44.1517 60.4282 43.5783C60.8838 43.521 61.3394 43.4063 61.852 43.349ZM61.852 52.8667V44.381C60.1434 44.4957 58.3778 44.6104 57.7513 46.5024C57.2957 47.7638 57.2957 49.2545 57.4666 50.5732C57.5805 51.4906 57.8083 52.6373 58.6626 53.2107C59.5739 53.8414 61.1116 53.7267 61.852 52.8667Z" fill="white"/>
</svg>
