<svg width="215" height="20" viewBox="0 0 215 20" fill="none" xmlns="http://www.w3.org/2000/svg">
<g clip-path="url(#clip0_512_1052)">
<path d="M120.134 9.81494C121.241 10.0509 122.131 10.6049 122.803 11.4763C123.475 12.3297 123.81 13.3103 123.81 14.4177C123.81 16.0156 123.248 17.2864 122.122 18.2308C121.014 19.1568 119.462 19.6198 117.465 19.6198H108.559V0.500366H117.165C119.108 0.500366 120.624 0.945267 121.713 1.83507C122.821 2.72465 123.375 3.932 123.375 5.45731C123.375 6.58309 123.075 7.51802 122.476 8.26258C121.895 9.00691 121.114 9.52444 120.134 9.81494ZM113.216 8.23533H116.266C117.029 8.23533 117.61 8.07197 118.009 7.74506C118.427 7.40004 118.636 6.90084 118.636 6.24701C118.636 5.5934 118.427 5.09419 118.009 4.74918C117.61 4.40416 117.029 4.23164 116.266 4.23164H113.216V8.23533ZM116.648 15.8612C117.428 15.8612 118.028 15.6887 118.445 15.3437C118.881 14.9806 119.099 14.4631 119.099 13.7913C119.099 13.1194 118.872 12.593 118.418 12.2117C117.982 11.8303 117.374 11.6397 116.593 11.6397H113.216V15.8612H116.648Z" fill="url(#paint0_linear_512_1052)"/>
<path d="M131.169 16.0246H137.27V19.6198H126.512V0.500366H131.169V16.0246Z" fill="url(#paint1_linear_512_1052)"/>
<path d="M148.533 19.8104C146.736 19.8104 145.083 19.3928 143.576 18.5575C142.087 17.7225 140.898 16.5603 140.008 15.0714C139.137 13.5644 138.701 11.8757 138.701 10.0056C138.701 8.13549 139.137 6.45599 140.008 4.96709C140.898 3.4782 142.087 2.31623 143.576 1.48095C145.083 0.645667 146.736 0.228027 148.533 0.228027C150.331 0.228027 151.974 0.645667 153.463 1.48095C154.97 2.31623 156.15 3.4782 157.003 4.96709C157.875 6.45599 158.311 8.13549 158.311 10.0056C158.311 11.8757 157.875 13.5644 157.003 15.0714C156.132 16.5603 154.952 17.7225 153.463 18.5575C151.974 19.3928 150.331 19.8104 148.533 19.8104ZM148.533 15.5616C150.058 15.5616 151.275 15.0533 152.183 14.0365C153.109 13.0198 153.572 11.6762 153.572 10.0056C153.572 8.31717 153.109 6.97351 152.183 5.97489C151.275 4.95793 150.058 4.44957 148.533 4.44957C146.99 4.44957 145.755 4.94899 144.829 5.94762C143.921 6.94625 143.467 8.29884 143.467 10.0056C143.467 11.6943 143.921 13.0468 144.829 14.0638C145.755 15.0624 146.99 15.5616 148.533 15.5616Z" fill="url(#paint2_linear_512_1052)"/>
<path d="M160.111 10.0329C160.111 8.14469 160.52 6.46519 161.337 4.9944C162.154 3.50551 163.289 2.35247 164.741 1.53551C166.212 0.700232 167.874 0.282593 169.726 0.282593C171.995 0.282593 173.938 0.881905 175.554 2.08008C177.17 3.27848 178.25 4.91261 178.795 6.98249H173.675C173.293 6.18363 172.749 5.57539 172.041 5.15775C171.351 4.74011 170.561 4.53139 169.671 4.53139C168.237 4.53139 167.074 5.0306 166.185 6.02923C165.295 7.02785 164.85 8.36256 164.85 10.0329C164.85 11.7035 165.295 13.038 166.185 14.0366C167.074 15.0352 168.237 15.5344 169.671 15.5344C170.561 15.5344 171.351 15.3257 172.041 14.9081C172.749 14.4904 173.293 13.8822 173.675 13.0833H178.795C178.25 15.1532 177.17 16.7873 175.554 17.9857C173.938 19.1658 171.995 19.756 169.726 19.756C167.874 19.756 166.212 19.3475 164.741 18.5303C163.289 17.6952 162.154 16.5422 161.337 15.0714C160.52 13.6008 160.111 11.9213 160.111 10.0329Z" fill="url(#paint3_linear_512_1052)"/>
<path d="M192.732 19.6198L186.304 11.1767V19.6198H181.647V0.500366H186.304V8.88894L192.677 0.500366H198.152L190.744 9.86946L198.424 19.6198H192.732Z" fill="url(#paint4_linear_512_1052)"/>
<path d="M207.555 19.8104C206.157 19.8104 204.904 19.5834 203.797 19.1296C202.689 18.6755 201.8 18.0038 201.128 17.1142C200.474 16.2244 200.129 15.1531 200.093 13.9002H205.05C205.122 14.6084 205.367 15.1532 205.785 15.5344C206.203 15.8975 206.747 16.0792 207.419 16.0792C208.109 16.0792 208.654 15.9247 209.053 15.6162C209.453 15.2892 209.653 14.8446 209.653 14.2817C209.653 13.8095 209.489 13.4191 209.162 13.1105C208.854 12.8017 208.463 12.5476 207.991 12.3479C207.537 12.1481 206.884 11.9213 206.03 11.667C204.796 11.2858 203.788 10.9043 203.007 10.5231C202.226 10.1419 201.555 9.57902 200.992 8.83446C200.429 8.09013 200.147 7.11876 200.147 5.92036C200.147 4.14097 200.792 2.75197 202.081 1.75334C203.37 0.736612 205.05 0.228027 207.12 0.228027C209.226 0.228027 210.924 0.736612 212.213 1.75334C213.502 2.75197 214.193 4.15014 214.282 5.94762H209.244C209.208 5.33021 208.981 4.84912 208.563 4.5041C208.146 4.14098 207.61 3.9593 206.956 3.9593C206.393 3.9593 205.94 4.11371 205.595 4.42231C205.25 4.7128 205.077 5.13961 205.077 5.70249C205.077 6.31968 205.367 6.80101 205.948 7.14603C206.529 7.49082 207.437 7.86309 208.672 8.26263C209.907 8.68027 210.906 9.0796 211.668 9.46104C212.45 9.84225 213.12 10.396 213.683 11.1222C214.246 11.8487 214.528 12.7836 214.528 13.9275C214.528 15.0171 214.246 16.0065 213.683 16.8961C213.138 17.7859 212.34 18.494 211.288 19.0205C210.233 19.5472 208.99 19.8104 207.555 19.8104Z" fill="url(#paint5_linear_512_1052)"/>
<path d="M24.7865 9.9399C24.7865 8.05169 25.195 6.37195 26.0122 4.90138C26.8291 3.41249 27.9638 2.25946 29.4165 1.4425C30.8871 0.607222 32.5485 0.189575 34.4005 0.189575C36.6702 0.189575 38.6129 0.788888 40.2289 1.98706C41.845 3.18546 42.9252 4.81961 43.4699 6.88949H38.3497C37.9684 6.09063 37.4237 5.48238 36.7155 5.06474C36.0257 4.6471 35.2358 4.43839 34.3462 4.43839C32.9116 4.43839 31.7496 4.93759 30.8601 5.93622C29.9702 6.93485 29.5253 8.26956 29.5253 9.9399C29.5253 11.6105 29.9702 12.9449 30.8601 13.9436C31.7496 14.9422 32.9116 15.4414 34.3462 15.4414C35.2358 15.4414 36.0257 15.2327 36.7155 14.815C37.4237 14.3974 37.9684 13.7892 38.3497 12.9903H43.4699C42.9252 15.0602 41.845 16.6943 40.2289 17.8927C38.6129 19.0728 36.6702 19.6629 34.4005 19.6629C32.5485 19.6629 30.8871 19.2545 29.4165 18.4373C27.9638 17.6022 26.8291 16.4492 26.0122 14.9784C25.195 13.5078 24.7865 11.8283 24.7865 9.9399Z" fill="white"/>
<path d="M56.072 19.5269L52.0958 12.3095H50.9789V19.5269H46.3217V0.407471H54.1384C55.6454 0.407471 56.9254 0.670704 57.9785 1.19739C59.0498 1.72386 59.8486 2.45009 60.3753 3.37609C60.9018 4.284 61.165 5.30073 61.165 6.4265C61.165 7.69753 60.8019 8.83247 60.0756 9.8311C59.3675 10.8297 58.3144 11.5376 56.9164 11.9553L61.3286 19.5269H56.072ZM50.9789 9.01391H53.866C54.7194 9.01391 55.3549 8.8052 55.7725 8.38756C56.2083 7.96992 56.4261 7.37978 56.4261 6.61712C56.4261 5.89088 56.2083 5.31905 55.7725 4.90141C55.3549 4.48377 54.7194 4.27506 53.866 4.27506H50.9789V9.01391Z" fill="white"/>
<path d="M68.7458 4.13876V8.00613H74.9827V11.6013H68.7458V15.7956H75.7996V19.5269H64.0885V0.407471H75.7996V4.13876H68.7458Z" fill="white"/>
<path d="M85.9865 0.407471C88.0019 0.407471 89.7632 0.807013 91.2701 1.60587C92.7771 2.40473 93.9393 3.5305 94.7563 4.98297C95.5916 6.41756 96.0092 8.07875 96.0092 9.96718C96.0092 11.8373 95.5916 13.4987 94.7563 14.9512C93.9393 16.4038 92.7682 17.5296 91.2429 18.3285C89.7359 19.1273 87.9838 19.5269 85.9865 19.5269H78.8236V0.407471H85.9865ZM85.6869 15.4959C87.4481 15.4959 88.819 15.0148 89.7996 14.0524C90.7799 13.0902 91.2701 11.7285 91.2701 9.96718C91.2701 8.2059 90.7799 6.83498 89.7996 5.85467C88.819 4.87414 87.4481 4.38389 85.6869 4.38389H83.4809V15.4959H85.6869Z" fill="white"/>
<path d="M103.269 0.407471V19.5269H98.6119V0.407471H103.269Z" fill="white"/>
<path fill-rule="evenodd" clip-rule="evenodd" d="M9.35484 3.64439C9.35484 2.75994 10.0719 2.04309 10.9561 2.04309H15.4362C16.3204 2.04309 17.0375 2.75994 17.0375 3.64439V9.37694C17.0375 10.2614 16.3204 10.9782 15.4362 10.9782H11.9896C11.1052 10.9782 10.3883 11.6951 10.3883 12.5795V18.2089C10.3883 19.0933 9.67126 19.8101 8.78697 19.8101H4.307C3.42263 19.8101 2.70569 19.0933 2.70569 18.2089V12.4763C2.70569 11.5918 3.42263 10.875 4.307 10.875H7.75358C8.63795 10.875 9.35484 10.1581 9.35484 9.27371V3.64439Z" fill="url(#paint6_linear_512_1052)"/>
<path d="M0.138672 2.00094C0.138672 1.13325 0.842025 0.42981 1.70964 0.42981H6.25918C7.12681 0.42981 7.83017 1.13325 7.83017 2.00094V7.81819C7.83017 8.68565 7.12681 9.38908 6.2592 9.38908H1.70964C0.842025 9.38908 0.138672 8.68565 0.138672 7.81819V2.00094Z" fill="#BAFF20"/>
</g>
<defs>
<linearGradient id="paint0_linear_512_1052" x1="105.91" y1="-7.11526" x2="224.865" y2="76.8303" gradientUnits="userSpaceOnUse">
<stop stop-color="#BAFF00"/>
<stop offset="1" stop-color="#149C6B"/>
</linearGradient>
<linearGradient id="paint1_linear_512_1052" x1="105.909" y1="-7.11526" x2="224.865" y2="76.8302" gradientUnits="userSpaceOnUse">
<stop stop-color="#BAFF00"/>
<stop offset="1" stop-color="#149C6B"/>
</linearGradient>
<linearGradient id="paint2_linear_512_1052" x1="105.909" y1="-7.11521" x2="224.865" y2="76.8304" gradientUnits="userSpaceOnUse">
<stop stop-color="#BAFF00"/>
<stop offset="1" stop-color="#149C6B"/>
</linearGradient>
<linearGradient id="paint3_linear_512_1052" x1="105.909" y1="-7.11517" x2="224.865" y2="76.8304" gradientUnits="userSpaceOnUse">
<stop stop-color="#BAFF00"/>
<stop offset="1" stop-color="#149C6B"/>
</linearGradient>
<linearGradient id="paint4_linear_512_1052" x1="105.909" y1="-7.11526" x2="224.865" y2="76.8303" gradientUnits="userSpaceOnUse">
<stop stop-color="#BAFF00"/>
<stop offset="1" stop-color="#149C6B"/>
</linearGradient>
<linearGradient id="paint5_linear_512_1052" x1="105.909" y1="-7.11521" x2="224.865" y2="76.8303" gradientUnits="userSpaceOnUse">
<stop stop-color="#BAFF00"/>
<stop offset="1" stop-color="#149C6B"/>
</linearGradient>
<linearGradient id="paint6_linear_512_1052" x1="15.0226" y1="2.46006" x2="2.88097" y2="19.9239" gradientUnits="userSpaceOnUse">
<stop stop-color="#AEF808"/>
<stop offset="1" stop-color="#6BD033"/>
</linearGradient>
<clipPath id="clip0_512_1052">
<rect width="214.667" height="20" fill="white"/>
</clipPath>
</defs>
</svg>
