<svg width="188" height="39" viewBox="0 0 188 39" fill="none" xmlns="http://www.w3.org/2000/svg">
<path d="M28.4017 28.5776H23.6917V0H28.4017V28.5776Z" fill="white"/>
<path fill-rule="evenodd" clip-rule="evenodd" d="M110.75 28.5776H115.225V25.7515H115.303C116.677 28.0281 119.15 29.0551 121.78 29.0551C127.589 29.0551 131.082 24.731 131.082 19.1575C131.082 13.5839 127.353 9.26638 121.976 9.26638C118.443 9.26638 116.559 10.9148 115.578 12.1316H115.46V0.156493H110.75V28.5776ZM126.372 19.1575C126.372 22.1013 124.292 24.8095 120.838 24.8095C117.384 24.8095 115.303 22.1013 115.303 19.1575C115.303 16.2137 117.384 13.5054 120.838 13.5054C124.292 13.5054 126.372 16.2137 126.372 19.1575Z" fill="white"/>
<path fill-rule="evenodd" clip-rule="evenodd" d="M152.252 19.5107V20.806H137.887C138.201 23.5928 140.32 25.2805 142.95 25.2805C145.305 25.2805 146.836 24.1815 148.013 22.7292L151.389 25.2805C149.191 27.9888 146.404 29.0551 143.421 29.0551C137.73 29.0551 133.177 25.0843 133.177 19.1575C133.177 13.2307 137.73 9.26637 143.421 9.26637C148.68 9.26637 152.252 12.9558 152.252 19.5107ZM142.754 12.7989C139.967 12.7989 138.24 14.5651 137.887 17.2734H147.542C147.503 14.5259 145.698 12.7989 142.754 12.7989Z" fill="white"/>
<path d="M155.404 28.5776H160.114V18.4903C160.114 17.4697 160.742 13.7409 165.177 13.7409C165.923 13.7409 166.669 13.8979 167.454 14.0941V9.54108C166.904 9.38406 166.355 9.26637 165.766 9.26637C163.293 9.26637 161.213 10.5616 160.192 12.7204H160.114V9.73734H155.404V28.5776Z" fill="white"/>
<path fill-rule="evenodd" clip-rule="evenodd" d="M183.525 9.73734V12.5634H183.447C182.073 10.2869 179.6 9.26637 176.971 9.26637C171.161 9.26637 167.668 13.5839 167.668 19.1575C167.668 24.4955 171.397 28.8196 177.049 28.8196C179.404 28.8196 181.838 27.9103 183.211 26.0655H183.29V27.4393C183.29 31.1746 181.877 33.7652 177.324 33.7652C174.694 33.7652 172.731 32.784 170.847 31.0569L168.021 34.9034C170.69 37.2585 173.87 38.0042 177.363 38.0042C184.703 38.0042 188 33.6867 188 26.8898V9.73734H183.525ZM177.952 13.5054C181.367 13.5054 183.525 15.7819 183.525 19.0397C183.525 22.1798 181.406 24.5741 177.913 24.5741C174.733 24.5741 172.378 22.1013 172.378 19.1182C172.378 15.7819 174.655 13.5054 177.952 13.5054Z" fill="white"/>
<path d="M82.347 28.5776H77.6369V9.73734H82.1114V12.6811H82.1899C83.0142 10.9148 84.8197 9.26637 87.9598 9.26637C90.8642 9.26637 92.8661 10.4045 93.8473 12.7596C95.2212 10.3653 97.2229 9.26637 100.049 9.26637C105.073 9.26637 106.839 12.8381 106.839 17.352V28.5776H102.129V17.9014C102.129 15.5465 101.423 13.5054 98.6359 13.5054C95.6922 13.5054 94.5931 15.9389 94.5931 18.3724V28.5776H89.883V17.352C89.883 15.0362 88.941 13.5054 86.6645 13.5054C83.5637 13.5054 82.347 15.7819 82.347 18.2939V28.5776Z" fill="white"/>
<path fill-rule="evenodd" clip-rule="evenodd" d="M31.5878 19.1575C31.5878 25.0843 36.1407 29.0551 41.8321 29.0551C47.5234 29.0551 52.0764 25.0843 52.0764 19.1575C52.0764 13.2307 47.5234 9.26637 41.8321 9.26637C36.1407 9.26637 31.5878 13.2307 31.5878 19.1575ZM36.2978 19.1575C36.2978 16.2137 38.3781 13.5054 41.8321 13.5054C45.2861 13.5054 47.3664 16.2137 47.3664 19.1575C47.3664 22.1013 45.2861 24.8095 41.8321 24.8095C38.3781 24.8095 36.2978 22.1013 36.2978 19.1575Z" fill="white"/>
<path fill-rule="evenodd" clip-rule="evenodd" d="M0 28.5776H10.0088C15.2684 28.5776 20.5279 26.6935 20.5279 20.649C20.5279 17.0772 18.0158 14.3297 14.5226 13.9372V13.8586C17.3879 12.9951 19.3505 10.9148 19.3505 7.77485C19.3505 2.71156 15.0328 0.788319 10.833 0.788319H0V28.5776ZM4.94553 5.02727H9.02754C12.7563 5.02727 14.4049 6.20483 14.4049 8.59912C14.4049 10.6794 12.7563 12.0924 9.45933 12.0924H4.94553V5.02727ZM4.94553 16.3314H9.69471C13.6984 16.3314 15.5823 17.352 15.5823 20.2564C15.5823 23.9068 12.0497 24.3385 9.49859 24.3385H4.94553V16.3314Z" fill="white"/>
<path fill-rule="evenodd" clip-rule="evenodd" d="M64.5277 29.0551C58.8363 29.0551 54.2833 25.0843 54.2833 19.1575C54.2833 13.2307 58.8363 9.26637 64.5277 9.26637C70.219 9.26637 74.772 13.2307 74.772 19.1575C74.772 25.0843 70.219 29.0551 64.5277 29.0551ZM64.5277 13.5054C61.0736 13.5054 58.9933 16.2137 58.9933 19.1575C58.9933 22.1013 61.0736 24.8095 64.5277 24.8095C67.9817 24.8095 70.062 22.1013 70.062 19.1575C70.062 16.2137 67.9817 13.5054 64.5277 13.5054Z" fill="white"/>
</svg>
