<svg width="198" height="17" viewBox="0 0 198 17" fill="none" xmlns="http://www.w3.org/2000/svg">
<path fill-rule="evenodd" clip-rule="evenodd" d="M4.75294 13.653C4.75294 14.7695 5.07203 15.0247 7.11352 15.0247V15.7264H0V15.0247C1.40349 15.0247 1.88222 14.897 1.88222 13.6849V2.29684C1.88222 1.08458 1.40349 0.956906 0 0.956906V0.255162H11.9304L11.9943 4.49778H11.4201C11.101 1.30797 10.3035 1.02103 7.33691 1.02103H4.72116V7.33709H6.82639C8.8361 7.33709 8.96378 7.018 9.12323 5.42309H9.69749V10.0485H9.12323C8.96378 8.45364 8.8361 8.16632 6.82639 8.16632H4.72116V13.6532H4.75313L4.75294 13.653ZM13.4616 15.7264V15.0247C14.8652 15.0247 15.3438 14.897 15.3438 13.6849V2.29684C15.3438 1.08458 14.8652 0.956906 13.4616 0.956906V0.255162H20.0967V0.957094C18.693 0.957094 18.2145 1.08477 18.2145 2.29703V13.6851C18.2145 14.8972 18.693 15.0249 20.0967 15.0249V15.7266H13.4614L13.4616 15.7264ZM35.1532 15.9816L24.5625 2.87091V13.6212C24.5625 14.8654 25.4237 15.0566 26.8913 15.0566V15.7586H21.277V15.0566C22.7442 15.0566 23.5419 14.8654 23.5419 13.6212V1.69062C22.8719 0.988872 22.3934 0.956906 21.277 0.956906V0.255162H26.2533L34.3557 10.6864V2.36058C34.3557 1.11655 33.4945 0.925128 32.0271 0.925128V0.255162H37.6732V0.957094C36.206 0.957094 35.4083 1.14851 35.4083 2.39274V15.982H35.1532V15.9816ZM42.7135 15.7264H37.1309V15.0247C38.5983 15.0247 39.2683 14.8333 39.7467 13.5573L44.7869 0.0957094H46.1904L51.6133 13.653C52.0919 14.8652 52.3151 14.9927 53.4316 14.9927V15.6945H46.9561V14.9927C48.9338 14.9927 49.1252 14.8333 48.6465 13.653L47.0518 9.53803H42.203L40.7677 13.5253C40.3211 14.7376 41.0229 14.9927 42.7454 14.9927V15.7264H42.7135ZM42.4901 8.74039H46.7007L44.4998 3.19L42.4901 8.74039ZM67.9777 15.9816L57.4191 2.87091V13.6212C57.4191 14.8654 58.2803 15.0566 59.7477 15.0566V15.7586H54.2608V15.0566C55.6008 15.0566 56.3982 14.8654 56.3982 13.6212V1.72258C55.6327 1.02084 55.0585 0.956906 53.7827 0.956906V0.255162H59.0777L67.1801 10.6864V2.36058C67.1801 1.11655 66.3189 0.925128 64.8517 0.925128V0.255162H70.466V0.957094C68.9986 0.957094 68.2011 1.14851 68.2011 2.39274V15.982H67.9777V15.9816ZM83.6404 0.223385H84.0233L84.2465 4.84865L83.6724 4.88062C83.2896 2.23309 81.8861 0.829419 79.3021 0.829419C76.4312 0.829419 74.262 3.28571 74.262 7.04978C74.262 11.8666 77.2924 14.6099 80.4822 14.6099C81.8541 14.6099 83.0981 14.2272 84.3102 12.9195L84.757 13.3658C83.7679 14.7695 81.8221 15.9498 79.2062 15.9498C75.3147 15.9498 71.3592 13.015 71.3592 8.10239C71.359 3.34945 74.9636 0 79.3341 0C81.4075 0 82.4921 0.893162 83.0662 0.893162C83.3213 0.893162 83.5128 0.669966 83.6404 0.223385ZM86.0328 15.7264V15.0247C87.4365 15.0247 87.915 14.897 87.915 13.6849V2.29684C87.915 1.08458 87.4365 0.956906 86.0328 0.956906V0.255162H92.668V0.957094C91.2645 0.957094 90.7857 1.08477 90.7857 2.29703V13.6851C90.7857 14.8972 91.2645 15.0249 92.668 15.0249V15.7266H86.0328V15.7264ZM98.9203 15.7264H93.7206V15.0247C94.8691 15.0247 95.4751 14.8333 95.9537 13.5573L100.994 0.0957094H102.397L107.82 13.653C108.299 14.8652 108.522 14.9927 109.638 14.9927V15.6945H103.163V14.9927C105.141 14.9927 105.332 14.8333 104.854 13.653L103.259 9.53803H98.4101L96.9745 13.5253C96.5279 14.7376 97.2298 14.9927 98.9524 14.9927V15.7264H98.9205H98.9203ZM98.6969 8.74039H102.908L100.739 3.19L98.6969 8.74039ZM110.723 15.7264V15.0247C112.127 15.0247 112.605 14.897 112.605 13.6849V2.29684C112.605 1.08458 112.127 0.956906 110.723 0.956906V0.255162H117.326V0.957094C115.923 0.957094 115.476 1.08477 115.476 2.29703V13.7808C115.476 14.8015 115.986 14.9292 116.816 14.9292H117.613C120.612 14.9292 121.569 14.4826 122.398 11.0694L122.972 11.1331L122.494 15.6948H110.723V15.7268V15.7264ZM142.878 0.255162L142.942 4.75294H142.367C142.049 1.43545 141.251 1.02103 138.284 1.02103H137.327V13.6532C137.327 14.8654 137.774 15.0249 139.688 15.0249V15.7266H132.096V15.0249C134.01 15.0249 134.488 14.8335 134.488 13.6532V1.02084H133.531C130.565 1.02084 129.767 1.43545 129.448 4.75294H128.874L128.938 0.255162H142.878ZM144.377 15.7266V15.0247C145.781 15.0247 146.259 14.897 146.259 13.6849V2.29684C146.259 1.08458 145.781 0.956906 144.377 0.956906V0.255162H151.012V0.957094C149.608 0.957094 149.13 1.08477 149.13 2.29703V13.6851C149.13 14.8972 149.608 15.0249 151.012 15.0249V15.7266H144.377ZM170.981 0.254974V0.957094C169.578 0.957094 168.972 1.02103 169.099 2.26506L170.311 13.7489C170.439 14.9292 170.886 15.0566 172.289 15.0566V15.7586H165.686V15.0566C167.058 15.0566 167.536 14.9292 167.441 13.7489L166.196 1.69043L161.316 16.0134H161.124L156.339 1.65884L155.191 13.7167C155.063 14.929 155.893 15.0565 157.296 15.0565V15.7584H152.128V15.0565C153.532 15.0565 154.011 14.8333 154.106 13.7167L155.318 2.23291C155.446 1.02084 154.84 0.925128 153.436 0.925128V0.255162H158.859L162.113 10.8138L165.622 0.255162H170.981L170.981 0.254974ZM183.326 10.0482H182.752C182.593 8.45327 182.465 8.16595 180.455 8.16595H178.095V13.7805C178.095 14.8011 178.605 14.9288 179.434 14.9288H180.71C183.709 14.9288 184.666 14.4822 185.495 11.069L186.07 11.1328L185.527 15.6945H173.342V14.9925C174.745 14.9925 175.224 14.865 175.224 13.6528V2.29684C175.224 1.08458 174.745 0.956906 173.342 0.956906V0.255162H185.049L185.113 4.11494H184.538C184.188 1.37152 183.486 1.05262 180.423 1.05262H178.127V7.33672H180.487C182.497 7.33672 182.624 7.01781 182.784 5.42291H183.358V10.0484H183.326L183.326 10.0482ZM195.64 12.5362C195.64 11.1328 194.746 10.431 193.215 9.56962L190.759 8.29362C188.909 7.30475 187.824 6.22017 187.824 4.27439C187.824 1.85026 189.898 0 192.609 0C194.459 0 195.416 0.893162 195.959 0.893162C196.309 0.893162 196.469 0.669966 196.628 0.223385H197.075L197.298 4.56171L196.724 4.59368C196.405 2.48807 194.906 0.861197 192.8 0.861197C191.205 0.861197 190.153 1.81829 190.153 3.15803C190.153 4.62545 191.269 5.23149 192.513 5.90145L194.619 7.01781C196.597 8.10239 198 9.18697 198 11.2604C198 14.0038 195.639 15.9498 192.705 15.9498C190.631 15.9498 189.61 14.9608 189.068 14.9608C188.717 14.9608 188.526 15.2798 188.366 15.7584H187.92L187.601 11.1647L188.175 11.101C188.622 13.9719 190.599 15.1522 192.577 15.1522C194.236 15.1202 195.639 14.3867 195.639 12.5366L195.64 12.5362Z" fill="white"/>
</svg>
