<svg width="20" height="20" viewBox="0 0 20 20" fill="none" xmlns="http://www.w3.org/2000/svg">
<g opacity="0.69">
<path fill-rule="evenodd" clip-rule="evenodd" d="M10 0C4.47715 0 0 4.47715 0 10C0 15.5228 4.47715 20 10 20C15.5228 20 20 15.5228 20 10C20 4.47715 15.5228 0 10 0ZM7.33342 14C6.59709 14 6.0001 13.403 6.0001 12.6667C6.0001 11.9303 6.59709 11.3333 7.33342 11.3333C8.06975 11.3333 8.66674 11.9303 8.66674 12.6667C8.66674 13.403 8.06975 14 7.33342 14ZM15.3333 14C15.3333 8.85367 11.1464 4.66667 6.0001 4.66667V6.44433C10.1664 6.44433 13.5557 9.83367 13.5557 14H15.3333ZM6 7.77767C9.43096 7.77767 12.2223 10.569 12.2223 14H10.4446C10.4446 11.5493 8.45064 9.55567 6 9.55567V7.77767Z" fill="white"/>
</g>
</svg>
