<svg width="20" height="20" viewBox="0 0 20 20" fill="none" xmlns="http://www.w3.org/2000/svg">
<g opacity="0.69">
<path fill-rule="evenodd" clip-rule="evenodd" d="M10 0C4.47715 0 0 4.47715 0 10C0 15.5228 4.47715 20 10 20C15.5228 20 20 15.5228 20 10C20 4.47715 15.5228 0 10 0ZM9.72149 8.47415L9.7005 8.12813C9.63755 7.23129 10.1901 6.41214 11.0645 6.09436C11.3862 5.98137 11.9318 5.96725 12.2886 6.06611C12.4285 6.10848 12.6943 6.24972 12.8831 6.37683L13.2259 6.60986L13.6036 6.48981C13.8134 6.42626 14.0932 6.32033 14.2191 6.24972C14.338 6.18616 14.443 6.15085 14.443 6.17204C14.443 6.29209 14.1842 6.70166 13.9673 6.92764C13.6735 7.24541 13.7575 7.27366 14.352 7.06181C14.7088 6.94176 14.7158 6.94176 14.6458 7.07593C14.6039 7.14655 14.387 7.39371 14.1562 7.61968C13.7645 8.00808 13.7435 8.05045 13.7435 8.37528C13.7435 8.87666 13.5057 9.92179 13.2678 10.4938C12.8272 11.5672 11.8829 12.6759 10.9386 13.2337C9.60957 14.0176 7.83989 14.2153 6.35 13.7563C5.85336 13.6009 5 13.2055 5 13.1349C5 13.1137 5.25881 13.0854 5.57357 13.0784C6.23108 13.0642 6.88859 12.8806 7.44818 12.5558L7.8259 12.3298L7.39222 12.1815C6.77668 11.9697 6.22409 11.4824 6.08419 11.0234C6.04222 10.8751 6.05621 10.8681 6.44792 10.8681L6.85362 10.861L6.51088 10.6986C6.10518 10.4938 5.73445 10.1478 5.55259 9.79468C5.41969 9.54046 5.25181 8.89785 5.30078 8.84842C5.31477 8.82723 5.46166 8.8696 5.62953 8.9261C6.11217 9.10264 6.17513 9.06027 5.89533 8.76368C5.37072 8.22699 5.20984 7.42902 5.46166 6.67342L5.58057 6.33446L6.04222 6.79347C6.98652 7.71855 8.09869 8.26936 9.37175 8.43178L9.72149 8.47415Z" fill="white"/>
</g>
</svg>
